<?xml version="1.0" encoding="utf-8"?>
<!-- Generator: Adobe Illustrator 16.0.0, SVG Export Plug-In . SVG Version: 6.00 Build 0)  -->
<!DOCTYPE svg PUBLIC "-//W3C//DTD SVG 1.1//EN" "http://www.w3.org/Graphics/SVG/1.1/DTD/svg11.dtd">
<svg version="1.1"
	 id="Layer_1" xmlns:dc="http://purl.org/dc/elements/1.1/" xmlns:cc="http://creativecommons.org/ns#" xmlns:rdf="http://www.w3.org/1999/02/22-rdf-syntax-ns#" xmlns:svg="http://www.w3.org/2000/svg" xmlns:sodipodi="http://sodipodi.sourceforge.net/DTD/sodipodi-0.dtd" xmlns:inkscape="http://www.inkscape.org/namespaces/inkscape" sodipodi:docname="Colorful_Animal_Camel_black_white_line_art_coloring_book_colouring.svg" inkscape:version="0.48.1 "
	 xmlns="http://www.w3.org/2000/svg" xmlns:xlink="http://www.w3.org/1999/xlink" x="0px" y="0px" width="439.688px"
	 height="494.5px" viewBox="0 0 439.688 494.5" enable-background="new 0 0 439.688 494.5" xml:space="preserve">
<path id="path219" inkscape:connector-curvature="0" fill="#FFFFFF" stroke="#000000" stroke-width="2" d="M321.463,96.237
	c-6.856-31.663-27.839-47.567-50.539-47.567c-19.334,0-39.712,5.681-47.143,33.078c-49.604,10.841-25.636,55.313-51.435,63.517
	c-1.682,0.537-3.072,0.828-4.212,0.898c-6.544-7.959-11.82-18.93-13.566-32.478c-4.305-33.338-21.504-61.781-23.655-63.001
	c-2.15-1.225,15.591-3.061,7.529-8.563c-8.067-5.506-12.396,5.833-12.396,5.833l0.301,0.287c-0.301-0.287-0.626-0.552-0.976-0.794
	c-5.599-3.889-17.033-2.267-17.033-2.267c0-6.725-8.063-11.926-13.436-10.398c-5.376,1.526,3.259,10.77,3.259,10.77
	s-47.07-2.825-58.087,30.816c0,0-2.69,11.628,6.984,12.24c0,0-4.475,15.899,13.485,13.976c12.097-1.296,5.835-7.171,24.257-9.588
	c6.987-0.916,8.18,10.359,28.623,9.926c0,0-3.368,114.123,59.039,133.908c-0.665,7.57,1.284,30.753,10.064,49.455l0.078,22.777
	c0,0-5.617,13.179,1.678,29.61c0,0-1.191,58.761-13.313,58.761c-2.664,0-4.775,1.125-6.457,2.868
	c0.003-0.008,0.006-0.015,0.006-0.015c-5.271,5.448-6.291,17.018-6.639,19.524c0,0-0.127,0.517,0.133,0.542
	c0,0,4.314-0.807,8.213-8.831c0,0-1.018,8.279,2.204,9.635l0.508,0.06c11.588,0.542,28.59,0.081,32.498-6.947
	c0,0,0.06-8.607-2.261-13.861c0,0.001,0,0.001,0,0.003c-0.893-2.02-2.136-3.546-3.873-3.895c0,0,3.98-45.944,9.772-59.582
	c6.697-15.771,2.33-25.228,2.33-25.228s-1.897-12.579,0.293-28.117c2.416-17.155,2.383-12.077,4.132-33.973
	c1.748-21.894,9.586-11.48,9.586-11.48s7.125,21.185,11.476,32.985c5.103,13.843,0.054,38.171,0.054,38.171
	s-6.707,19.848,4.782,37.376c11.484,17.53-6.044,54.397-6.044,54.397s-6.044,3.023-6.044,16.921c0,1.105,0.267,2.055,0.759,2.867
	c0,0,3.295,0.255,9.557-6.053c0,0,0.664,8.938,2.641,10.254l0.215,0.017c9.167,0.204,20.955-1.943,26.074-4.172
	c2.861-1.245,2.842-6.182,2.842-6.182c-0.312-2.556-1.038-6.064-2.656-12.34l-0.003,0.002c-0.683-2.656-1.524-5.365-2.564-7.965
	c-4.835-12.087-4.23-39.89-4.23-39.89s7.645-32.164,3.024-44.118c-5.402-13.967,1.484-30.036,6.647-41.098
	c4.708-10.102,5.673-31.959,5.673-31.959s18.768-2.208,18.642-1.196c-1.208,9.752,1.551,29.617,10.46,42.839l-0.916,28.922
	c0,0-3.581,6.116-3.334,10.329c0.202,3.486,3.791,9.411,3.791,9.411l-0.918,25.248c0,0-3.226,11.197-8.021,11.293
	c-1.521,0.031-2.991,0.129-4.373,0.343l0.042,0.028c-4.825,0.848-9.24,3.38-10.173,9.903c-0.116,0.82-0.053,1.601,0.166,2.338
	c0,0,1.268,0.923,6.353-3.599c0,0-1.092,1.864-1.705,8.661l0.018,0.023c5.385,3.087,13.645,3.942,16.324,1.645
	c0,0,3.776,13.421,23.905,12.661l0.214-0.014c2.313-1.358,1.705-12.352,1.705-12.352c4.632,12.657,12.133,10.157,12.133,10.157
	l0.119-0.181c0,0,0.837-11.71-7.58-22.954c0,0,0.013,0.026,0.021,0.042c-1.707-2.285-3.784-4.553-6.341-6.699l2.745-35.47
	l0.047-0.424c0,0,1.763-1.668,3.562-8.607c1.095-4.225-1.945-12.429-1.945-12.429l1.8-23.206c0,0,13.493-10.723,13.146-27.333
	c-0.114-5.572,0.908-8.462,0.908-8.462C386.638,152.738,362.864,112.439,321.463,96.237L321.463,96.237z"/>
<path id="path221" inkscape:connector-curvature="0" fill="#FFFFFF" stroke="#000000" stroke-width="2" d="M96.14,49.22
	c-1.528,0.515-2.298,2.726-1.715,4.934c0.582,2.207,2.295,3.583,3.822,3.07c1.526-0.519,2.293-2.729,1.71-4.936
	C99.376,50.074,97.666,48.704,96.14,49.22z M74.486,79.963c-8.795,19.263-26.126,8.571-26.126,8.571s-0.479-0.34-0.691-0.015
	c-0.207,0.327-0.238,0.653,0.297,0.847c0,0,17.667,11.59,27.206-8.064c0,0,0.499-0.62,0.129-1.075
	C74.842,79.655,74.486,79.963,74.486,79.963z M108.566,48.978c-1.572,0.066-2.767,2.005-2.671,4.326
	c0.097,2.321,1.448,4.155,3.019,4.086c1.567-0.069,2.767-2.005,2.671-4.33C111.489,50.742,110.137,48.911,108.566,48.978
	L108.566,48.978z M56.865,73.834c0.824,0.212,1.758-0.558,2.088-1.723c0.33-1.165-0.073-2.281-0.896-2.495
	c-0.824-0.212-1.758,0.56-2.088,1.723C55.643,72.502,56.04,73.62,56.865,73.834z M50.349,74.696
	c0.809-0.396,0.958-1.763,0.328-3.049c-0.625-1.287-1.793-2.01-2.603-1.612c-0.81,0.399-0.962,1.763-0.331,3.05
	C48.369,74.373,49.539,75.097,50.349,74.696L50.349,74.696z M135.764,43.218c-2.501-0.591-7.082,6.015-7.082,6.015
	C140.369,45.96,139.458,44.095,135.764,43.218z M240.847,407.15c-8.891-0.275-9.167-6.087-9.167-6.087s-6.044,3.023-6.044,16.921
	c0,1.105,0.267,2.055,0.759,2.867c0,0,3.296,0.255,9.557-6.053c0,0,0.664,8.938,2.641,10.254l0.215,0.017
	c9.167,0.204,20.955-1.943,26.074-4.172c2.862-1.244,2.842-6.182,2.842-6.182c-0.312-2.556-1.037-6.064-2.656-12.34
	C265.069,402.373,260.438,407.751,240.847,407.15z M189.618,404.285c-28.33,3.316-25.1-4.001-25.1-4.001
	c-5.271,5.448-6.292,17.018-6.639,19.524c0,0-0.127,0.517,0.132,0.542c0,0,4.315-0.807,8.213-8.831c0,0-1.018,8.279,2.204,9.635
	l0.508,0.06c11.589,0.542,28.59,0.081,32.499-6.947c0,0,0.06-8.607-2.262-13.861C199.107,403.057,189.618,404.285,189.618,404.285
	L189.618,404.285z M330.47,370.852c0,0,2.671,4.653-8.178,6.764c-10.733,2.088-17.805-5.012-19.95-7.561
	c0.671-1.923,1.824-4.188,3.814-6.226c4.632-4.748,5.423-36.841,5.423-36.841c-4.972-9.832,0.565-20.681,0.565-20.681
	c1.583-13.901-0.225-23.619-0.225-23.619c-8.929-22.603-3.165-47.352-3.165-47.352s0.109-0.487-0.356-0.565
	c-0.465-0.078-0.638,0.565-0.638,0.565s-5.764,24.749,3.163,47.352c0,0,1.81,9.72,0.227,23.619c0,0-5.537,10.85-0.565,20.681
	c0,0-0.792,32.096-5.424,36.841c-1.704,1.744-2.792,3.655-3.491,5.376c-0.012-0.017-0.02-0.028-0.02-0.028
	c-0.771,1.522-1.254,3.205-1.551,4.866c-3.065,0.379-6.341-1.061-6.341-1.061c-7.403-4.463-4.766-8.417-4.766-8.417
	c-4.825,0.849-9.24,3.38-10.173,9.903c-0.116,0.82-0.053,1.601,0.166,2.338c0,0,1.268,0.923,6.353-3.599c0,0-1.092,1.864-1.705,8.66
	l0.018,0.023c5.385,3.087,13.645,3.942,16.324,1.645c0,0,3.776,13.421,23.906,12.661l0.214-0.014
	c2.313-1.358,1.705-12.352,1.705-12.352c4.633,12.657,12.133,10.156,12.133,10.156l0.12-0.18
	C338.05,393.807,338.887,382.098,330.47,370.852L330.47,370.852z"/>
</svg>
