<?xml version="1.0" encoding="utf-8"?>
<!-- Generator: Adobe Illustrator 15.0.0, SVG Export Plug-In . SVG Version: 6.00 Build 0)  -->
<!DOCTYPE svg PUBLIC "-//W3C//DTD SVG 1.1//EN" "http://www.w3.org/Graphics/SVG/1.1/DTD/svg11.dtd">
<svg version="1.1"
	 id="Layer_1" xmlns:dc="http://purl.org/dc/elements/1.1/" xmlns:cc="http://creativecommons.org/ns#" xmlns:rdf="http://www.w3.org/1999/02/22-rdf-syntax-ns#" xmlns:svg="http://www.w3.org/2000/svg" xmlns:sodipodi="http://sodipodi.sourceforge.net/DTD/sodipodi-0.dtd" xmlns:inkscape="http://www.inkscape.org/namespaces/inkscape" inkscape:version="0.48.1 " sodipodi:docname="Colorful_Animal_Sea_Horse_black_white_line_art_coloring_book_colouring.svg"
	 xmlns="http://www.w3.org/2000/svg" xmlns:xlink="http://www.w3.org/1999/xlink" x="0px" y="0px" width="1440px" height="1440px"
	 viewBox="0 0 1440 1440" enable-background="new 0 0 1440 1440" xml:space="preserve">
<sodipodi:namedview  showgrid="false" inkscape:cy="775.94638" inkscape:cx="245.74391" inkscape:zoom="0.40416667" borderopacity="1" bordercolor="#666666" pagecolor="#ffffff" id="namedview767" inkscape:window-y="45" inkscape:window-x="707" inkscape:window-height="828" inkscape:window-width="1436" inkscape:current-layer="Layer_1" inkscape:pageshadow="2" inkscape:pageopacity="0" inkscape:window-maximized="0" gridtolerance="10" guidetolerance="10" objecttolerance="10">
	</sodipodi:namedview>
<g id="g569" transform="matrix(6.2565,0,0,6.2565,-3343.2243,-5788.4117)">
	<path id="path571" inkscape:connector-curvature="0" fill="#FFFFFF" stroke="#000000" stroke-width="2" d="M707.055,1054.148
		c-5.823-3.333-0.404-16.524-0.404-16.524c-5.128-1.741-0.853-15.38-0.853-15.38c-3.689-10.15,2.625-25.635,2.625-25.635
		s-22.735,19.173-28.091,24.686c-0.023-10.59,1.21-22.563,4.837-35.029c4.545-15.617,1.845-27.745-4.296-35.67
		c3.826-3.695,7.588-4.111,8.872-4.844c1.126-0.645-0.393-1.112-0.393-1.112c-8.831-1.825-8.816-7.622-8.365-9.077
		c0.197-0.635-0.675-0.529-0.675-0.529c-7.475,0.34-9.92-1.349-12.178-5.517c0,0-0.805-1.319-1.446-0.782
		c-6.521,5.464-14.756-4.941-13.415-0.194c1.52,5.385,1.207,10.535,1.09,11.868c-4.764,0.914-9.157,2.398-12.081,4.51
		c-6.67,4.817-9.474,7.852-15.079,27.67c-2.03,4.873-7.698,5.84-12.081,6.008c-5.906,0.225-7.085,1.516-7.085,1.516
		s-4.861,13.714,9.989,17.61c0,0,4.91-6.569,12.231-10.319c1.517-0.777,2.879-0.929,3.922-1.504
		c4.781,6.414,13.749,9.277,26.987,4.269c0,0-3.97,2.008-18.305,15.001c-15.991,14.496-35.108,56.411,15.904,80.417
		c0,0,19.805,5.702,9.002,39.009c-10.802,33.307-40.883,16.553-34.506,4.201c4.428-8.586,6.692,2.524,10.128-1.396
		c0.66-0.808,0.376-1.542,0.255-2.11c0,0-3.979-11.537-15.486-3.695c-11.015,7.506-2.699,33.906,20.705,30.906
		c23.405-3.001,50.109-37.509,37.807-90.919c0,0-0.194-0.515-0.51-1.483l21.553,8.805
		C702.911,1065.923,707.055,1054.148,707.055,1054.148L707.055,1054.148z M707.711,1068.901c0.375,0.231,0.804,0.413,1.293,0.528
		L707.711,1068.901z"/>
	<g id="g573">
		<path id="path575" inkscape:connector-curvature="0" fill="#FFFFFF" stroke="#000000" stroke-width="2" d="M644.101,960.421
			c0.103,2.492,1.57,4.46,3.27,4.389c1.697-0.074,2.991-2.151,2.888-4.646c-0.108-2.492-1.569-4.456-3.27-4.385
			C645.289,955.85,643.997,957.93,644.101,960.421z"/>
		<path id="path577" inkscape:connector-curvature="0" fill="#FFFFFF" stroke="#000000" stroke-width="2" d="M661.398,959.678
			c0.887-1.541,5.858-0.926,7.9-5.548c0,0,0.533,2.157,1.776,2.878c0,0,0.443,5.238,1.064,5.443c0,0-1.332,3.082-1.332,3.803
			c0,0-2.307,2.156-2.042,3.082c0,0-3.461-5.445-7.544-5.652C661.22,963.684,660.619,961.029,661.398,959.678L661.398,959.678z"/>
		<path id="path579" inkscape:connector-curvature="0" fill="#FFFFFF" stroke="#000000" stroke-width="2" d="M663.811,1029.696
			c0,0-6.72-7.253-15.179-1.926c0,0,1.621,10.538-10.661,14.278c0,0,5.214,3.74,5.91,5.326c0,0,8.923,2.491,9.502,3.625
			c0,0,7.415-0.68,9.617,0c0,0,5.1-3.74,7.533-3.74C670.533,1047.26,661.842,1040.689,663.811,1029.696z"/>
	</g>
</g>
</svg>
