<?xml version="1.0" encoding="utf-8"?>
<!-- Generator: Adobe Illustrator 16.0.0, SVG Export Plug-In . SVG Version: 6.00 Build 0)  -->
<!DOCTYPE svg PUBLIC "-//W3C//DTD SVG 1.1//EN" "http://www.w3.org/Graphics/SVG/1.1/DTD/svg11.dtd">
<svg version="1.1"
	 id="Layer_1" xmlns:dc="http://purl.org/dc/elements/1.1/" xmlns:cc="http://creativecommons.org/ns#" xmlns:rdf="http://www.w3.org/1999/02/22-rdf-syntax-ns#" xmlns:svg="http://www.w3.org/2000/svg" xmlns:sodipodi="http://sodipodi.sourceforge.net/DTD/sodipodi-0.dtd" xmlns:inkscape="http://www.inkscape.org/namespaces/inkscape" sodipodi:docname="Colorful_Animal_Elephant_black_white_line_art_coloring_book_colouring.svg" inkscape:version="0.48.1 "
	 xmlns="http://www.w3.org/2000/svg" xmlns:xlink="http://www.w3.org/1999/xlink" x="0px" y="0px" width="417.813px"
	 height="358.563px" viewBox="0 0 417.813 358.563" enable-background="new 0 0 417.813 358.563" xml:space="preserve">
<sodipodi:namedview  inkscape:cy="686.43217" inkscape:cx="376.29049" inkscape:zoom="0.40416667" showgrid="false" guidetolerance="10" gridtolerance="10" objecttolerance="10" borderopacity="1" pagecolor="#ffffff" bordercolor="#666666" id="namedview767" inkscape:current-layer="Layer_1" inkscape:window-maximized="0" inkscape:window-y="43" inkscape:window-x="440" inkscape:window-height="828" inkscape:window-width="1436" inkscape:pageshadow="2" inkscape:pageopacity="0">
	</sodipodi:namedview>
<path id="path225" inkscape:connector-curvature="0" fill="#FFFFFF" stroke="#000000" d="M345.75,240.824l-4.764-2.872l2.564,0.894
	l0.668-1.514l-6.021-3.157c-0.042-0.103-0.097-0.221-0.138-0.358c-2.238-7.415-6.867-48.923-17.666-71.919
	c-3.723-7.927-7.35-8.804-9.167-8.634c0,0.004-0.023,0.003-0.041,0.002c-10.151-13.364-26.749-22.844-49.417-25.54
	c3.399-25.306-3.096-41.114-34.194-44.092c-26.819-2.568-45.731,19.326-51.37,26.816c-8.443-6.988-18.892-11.127-30.206-11.127
	c-9.685,0-18.733,3.027-26.435,8.279c-8.325-9.357-25.117-24.005-47.316-21.877c-39.324,3.767-39.322,28.029-29.702,66.097
	c0,0,4.183,8.785-1.255,21.753c-5.113,12.196-7.259,30.306,22.071,34.163c0.567,13.727,1.975,41.595,37.039,44.905
	c21.818,2.06,35.407-6.772,43.865-18.93c-1.656,15.711-1.921,34.367,2.453,50.817c0,0,9.899,11.876,36.292,0l-7.261-59.391
	c3.507,3.54,7.519,6.809,11.965,9.758c-0.074,16.573,0.711,39.081,4.682,55.55c0,0,17.681,8.603,37.888-0.391
	c0,0-0.192-18.831-4.35-40.238c7.091,1.297,14.526,1.989,22.187,1.989c4.839,0,9.446-0.286,13.837-0.816
	c0.198,9.078,1.132,18.288,3.251,26.894c0,0,9.171,11.875,33.626,0l-4.254-37.562c1.748-1.06,3.418-2.18,5.009-3.365
	c0.436,16.026,1.63,33.272,4.406,46.325c0,0,17.421,9.61,37.331-0.436c0,0-1.568-16.538-4.704-38.014
	c0.01,0.052,0.016,0.106,0.022,0.156l0.558-0.042l-0.071-3.528l2.606,4.181l1.291-0.395l1.594-1.014l-2.31-4.098l2.989,4.104
	L345.75,240.824L345.75,240.824z M103.331,235.073c-22.559-2.603-24.421-18.099-23.422-27.418
	c9.107-1.698,16.066-6.255,21.273-11.574c2.955,4.924,7.368,8.959,13.952,11.841c-0.666,5.556-3.426,12.715-12.386,17.298
	c0,0-8.245,1.946-3.104,4.601c3.99,2.061,16.419,0.375,23.911-8.072C120.446,230.298,114.432,236.354,103.331,235.073
	L103.331,235.073z"/>
<path id="path231" inkscape:connector-curvature="0" fill="#FFFFFF" stroke="#000000" d="M345.76,240.827l-4.763-2.871l2.563,0.894
	l0.668-1.514l-6.02-3.157c-0.042-0.101-0.096-0.22-0.138-0.357c-2.238-7.414-6.867-48.924-17.667-71.919
	c-3.722-7.927-7.349-8.804-9.167-8.633c1.775,2.339,3.355,4.797,4.73,7.36l0.017-0.028c0.137,0.268,0.272,0.552,0.407,0.827
	c1.148,2.226,2.155,4.52,3.004,6.888c7.877,20.156,13.628,51.769,17.263,76.68l0.556-0.043l-0.069-3.527l2.604,4.179l1.292-0.395
	l1.593-1.012l-2.309-4.098l2.989,4.104L345.76,240.827L345.76,240.827z"/>
<path id="path233" inkscape:connector-curvature="0" fill="#FFFFFF" stroke="#000000" d="M318.191,284.799
	c0,0-1.12-8.424,3.247-8.537c4.368-0.116,4.253,8.404,4.253,8.404S322.098,286.576,318.191,284.799z"/>
<path id="path235" inkscape:connector-curvature="0" fill="#FFFFFF" stroke="#000000" d="M329.713,283.034
	c0,0-1.644-6.917,1.59-7.542c0,0,4.37-0.406,4.323,6.646C335.626,282.137,333.853,284.395,329.713,283.034z"/>
<path id="path237" inkscape:connector-curvature="0" fill="#FFFFFF" stroke="#000000" d="M314.6,283.603c0,0,0.711-7.717-2.579-7.87
	c0,0-4.246,0.026-3.454,6.671C308.567,282.404,310.163,284.401,314.6,283.603L314.6,283.603z"/>
<path id="path239" inkscape:connector-curvature="0" fill="#FFFFFF" stroke="#000000" d="M250.274,149.945
	c7.931-32.721,7.932-53.573-24.485-56.81c-23.154-2.312-39.167,18.441-42.942,23.878c8.665,10.184,13.991,23.944,13.991,39.104
	c0,8.792,0.314,17.115-0.439,24.543c5.44,8.88,15.278,18.833,31.802,17.82c29.314-1.798,27.59-18.697,23.105-29.842
	C246.825,157.495,250.274,149.945,250.274,149.945L250.274,149.945z"/>
<path id="path241" inkscape:connector-curvature="0" fill="#FFFFFF" stroke="#000000" d="M99.654,229.827
	c3.991,2.061,16.42,0.375,23.91-8.071c1.179-3.246,1.942-6.848,2.401-10.545c-4.145-0.819-7.718-1.929-10.821-3.287
	c-0.665,5.557-3.425,12.719-12.387,17.303C102.757,225.226,94.514,227.171,99.654,229.827L99.654,229.827z"/>
<path id="path243" inkscape:connector-curvature="0" fill="#FFFFFF" stroke="#000000" d="M171.464,232.776
	c-8.234-7.068-8.761-15.363-7.808-20.988c-2.989,0.431-6.241,0.742-9.786,0.925c-0.853,2.975-1.881,5.979-3.104,8.94
	c4.385,11.962,17.876,17.491,22.637,16.325C179.022,236.602,171.464,232.776,171.464,232.776L171.464,232.776z"/>
<path id="path245" inkscape:connector-curvature="0" fill="#FFFFFF" stroke="#000000" d="M134.197,139.399
	c-2.657-0.41-5.3,2.43-5.917,6.343c-0.609,3.921,1.047,7.429,3.696,7.849c2.653,0.417,5.304-2.429,5.917-6.344
	C138.505,143.332,136.852,139.816,134.197,139.399z"/>
<path id="path247" inkscape:connector-curvature="0" fill="#FFFFFF" stroke="#000000" d="M157.312,141.239
	c-2.653-0.932-5.904,1.415-7.252,5.258c-1.349,3.831-0.283,7.696,2.375,8.633c2.659,0.931,5.91-1.421,7.256-5.255
	C161.039,146.038,159.974,142.179,157.312,141.239z"/>
<path id="path249" inkscape:connector-curvature="0" fill="#FFFFFF" stroke="#000000" d="M207.753,292.332
	c0,0-1.12-8.428,3.246-8.54c4.368-0.113,4.253,8.407,4.253,8.407S211.658,294.106,207.753,292.332z"/>
<path id="path251" inkscape:connector-curvature="0" fill="#FFFFFF" stroke="#000000" d="M219.274,290.567
	c0,0-1.645-6.921,1.589-7.542c0,0,4.37-0.41,4.324,6.645C225.187,289.669,223.414,291.927,219.274,290.567z"/>
<path id="path253" inkscape:connector-curvature="0" fill="#FFFFFF" stroke="#000000" d="M204.161,291.135
	c0,0,0.71-7.719-2.578-7.872c0,0-4.248,0.026-3.455,6.673C198.128,289.937,199.723,291.93,204.161,291.135z"/>
<path id="path255" inkscape:connector-curvature="0" fill="#FFFFFF" stroke="#000000" d="M129.29,184.627
	c0,0,10.53-7.819,25.341-1.023C154.63,183.604,141.392,172.103,129.29,184.627z"/>
<path id="path257" inkscape:connector-curvature="0" fill="#FFFFFF" stroke="#000000" d="M154.202,194.899
	c0,0-12.627-10.783-24.16,0.948C130.041,195.847,140.077,188.523,154.202,194.899"/>
<path id="path259" inkscape:connector-curvature="0" fill="#FFFFFF" stroke="#000000" d="M153.054,207.701
	c0,0-12.438-10.777-23.807,0.957C129.248,208.658,139.139,201.331,153.054,207.701"/>
<path id="path261" inkscape:connector-curvature="0" fill="#FFFFFF" stroke="#000000" d="M146.194,219.207
	c0,0-9.658-7.051-18.411,0.538C127.783,219.744,135.41,215.018,146.194,219.207"/>
<path id="path263" inkscape:connector-curvature="0" fill="#FFFFFF" stroke="#000000" d="M60.795,188.998
	c5.462-3.243,9.438,1.068,9.438,1.068c16.211-2.736,13.261,4.999,11.279,8.409c6.705-1.462,11.968-4.792,16.048-8.714
	c-0.052-0.151-0.099-0.308-0.15-0.459c-0.093-0.271-0.183-0.544-0.271-0.82c-0.107-0.338-0.213-0.679-0.313-1.025
	c-0.083-0.286-0.164-0.576-0.241-0.869c-0.093-0.34-0.18-0.683-0.263-1.028c-0.075-0.305-0.147-0.611-0.215-0.917
	c-0.077-0.342-0.149-0.685-0.221-1.031c-0.064-0.319-0.126-0.637-0.187-0.96c-0.064-0.344-0.122-0.691-0.181-1.042
	c-0.055-0.331-0.109-0.663-0.159-0.999c-0.052-0.346-0.101-0.697-0.147-1.049c-0.046-0.344-0.093-0.687-0.135-1.035
	c-0.042-0.35-0.08-0.704-0.117-1.058c-0.038-0.355-0.076-0.709-0.11-1.068c-0.033-0.356-0.063-0.717-0.091-1.078
	c-0.032-0.36-0.063-0.723-0.087-1.088c-0.026-0.361-0.049-0.726-0.07-1.091c-0.024-0.372-0.048-0.743-0.066-1.118
	c-0.019-0.364-0.034-0.731-0.051-1.098c-0.018-0.384-0.036-0.766-0.052-1.152c-0.013-0.368-0.023-0.738-0.034-1.109
	c-0.013-0.389-0.024-0.774-0.036-1.167c-0.01-0.385-0.015-0.774-0.022-1.163c-0.007-0.383-0.015-0.763-0.021-1.15
	c-0.004-0.394-0.009-0.794-0.013-1.193c-0.003-0.386-0.01-0.77-0.012-1.159c-0.003-0.424-0.004-0.853-0.004-1.28
	c-0.004-0.36-0.007-0.72-0.007-1.082c-0.001-0.548-0.003-1.103-0.003-1.656c0-0.253,0-0.502,0-0.755c0-0.796,0-1.595,0-2.399
	c0-1.032,0.029-2.058,0.078-3.075c0.017-0.328,0.045-0.65,0.064-0.976c0.044-0.69,0.09-1.38,0.156-2.063
	c0.038-0.377,0.085-0.748,0.128-1.123c0.072-0.629,0.146-1.258,0.236-1.882c0.054-0.381,0.121-0.758,0.18-1.133
	c0.102-0.615,0.207-1.229,0.325-1.836c0.072-0.365,0.148-0.729,0.227-1.091c0.132-0.618,0.273-1.233,0.421-1.844
	c0.084-0.338,0.17-0.676,0.257-1.012c0.169-0.639,0.35-1.272,0.538-1.902c0.088-0.296,0.174-0.592,0.268-0.888
	c0.217-0.686,0.447-1.363,0.687-2.037c0.081-0.226,0.156-0.454,0.239-0.678c0.293-0.795,0.603-1.579,0.925-2.354
	c0.041-0.097,0.078-0.196,0.119-0.293c1.923-4.542,4.375-8.748,7.257-12.529c0.024-0.029,0.046-0.058,0.068-0.087
	c0.555-0.724,1.125-1.432,1.713-2.123c0.03-0.038,0.061-0.073,0.093-0.111c0.589-0.691,1.191-1.364,1.812-2.021
	c0.022-0.024,0.045-0.049,0.066-0.072c0.64-0.678,1.293-1.336,1.965-1.975c-7.468-7.793-20.808-18.131-38.026-16.479
	c-33.083,3.166-33.082,23.579-24.986,55.605c0,0,3.519,7.39-1.056,18.305c-3.824,9.109-5.664,22.142,11.253,27.221
	C57.274,194.222,57.175,191.146,60.795,188.998L60.795,188.998z"/>
</svg>
