<?xml version="1.0" encoding="utf-8"?>
<!-- Generator: Adobe Illustrator 16.0.0, SVG Export Plug-In . SVG Version: 6.00 Build 0)  -->
<!DOCTYPE svg PUBLIC "-//W3C//DTD SVG 1.1//EN" "http://www.w3.org/Graphics/SVG/1.1/DTD/svg11.dtd">
<svg version="1.1"
	 id="Layer_1" xmlns:dc="http://purl.org/dc/elements/1.1/" xmlns:cc="http://creativecommons.org/ns#" xmlns:rdf="http://www.w3.org/1999/02/22-rdf-syntax-ns#" xmlns:svg="http://www.w3.org/2000/svg" xmlns:sodipodi="http://sodipodi.sourceforge.net/DTD/sodipodi-0.dtd" xmlns:inkscape="http://www.inkscape.org/namespaces/inkscape" sodipodi:docname="Colorful_Animal_Elephant_black_white_line_art_coloring_book_colouring.svg" inkscape:version="0.48.1 "
	 xmlns="http://www.w3.org/2000/svg" xmlns:xlink="http://www.w3.org/1999/xlink" x="0px" y="0px" width="1440px" height="1440px"
	 viewBox="0 0 1440 1440" enable-background="new 0 0 1440 1440" xml:space="preserve">
<sodipodi:namedview  inkscape:cy="686.43217" inkscape:cx="376.29049" inkscape:zoom="0.40416667" showgrid="false" guidetolerance="10" gridtolerance="10" objecttolerance="10" borderopacity="1" pagecolor="#ffffff" bordercolor="#666666" id="namedview767" inkscape:current-layer="Layer_1" inkscape:window-maximized="0" inkscape:window-y="43" inkscape:window-x="440" inkscape:window-height="828" inkscape:window-width="1436" inkscape:pageshadow="2" inkscape:pageopacity="0">
	</sodipodi:namedview>
<path id="path225" inkscape:connector-curvature="0" fill="#FFFFFF" stroke="#000000" d="M1416.156,891.199l-21.293-12.835
	l11.461,3.994l2.984-6.766l-26.908-14.109c-0.187-0.46-0.432-0.987-0.614-1.602c-10.005-33.138-30.694-218.659-78.96-321.439
	c-16.64-35.431-32.852-39.349-40.973-38.589c0,0.019-0.101,0.014-0.183,0.01c-45.368-59.732-119.552-102.103-220.866-114.15
	c15.192-113.104-13.837-183.757-152.83-197.07c-119.865-11.48-204.395,86.377-229.594,119.856
	c-37.736-31.231-84.438-49.731-135.007-49.731c-43.284,0-83.729,13.527-118.149,37c-37.206-41.819-112.258-107.289-211.48-97.779
	C17.987,214.824,17.997,323.264,60.994,493.406c0,0,18.695,39.263-5.61,97.225C32.529,645.14,22.938,726.084,154.028,743.32
	c2.535,61.352,8.827,185.908,165.547,200.705c97.516,9.204,158.249-30.271,196.055-84.607
	c-7.403,70.22-8.586,153.604,10.961,227.127c0,0,44.244,53.08,162.208,0l-32.451-265.447c15.675,15.82,33.602,30.431,53.477,43.611
	c-0.332,74.074,3.176,174.675,20.925,248.28c0,0,79.024,38.452,169.343-1.747c0,0-0.861-84.161-19.443-179.844
	c31.691,5.797,64.924,8.891,99.163,8.891c21.631,0,42.22-1.278,61.844-3.648c0.888,40.572,5.06,81.736,14.532,120.201
	c0,0,40.991,53.076,150.291,0l-19.014-167.881c7.813-4.736,15.278-9.742,22.386-15.042c1.947,71.63,7.289,148.712,19.692,207.048
	c0,0,77.864,42.951,166.849-1.948c0,0-7.007-73.914-21.025-169.901c0.046,0.232,0.073,0.474,0.101,0.696l2.492-0.187l-0.318-15.771
	l11.648,18.687l5.77-1.765l7.125-4.532l-10.324-18.313l13.359,18.346L1416.156,891.199L1416.156,891.199z M332.665,865.496
	c-100.828-11.634-109.15-80.895-104.686-122.545c40.704-7.589,71.808-27.955,95.077-51.729
	c13.209,22.008,32.933,40.044,62.358,52.925c-2.976,24.83-15.311,56.83-55.36,77.314c0,0-36.851,8.699-13.873,20.565
	c17.832,9.209,73.387,1.675,106.87-36.077C409.16,844.152,382.278,871.221,332.665,865.496L332.665,865.496z"/>
<g id="g229">
	<path id="path231" inkscape:connector-curvature="0" fill="#FFFFFF" stroke="#000000" d="M1416.197,891.213l-21.289-12.831
		l11.457,3.995l2.984-6.766l-26.903-14.109c-0.187-0.451-0.428-0.983-0.614-1.598c-10.006-33.138-30.694-218.664-78.961-321.443
		c-16.635-35.432-32.846-39.349-40.973-38.584c7.936,10.455,14.997,21.439,21.144,32.896l0.073-0.128
		c0.613,1.197,1.219,2.467,1.82,3.694c5.132,9.947,9.631,20.202,13.427,30.786c35.208,90.09,60.911,231.381,77.154,342.72
		l2.484-0.191l-0.31-15.766l11.639,18.678l5.775-1.766l7.119-4.522l-10.318-18.318l13.359,18.346l10.934-15.093H1416.197z"/>
	<path id="path233" inkscape:connector-curvature="0" fill="#FFFFFF" stroke="#000000" d="M1292.979,1087.746
		c0,0-5.004-37.651,14.51-38.156c19.521-0.52,19.01,37.56,19.01,37.56S1310.438,1095.686,1292.979,1087.746z"/>
	<path id="path235" inkscape:connector-curvature="0" fill="#FFFFFF" stroke="#000000" d="M1344.477,1079.855
		c0,0-7.349-30.917,7.106-33.711c0,0,19.533-1.814,19.323,29.703C1370.902,1075.848,1362.98,1085.939,1344.477,1079.855z"/>
	<path id="path237" inkscape:connector-curvature="0" fill="#FFFFFF" stroke="#000000" d="M1276.927,1082.399
		c0,0,3.177-34.489-11.524-35.176c0,0-18.979,0.118-15.438,29.815C1249.964,1077.039,1257.099,1085.967,1276.927,1082.399
		L1276.927,1082.399z"/>
	<path id="path239" inkscape:connector-curvature="0" fill="#FFFFFF" stroke="#000000" d="M989.426,485.017
		c35.445-146.246,35.453-239.444-109.437-253.909c-103.485-10.333-175.057,82.423-191.929,106.72
		c38.726,45.519,62.531,107.021,62.531,174.779c0,39.294,1.406,76.494-1.961,109.696c24.314,39.689,68.286,84.175,142.137,79.647
		c131.018-8.035,123.314-83.565,103.268-133.379C974.01,518.759,989.426,485.017,989.426,485.017L989.426,485.017z"/>
	<path id="path241" inkscape:connector-curvature="0" fill="#FFFFFF" stroke="#000000" d="M316.23,842.05
		c17.836,9.21,73.392,1.675,106.866-36.076c5.269-14.506,8.682-30.604,10.733-47.129c-18.523-3.663-34.494-8.623-48.367-14.692
		c-2.971,24.834-15.306,56.848-55.365,77.336C330.099,821.484,293.258,830.18,316.23,842.05L316.23,842.05z"/>
	<path id="path243" inkscape:connector-curvature="0" fill="#FFFFFF" stroke="#000000" d="M637.184,855.227
		c-36.805-31.59-39.158-68.664-34.898-93.803c-13.359,1.925-27.893,3.317-43.739,4.132c-3.813,13.295-8.409,26.727-13.873,39.958
		c19.597,53.467,79.897,78.174,101.174,72.964C670.963,872.326,637.184,855.227,637.184,855.227L637.184,855.227z"/>
	<path id="path245" inkscape:connector-curvature="0" fill="#FFFFFF" stroke="#000000" d="M470.621,437.883
		c-11.875-1.834-23.688,10.861-26.449,28.352c-2.721,17.526,4.682,33.205,16.521,35.08c11.857,1.861,23.705-10.856,26.444-28.352
		C489.873,455.459,482.483,439.748,470.621,437.883z"/>
	<path id="path247" inkscape:connector-curvature="0" fill="#FFFFFF" stroke="#000000" d="M573.93,446.104
		c-11.857-4.163-26.387,6.325-32.415,23.501c-6.028,17.122-1.265,34.398,10.615,38.584c11.885,4.163,26.413-6.352,32.429-23.487
		C590.587,467.554,585.827,450.305,573.93,446.104z"/>
	<path id="path249" inkscape:connector-curvature="0" fill="#FFFFFF" stroke="#000000" d="M799.377,1121.411
		c0,0-5.005-37.669,14.506-38.17c19.523-0.505,19.01,37.574,19.01,37.574S816.83,1129.342,799.377,1121.411z"/>
	<path id="path251" inkscape:connector-curvature="0" fill="#FFFFFF" stroke="#000000" d="M850.869,1113.526
		c0,0-7.353-30.932,7.103-33.711c0,0,19.528-1.834,19.323,29.697C877.295,1109.513,869.374,1119.604,850.869,1113.526z"/>
	<path id="path253" inkscape:connector-curvature="0" fill="#FFFFFF" stroke="#000000" d="M783.32,1116.064
		c0,0,3.176-34.502-11.521-35.185c0,0-18.983,0.118-15.442,29.825C756.357,1110.705,763.486,1119.618,783.32,1116.064z"/>
	<path id="path255" inkscape:connector-curvature="0" fill="#FFFFFF" stroke="#000000" d="M448.686,640.025
		c0,0,47.065-34.948,113.264-4.572C561.944,635.453,502.776,584.052,448.686,640.025z"/>
	<path id="path257" inkscape:connector-curvature="0" fill="#FFFFFF" stroke="#000000" d="M560.029,685.939
		c0,0-56.438-48.193-107.98,4.236C452.044,690.176,496.897,657.443,560.029,685.939"/>
	<path id="path259" inkscape:connector-curvature="0" fill="#FFFFFF" stroke="#000000" d="M554.9,743.156
		c0,0-55.592-48.167-106.401,4.276C448.499,747.433,492.707,714.687,554.9,743.156"/>
	<path id="path261" inkscape:connector-curvature="0" fill="#FFFFFF" stroke="#000000" d="M524.238,794.58
		c0,0-43.166-31.514-82.287,2.402C441.951,796.982,476.04,775.856,524.238,794.58"/>
</g>
<path id="path263" inkscape:connector-curvature="0" fill="#FFFFFF" stroke="#000000" d="M142.548,659.563
	c24.416-14.492,42.188,4.772,42.188,4.772c72.454-12.23,59.269,22.341,50.41,37.583c29.966-6.533,53.49-21.421,71.726-38.947
	c-0.232-0.674-0.441-1.374-0.669-2.053c-0.418-1.215-0.819-2.434-1.21-3.667c-0.478-1.511-0.951-3.035-1.397-4.582
	c-0.373-1.278-0.733-2.575-1.079-3.886c-0.414-1.52-0.805-3.053-1.174-4.596c-0.336-1.364-0.66-2.729-0.96-4.099
	c-0.346-1.529-0.669-3.063-0.987-4.609c-0.286-1.425-0.564-2.849-0.833-4.291c-0.287-1.538-0.546-3.09-0.81-4.654
	c-0.245-1.479-0.486-2.962-0.709-4.464c-0.232-1.547-0.451-3.112-0.66-4.687c-0.205-1.538-0.414-3.071-0.601-4.627
	c-0.187-1.565-0.359-3.145-0.523-4.728c-0.168-1.588-0.341-3.172-0.491-4.777c-0.146-1.593-0.277-3.203-0.405-4.814
	c-0.141-1.61-0.282-3.23-0.391-4.864c-0.114-1.61-0.218-3.244-0.314-4.877c-0.109-1.661-0.214-3.321-0.296-4.996
	c-0.086-1.629-0.154-3.271-0.227-4.909c-0.082-1.716-0.159-3.422-0.232-5.151c-0.06-1.642-0.105-3.298-0.15-4.954
	c-0.06-1.738-0.109-3.463-0.159-5.215c-0.046-1.72-0.068-3.462-0.1-5.196c-0.032-1.711-0.068-3.412-0.095-5.141
	c-0.019-1.762-0.041-3.55-0.06-5.333c-0.014-1.725-0.045-3.439-0.055-5.178c-0.014-1.897-0.019-3.813-0.019-5.724
	c-0.018-1.611-0.031-3.218-0.031-4.833c-0.005-2.452-0.014-4.932-0.014-7.402c0-1.129,0-2.243,0-3.372c0-3.558,0-7.129,0-10.724
	c0-4.614,0.132-9.196,0.35-13.746c0.073-1.465,0.201-2.907,0.287-4.358c0.2-3.085,0.405-6.17,0.696-9.223
	c0.168-1.688,0.382-3.345,0.573-5.02c0.323-2.812,0.65-5.623,1.056-8.412c0.241-1.702,0.537-3.386,0.805-5.064
	c0.455-2.748,0.923-5.492,1.452-8.208c0.323-1.634,0.664-3.258,1.015-4.878c0.587-2.762,1.219-5.51,1.879-8.24
	c0.378-1.511,0.76-3.021,1.151-4.522c0.755-2.857,1.565-5.688,2.402-8.499c0.396-1.324,0.778-2.648,1.197-3.968
	c0.969-3.067,1.998-6.093,3.071-9.104c0.359-1.011,0.696-2.029,1.069-3.03c1.311-3.554,2.693-7.058,4.136-10.524
	c0.182-0.433,0.346-0.874,0.533-1.311c8.595-20.298,19.551-39.098,32.437-55.997c0.104-0.132,0.205-0.259,0.305-0.391
	c2.48-3.235,5.028-6.402,7.658-9.487c0.132-0.168,0.272-0.327,0.414-0.496c2.634-3.089,5.323-6.097,8.099-9.031
	c0.1-0.109,0.2-0.219,0.296-0.323c2.862-3.03,5.783-5.975,8.786-8.827c-33.379-34.83-93.002-81.035-169.961-73.655
	C54.064,258.403,54.069,349.64,90.251,492.783c0,0,15.729,33.028-4.719,81.813c-17.089,40.713-25.312,98.962,50.296,121.662
	C126.814,682.909,126.369,669.164,142.548,659.563L142.548,659.563z"/>
</svg>
