<?xml version="1.0" encoding="utf-8"?>
<!-- Generator: Adobe Illustrator 16.0.0, SVG Export Plug-In . SVG Version: 6.00 Build 0)  -->
<!DOCTYPE svg PUBLIC "-//W3C//DTD SVG 1.1//EN" "http://www.w3.org/Graphics/SVG/1.1/DTD/svg11.dtd">
<svg version="1.1" id="Layer_1" xmlns="http://www.w3.org/2000/svg" xmlns:xlink="http://www.w3.org/1999/xlink" x="0px" y="0px"
	 width="298px" height="253px" viewBox="0 0 298 253" enable-background="new 0 0 298 253" xml:space="preserve">
<g>
	<path fill="none" stroke="#000000" stroke-miterlimit="10" d="M153.908,146.584l16.729-19.733"/>
	<path fill="none" stroke="#000000" stroke-miterlimit="10" d="M170.637,126.851c5.977,1.603,11.318,6.345,16.027,14.224
		c5.107,8.548,7.662,18.131,7.662,28.748c0,4.541,0.969,9.016,2.904,13.423c1.736,3.974,3.824,7.062,6.262,9.266
		c2.104,1.87,3.506,4.19,4.207,6.962c0.566,2.338,0.617,4.758,0.15,7.262c-0.735,3.873-2.037,8.665-3.907,14.375l-5.71,16.227
		c-1.369,3.773-3.689,6.328-6.961,7.663c-2.973,1.202-6.846,1.452-11.62,0.751c-4.607-0.668-7.012-3.055-7.212-7.162
		c-0.234-3.973,1.619-7.996,5.56-12.07c1.136-1.168,1.97-3.289,2.504-6.36c0.468-2.671,0.651-5.593,0.551-8.765
		c-0.066-2.471-0.4-4.174-1.001-5.108c-0.502-0.769-1.553-1.452-3.156-2.054c-4.607-1.77-9.198-4.574-13.772-8.414
		c-4.474-3.74-7.429-7.212-8.865-10.418c1.97-0.601,3.79-0.951,5.46-1.051c-1.637-0.802-3.773-1.286-6.411-1.453"/>
	<path fill="none" stroke="#000000" stroke-miterlimit="10" d="M130.319,178.037"/>
	<path fill="none" stroke="#000000" stroke-miterlimit="10" d="M83.34,182.294"/>
	<path fill="none" stroke="#000000" stroke-miterlimit="10" d="M148.449,191.66c2.104,1.669,2.537,4.641,1.303,8.914
		c-0.969,3.172-2.538,7.162-4.708,11.971c-2.771,6.043-5.392,10.668-7.863,13.873c-2.504,3.271-5.476,5.359-8.915,6.26
		c-2.571,0.668-5.526,0.686-8.865,0.051c-3.639-0.734-5.693-2.638-6.16-5.709c-0.468-2.906,0.584-5.76,3.155-8.564
		c2.371-2.538,4.274-6.963,5.709-13.273c-3.239,1.402-7.045,3.523-11.419,6.361c-3.072,2.004-5.977,4.04-8.715,6.11
		c-3.639,2.737-7.162,4.558-10.568,5.459c-0.434,3.974-1.052,7.746-1.853,11.319c-0.834,3.572-1.77,6.477-2.805,8.715
		c-1.569,3.539-4.007,5.977-7.312,7.312c-2.905,1.169-6.161,1.419-9.767,0.751c-4.674-0.867-7.229-3.055-7.663-6.561
		c-0.368-3.039,0.851-6.511,3.656-10.418c1.903-2.671,3.172-7.729,3.807-15.175c0.601-7.279,0.351-13.323-0.751-18.131"/>
	<path fill="none" stroke="#000000" stroke-miterlimit="10" d="M130.319,178.037"/>
	<path fill="none" stroke="#000000" stroke-miterlimit="10" d="M100.269,123.094c-0.234-1.97-0.15-4.14,0.25-6.511
		c0.434-2.771,1.202-4.875,2.304-6.311c1.903-2.771,4.875-4.641,8.915-5.609l8.915-0.351c1.169,3.105,1.336,6.527,0.501,10.267
		c-0.901,4.007-2.705,6.862-5.409,8.564c-2.437,1.536-5.142,2.287-8.113,2.254C104.726,125.332,102.272,124.563,100.269,123.094"/>
	<path fill="none" stroke="#000000" stroke-miterlimit="10" d="M61.353,105.565c1.469-0.4,3.172-0.284,5.109,0.351
		c2.17,0.768,4.09,2.07,5.759,3.907c2.638,2.972,3.923,7.295,3.856,12.972c-1.068,1.068-2.688,1.736-4.858,2.003
		c-2.504,0.3-4.691-0.217-6.561-1.553c-1.636-1.168-2.855-3.339-3.656-6.511C60.101,113.094,60.218,109.372,61.353,105.565"/>
	<path fill="none" stroke="#000000" stroke-miterlimit="10" d="M258.834,45.514c-1.269-6.177-4.691-9.9-10.267-11.168
		c0.734-0.668,1.653-1.069,2.755-1.202l3.255,0.351c-1.837-2.604-3.056-5.977-3.655-10.117l3.705,2.454
		c-0.5-2.638-0.518-5.208-0.05-7.713c0.367-2.003,0.968-3.656,1.804-4.958"/>
	<path fill="none" stroke="#000000" stroke-miterlimit="10" d="M256.381,13.16c0.533,5.275,1.318,8.965,2.354,11.068
		c1.002,2.003,3.005,4.057,6.01,6.16c6.478,4.541,10.985,10.217,13.523,17.029c2.203,5.943,2.787,12.337,1.752,19.182l2.955-4.558
		l2.305-4.307c1.436,5.676,0.817,13.239-1.854,22.688c0.834-0.734,1.854-1.335,3.055-1.803c0.969-0.367,1.854-0.567,2.654-0.601
		c-0.734,0.835-1.553,2.254-2.453,4.257l4.257-0.952c2.104-0.3,3.89-0.3,5.358,0c-5.175,2.471-8.381,6.061-9.615,10.768
		l-1.103,6.161c-0.434,2.538-1.052,4.624-1.853,6.26c2.137-1.536,3.623-3.122,4.457-4.758c0.768,3.139,0.768,7.179,0,12.12
		c-0.734,4.474-0.635,7.83,0.301,10.067c0.868,2.204,1.052,4.825,0.551,7.863c-0.602,3.706-2.137,7.263-4.607,10.668
		c2.57,0.067,4.474,0.351,5.709,0.852c-1.035,1.536-3.256,3.255-6.661,5.159c3.072,1.234,5.242,2.42,6.511,3.555
		c-1.936,0.201-3.89,0.635-5.859,1.303c-2.504,0.868-4.475,1.986-5.91,3.355l5.259,0.501c1.87,0.601,3.173,1.753,3.907,3.456
		c1.068,0.5,2.07,1.235,3.004,2.203c1.136,1.136,1.837,2.271,2.104,3.406c-2.703-0.835-5.575-1.186-8.613-1.052
		c-3.373,0.134-6.712,0.885-10.018,2.253c-7.846,10.852-14.842,17.547-20.984,20.084c1.035,0.067,2.354,0.451,3.956,1.152
		c1.636,0.734,3.005,1.553,4.106,2.454c-2.003-0.601-4.391-0.835-7.162-0.701c-2.971,0.101-5.426,0.601-7.361,1.503
		c-1.804,0.867-4.107,1.535-6.912,2.003c-3.238,0.534-5.893,0.551-7.963,0.05c2.438,2.438,4.174,4.574,5.209,6.411
		c-4.041-2.304-7.563-3.322-10.568-3.056c-2.07,0.168-4.224,0.135-6.461-0.1c-2.504-0.268-4.391-0.718-5.659-1.353
		c1.903,1.636,3.989,3.005,6.261,4.106l-7.162-0.9c-3.373-0.668-6.127-1.637-8.264-2.905c-6.912-7.212-10.418-15.692-10.518-25.442
		c-0.101-10.518-2.722-19.851-7.863-27.998c-4.541-7.178-9.834-11.819-15.877-13.923c1.436-2.17,3.389-4.173,5.859-6.01
		c-2.904-0.434-6.144,0.184-9.717,1.853c1.837-2.938,3.607-4.992,5.31-6.161c-3.239,0.067-6.294,1.569-9.165,4.508
		c-0.066-1.77,0.117-4.925,0.551-9.466c0.467-4.574,0.918-7.88,1.352-9.917c-0.667,0.467-2.003,2.204-4.006,5.208
		c-1.77,2.738-2.973,4.741-3.606,6.01c0-2.337-0.518-4.474-1.553-6.411c-0.868-1.636-1.669-2.538-2.403-2.705
		c-0.268-2.337-1.219-4.291-2.855-5.86c-1.502-1.436-3.021-2.087-4.558-1.954l-2.504-3.906c7.045-2.404,13.606-5.443,19.683-9.115
		c4.273-2.571,7.764-5.075,10.468-7.513c1.503-1.369,3.089-3.54,4.758-6.511l4.658-8.464c4.04-0.201,7.229-1.62,9.565-4.257
		c1.971-2.237,3.523-5.576,4.658-10.017c0.334,1.102,0.651,3.573,0.951,7.412c1.336-0.667,2.455-1.937,3.355-3.806
		c0.502,2.771,0.334,5.927-0.5,9.466l3.706-2.855c2.171-1.436,4.391-2.404,6.661-2.905c-0.768,0.568-1.453,1.453-2.053,2.654
		c-0.769,1.569-1.136,3.222-1.103,4.958c3.339-2.371,6.077-3.623,8.214-3.756c1.235-0.066,3.188,0.417,5.859,1.453
		c3.272,1.269,6.979,0.852,11.119-1.252c-0.701,1.77-1.803,3.506-3.306,5.209c3.071,3.206,6.16,3.89,9.266,2.054
		c3.139-1.87,4.591-5.292,4.357-10.268l2.654,5.059c0.935,2.104,1.519,4.374,1.753,6.812c1.836-2.137,3.155-5.209,3.957-9.216
		c1.002,1.87,1.402,3.99,1.201,6.361"/>
	<path fill="none" stroke="#000000" stroke-miterlimit="10" d="M167.531,117.735c1.736-0.834,3.256-1.235,4.558-1.202
		c-2.538,2.104-4.323,4.207-5.358,6.311c3.739-1.803,6.994-2.471,9.766-2.003c-2.371,1.603-4.324,3.639-5.859,6.11
		c-1.604,2.538-2.455,5.109-2.555,7.713c-0.1,2.404-0.5,4.808-1.201,7.212c-1.069,3.739-2.723,6.478-4.959,8.214l4.857-0.651
		c1.57-0.501,3.641-1.586,6.211-3.255c-1.235,3.639-2.738,6.36-4.508,8.163c-1.436,1.503-3.906,3.173-7.412,5.009l3.406,0.751
		l3.906,0.501c-3.139,2.471-5.844,4.123-8.113,4.959l4.707,0.701c2.137,0.4,3.64,0.784,4.508,1.151
		c-3.973,0.968-6.828,2.704-8.564,5.208c-3.539,5.143-6.311,8.582-8.313,10.318c2.571,0.166,4.941,0.634,7.112,1.402
		c-3.406,0.5-6.145,1.553-8.215,3.154c-1.803,1.402-3.939,3.957-6.41,7.664c-1.402,2.104-3.256,3.622-5.56,4.557l-6.611,0.201
		c1.035,1.369,2.888,2.704,5.559,4.006c-1.469,0.568-3.606,0.802-6.411,0.701c-3.105-0.1-5.426-0.634-6.962-1.603
		c1.903-2.337,3.823-5.192,5.76-8.563c-2.137-2.204-3.556-3.857-4.257-4.959c-0.301,1.869-0.701,3.339-1.202,4.407l-5.76-7.964
		c-1.202,1.57-2.22,2.588-3.055,3.056c-0.868-1.302-1.386-2.688-1.553-4.157c-3.606,1.703-6.177,3.089-7.713,4.157
		c0.902-2.471,1.753-4.124,2.555-4.958c-0.802,0.2-2.621,0.818-5.459,1.854l-7.112,6.66l-6.511,5.26l-4.758,3.305
		c-2.037,1.27-3.573,2.07-4.607,2.404c0.333-1.603,0.618-2.705,0.851-3.306c-0.935,0.268-1.937,0.685-3.005,1.253
		c-1.168,0.634-2.054,1.285-2.654,1.953c0.133-1.303,0.484-2.639,1.052-4.008c-2.872,1.069-5.142,1.537-6.812,1.402
		c-0.968-0.066-2.17,0.168-3.606,0.701c-1.536,0.602-3.039,1.47-4.508,2.605c0.434-2.605,1.72-4.842,3.856-6.712
		c-2.037-0.167-3.906,0.2-5.609,1.103c0.835-1.537,1.77-2.755,2.805-3.656c-2.037-0.067-4.09-0.418-6.16-1.053
		c-2.17-0.634-3.89-1.451-5.159-2.453l4.307-0.852c-1.569-1.202-3.556-2.305-5.96-3.306c-2.938-1.202-5.676-1.853-8.214-1.954
		c1.97-1.034,4.224-1.936,6.761-2.704c0.101-0.333-0.684-1.135-2.354-2.403c-1.569-1.169-2.788-1.938-3.656-2.305
		c1.937-0.267,4.458-0.316,7.563-0.15c-2.705-1.535-4.858-3.271-6.461-5.208c-1.87-2.237-3.122-4.875-3.756-7.913
		c-0.601-2.738-1.118-4.559-1.552-5.459c-0.801-1.67-2.321-3.457-4.558-5.359l2.504,0.301c1.169,0.334,2.137,0.867,2.905,1.602
		c-0.1-1.001-0.567-2.32-1.402-3.956c-0.834-1.569-1.736-2.955-2.705-4.157c2.638,0.768,4.775,1.82,6.411,3.156
		c-0.635-2.171-1.119-5.043-1.453-8.615c-0.334-3.105-0.467-5.659-0.4-7.662c0.066-1.703-0.267-3.54-1.002-5.51
		c-0.701-1.97-1.636-3.673-2.805-5.109c0.901-0.033,2.287,0.518,4.157,1.653c1.97,1.202,3.439,2.472,4.407,3.807l-0.3-4.307
		c1.168,0.434,2.07,1.001,2.704,1.703c-0.233-3.64,0.167-6.544,1.202-8.715c0.568-1.269,1.62-2.638,3.155-4.106
		c0.968-0.935,1.703-2.237,2.204-3.907c0.434-1.402,0.668-2.821,0.701-4.257l2.604,2.705l0.852,6.761l0.751,7.212
		c0,6.11,3.239,11.536,9.716,16.278c5.443,3.973,11.035,6.311,16.778,7.012c6.11,0.701,13.306-0.218,21.586-2.756
		c9.382-2.871,16.728-6.994,22.037-12.37c3.64-3.673,6.194-9.549,7.663-17.629c1.202-6.511,1.519-12.805,0.952-18.882l5.409-1.803
		l3.055,3.756c1.603-0.1,3.105,0.751,4.507,2.554c1.169,1.503,1.987,3.256,2.455,5.259c2.303,1.001,3.639,4.04,4.006,9.115
		c1.035-2.371,2.588-4.958,4.658-7.763l2.805-3.506l-0.951,8.715c-0.602,6.01-0.885,9.583-0.852,10.718
		C164.26,119.706,165.795,118.604,167.531,117.735"/>
	<path fill="none" stroke="#000000" stroke-miterlimit="10" d="M95.11,26.683c6.177,0.401,11.937,4.357,17.279,11.87
		c4.975,7.079,7.963,14.741,8.965,22.988c0.901,7.479-0.134,14.441-3.105,20.885c-2.972,6.444-6.878,10.184-11.72,11.219
		c-1.97,4.107-5.092,7.128-9.366,9.065c-3.673,1.703-7.997,2.521-12.972,2.454c-4.941-0.067-9.683-1.987-14.224-5.76
		c-5.009-4.14-7.696-9.065-8.064-14.775c-0.367-5.709,0.518-10.618,2.655-14.725c1.87-3.54,4.741-6.645,8.614-9.316l11.019-6.711
		c4.508-2.972,7.513-5.894,9.015-8.765c1.736-3.373,2.02-7.095,0.852-11.169c-1.135-3.907-3.289-7.146-6.461-9.716
		C90.302,24.028,92.806,24.846,95.11,26.683"/>
	<path fill="none" stroke="#000000" stroke-miterlimit="10" d="M15.476,42.459c-3.139-10.284-4.992-18.714-5.559-25.292
		c5.042,3.573,11.302,8.682,18.781,15.326c7.379,6.578,12.905,11.92,16.578,16.027c2.971,3.339,6.177,8.164,9.616,14.474
		c2.604,4.774,4.958,9.649,7.062,14.625l-0.2,2.254c-3.139-1.002-5.943-2.154-8.414-3.456c1.937,4.775,3.456,8.014,4.558,9.716
		c-4.408-1.803-9.9-4.808-16.478-9.015c-7.312-4.674-12.604-8.748-15.876-12.22C22.304,61.491,18.949,54.012,15.476,42.459"/>
	<path fill="none" stroke="#000000" stroke-miterlimit="10" d="M183.357,46.466c-6.678,11.152-11.902,18.648-15.676,22.488
		c-3.84,3.973-9.934,8.013-18.281,12.12c-6.945,3.473-13.856,6.261-20.735,8.364c3.105-4.507,5.56-8.748,7.362-12.721
		c-4.774,1.97-8.614,3.923-11.519,5.86c4.941-15.326,8.447-24.358,10.518-27.096c4.073-5.442,13.072-12.037,26.995-19.783
		c13.59-7.513,25.543-12.705,35.861-15.576C193.408,28.937,188.566,37.718,183.357,46.466"/>
	<path fill="none" stroke="#000000" stroke-miterlimit="10" d="M111.237,112.376c0,1.001-0.234,1.886-0.701,2.654
		c-0.534,0.835-1.186,1.269-1.953,1.302c-0.801,0.034-1.469-0.351-2.003-1.152c-0.501-0.734-0.785-1.636-0.852-2.705
		c-0.067-1.001,0.134-1.937,0.601-2.805c0.534-1.001,1.235-1.502,2.104-1.502c0.801-0.033,1.469,0.351,2.003,1.152
		C111.003,110.156,111.27,111.174,111.237,112.376"/>
	<path fill="none" stroke="#000000" stroke-miterlimit="10" d="M65.861,107.719c0.567-0.067,1.118,0.2,1.653,0.801
		c0.534,0.601,0.868,1.419,1.001,2.454c0.133,1.102,0.067,2.02-0.2,2.754c-0.301,0.835-0.801,1.286-1.502,1.353
		c-0.768,0.1-1.403-0.267-1.903-1.102c-0.401-0.667-0.651-1.536-0.751-2.604c-0.1-0.768-0.017-1.52,0.25-2.254
		C64.742,108.253,65.226,107.786,65.861,107.719"/>
	<path fill="none" stroke="#000000" stroke-miterlimit="10" d="M167.131,141.426c-1.002,3.539-2.788,6.41-5.359,8.613l4.057-0.4
		c2.271-0.601,4.592-1.736,6.962-3.405c-1.169,3.606-2.737,6.444-4.708,8.515c-1.67,1.736-4.006,3.271-7.012,4.607l3.506,0.751
		l3.906,0.501l-3.956,2.555l-4.257,2.404l4.707,0.701c2.137,0.4,3.64,0.784,4.508,1.151c-3.973,0.968-6.828,2.704-8.564,5.208
		c-3.539,5.143-6.311,8.582-8.313,10.318c2.571,0.166,4.941,0.634,7.112,1.402c-3.307,0.5-5.943,1.485-7.914,2.955
		c-1.937,1.436-4.173,4.057-6.711,7.863c-2.905,4.34-7.045,5.959-12.421,4.857c0.434,0.534,1.302,1.219,2.604,2.054l3.205,1.853
		l-6.06,0.852c-2.972,0.066-5.409-0.518-7.313-1.753c1.903-2.337,3.823-5.192,5.76-8.563c-2.137-2.204-3.556-3.857-4.257-4.959
		c-0.301,1.869-0.701,3.339-1.202,4.407l-5.76-7.964c-1.202,1.57-2.22,2.588-3.055,3.056c-0.868-1.302-1.386-2.688-1.553-4.157
		c-3.606,1.703-6.177,3.089-7.713,4.157c0.902-2.471,1.753-4.124,2.555-4.958c-0.802,0.2-2.621,0.818-5.459,1.854l-7.112,6.66
		l-6.511,5.26l-4.758,3.305c-2.037,1.27-3.573,2.07-4.607,2.404c0.333-1.603,0.618-2.705,0.851-3.306
		c-0.935,0.268-1.937,0.685-3.005,1.253c-1.168,0.634-2.054,1.285-2.654,1.953c0.133-1.303,0.484-2.639,1.052-4.008
		c-2.872,1.069-5.142,1.537-6.812,1.402c-0.968-0.066-2.17,0.168-3.606,0.701c-1.536,0.602-3.039,1.47-4.508,2.605
		c0.434-2.605,1.72-4.842,3.856-6.712c-2.037-0.167-3.906,0.2-5.609,1.103c0.835-1.537,1.77-2.755,2.805-3.656
		c-2.037-0.067-4.09-0.418-6.16-1.053c-2.17-0.634-3.89-1.451-5.159-2.453l4.307-0.852c-1.569-1.202-3.556-2.305-5.96-3.306
		c-2.938-1.202-5.676-1.853-8.214-1.954c1.736-0.934,4.174-1.886,7.313-2.854c-3.339-2.505-5.526-3.99-6.561-4.458l7.563-0.251
		c-2.705-1.535-4.858-3.271-6.461-5.208c-1.87-2.237-3.122-4.875-3.756-7.913c-0.601-2.738-1.118-4.559-1.552-5.459
		c-0.801-1.67-2.321-3.457-4.558-5.359l2.504,0.301c1.169,0.334,2.137,0.867,2.905,1.602c-0.1-1.001-0.567-2.32-1.402-3.956
		c-0.834-1.569-1.736-2.955-2.705-4.157c2.638,0.768,4.775,1.82,6.411,3.156c-0.635-2.171-1.119-5.043-1.453-8.615
		c-0.334-3.105-0.467-5.659-0.4-7.662c0.066-1.703-0.267-3.54-1.002-5.51c-0.701-1.97-1.636-3.673-2.805-5.109
		c1.636,1.236,3.206,2.955,4.708,5.159c1.569,2.304,2.554,4.425,2.955,6.36c0.4,2.07,1.118,4.425,2.153,7.063
		c1.068,2.705,2.003,4.541,2.805,5.51c0.434-2.572,0.401-4.859-0.1-6.862c1.502,1.703,2.821,4.741,3.957,9.115
		c1.169,4.575,1.386,7.897,0.651,9.967c1.803-0.868,2.938-2.337,3.406-4.407c0.634-3.039,1.219-4.975,1.753-5.81
		c1.102,3.706,1.736,6.478,1.903,8.313c0.368,3.406-0.25,5.776-1.853,7.112c2.003,0,3.723-0.552,5.159-1.653
		c1.603-1.234,2.538-2.938,2.805-5.108c0.735,1.937,1.135,3.974,1.202,6.11c0.033,2.237-0.334,4.09-1.102,5.56
		c1.603-0.501,3.422-2.337,5.459-5.509c2.237-3.54,3.89-5.66,4.958-6.361c-1.168,3.974-1.252,7.213-0.25,9.717
		c1.202,3.038,1.569,6.511,1.102,10.417c1.569-1.903,2.588-3.423,3.055-4.558c0.901-2.17,0.952-4.475,0.15-6.912
		c1.168,0.468,2.371,2.07,3.606,4.809c1.335,2.904,1.753,5.209,1.252,6.912c1.569-1.67,2.688-3.539,3.356-5.609
		c0.868-2.538,1.135-5.526,0.801-8.965c2.104,2.838,3.088,5.041,2.955,6.61c0.802-0.835,1.419-1.837,1.854-3.005
		c0.4-1.102,0.534-2.037,0.4-2.805l1.703,2.754c1.001,0.936,2.053,0.334,3.155-1.803c1.235,1.035,3.422,1.119,6.561,0.25
		c0.467,1.27,1.619,1.637,3.456,1.103s2.888-1.452,3.155-2.755c0.568,1.002,0.768,2.32,0.601,3.957
		c-0.2,2.17-1.035,4.123-2.504,5.859c1.803-0.2,3.773-1.419,5.91-3.656c2.237-2.404,3.322-4.725,3.255-6.961
		c1.502,1.102,2.488,2.971,2.955,5.609c0.567,3.271,1.168,5.426,1.803,6.461c1.069-2.204,2.321-3.79,3.756-4.758
		c1.569-1.002,2.604-2.455,3.105-4.357c0.467-1.904,0.233-3.773-0.701-5.609c1.302,0.5,2.42,1.853,3.355,4.057
		c0.968,2.304,1.102,4.189,0.401,5.659c1.369-0.501,2.621-1.586,3.756-3.255c1.135-1.736,1.519-3.223,1.152-4.458
		c-0.634-2.07-0.968-4.007-1.002-5.81c-0.033-1.938,0.301-3.473,1.002-4.607c0.5,2.104,1.285,3.939,2.354,5.509
		c1.235,1.803,2.571,2.821,4.006,3.056c0.768-1.57,1.019-3.072,0.751-4.508c-0.267-1.336-1.035-2.889-2.304-4.658
		c1.469,0.568,3.606,0.317,6.411-0.751c3.004-1.136,5.542-2.788,7.612-4.958c-3.005,1.068-5.609,1.318-7.813,0.75
		c3.072-1.368,5.66-2.988,7.764-4.857c2.304-2.004,3.739-4.023,4.307-6.061c-0.734,0.969-2.02,1.687-3.856,2.154l-3.956,0.751
		c2.104-1.903,3.807-4.458,5.108-7.663c1.235-3.038,1.819-5.843,1.753-8.414l0.15-1.953c1.336-1.335,2.871-2.438,4.607-3.306
		c1.736-0.834,3.256-1.235,4.558-1.202c-2.538,2.104-4.323,4.207-5.358,6.311c3.739-1.803,6.994-2.471,9.766-2.003
		c-2.371,1.603-4.324,3.639-5.859,6.11c-1.604,2.538-2.455,5.109-2.555,7.713C167.982,137.335,167.665,139.589,167.131,141.426"/>
	<path fill="none" stroke="#000000" stroke-miterlimit="10" d="M283.275,87.184c3.238-2.671,7.229-4.307,11.971-4.908
		c-4.441,2.137-7.229,4.975-8.365,8.514c-0.3,0.935-0.717,2.905-1.252,5.91c-0.566,3.005-1.201,5.609-1.902,7.813
		c2.137-1.536,3.623-3.122,4.457-4.758c1.068,3.673,1.086,7.246,0.051,10.718c-1.035,3.506-0.952,7.329,0.25,11.469
		c0.701,2.471,0.834,5.108,0.4,7.913c-0.534,3.74-2.02,7.279-4.457,10.618c2.57,0.067,4.474,0.351,5.709,0.852
		c-1.035,1.536-3.256,3.255-6.661,5.159c3.072,1.234,5.242,2.42,6.511,3.555c-1.936,0.201-3.89,0.635-5.859,1.303
		c-2.504,0.868-4.475,1.986-5.91,3.355l5.259,0.501c1.87,0.601,3.173,1.753,3.907,3.456c1.068,0.5,2.07,1.235,3.004,2.203
		c1.136,1.136,1.837,2.271,2.104,3.406c-2.703-0.835-5.575-1.186-8.613-1.052c-3.373,0.134-6.712,0.885-10.018,2.253
		c-7.846,10.852-14.842,17.547-20.984,20.084c1.035,0.067,2.354,0.451,3.956,1.152c1.636,0.734,3.005,1.553,4.106,2.454
		c-2.003-0.601-4.391-0.835-7.162-0.701c-2.971,0.101-5.426,0.601-7.361,1.503c-1.804,0.867-4.107,1.535-6.912,2.003
		c-3.238,0.534-5.893,0.551-7.963,0.05c2.438,2.438,4.174,4.574,5.209,6.411c-4.041-2.304-7.563-3.322-10.568-3.056
		c-2.07,0.168-4.224,0.135-6.461-0.1c-2.504-0.268-4.391-0.718-5.659-1.353c1.903,1.636,3.989,3.005,6.261,4.106l-7.162-0.9
		c-3.373-0.668-6.127-1.637-8.264-2.905c-7.279-7.579-10.785-16.061-10.518-25.442c0.166-5.844-0.919-11.971-3.256-18.381
		c-2.571-7.146-6.193-13.039-10.869-17.68c5.176,1.502,9.149,4.591,11.921,9.266c1.436,2.37,2.487,3.906,3.155,4.607
		c1.369,1.402,3.172,2.271,5.408,2.604c-1.035-1.535-1.686-3.472-1.953-5.809c-0.233-1.971-1.586-4.391-4.057-7.263l3.757,0.251
		c1.803,0.233,3.104,0.867,3.906,1.902c0.668,0.869,1.503,2.371,2.505,4.508c1.135,1.703,2.67,2.654,4.607,2.855
		c-1.569-1.402-1.92-3.724-1.053-6.963c0.602-2.303,1.938-5.325,4.008-9.064l0.801,7.863c0.802,3.405,2.454,5.676,4.959,6.811
		c1.436-0.333,2.387-1.117,2.854-2.354c0.3-0.701,0.518-2.053,0.651-4.057c0.3-4.207,1.719-7.062,4.257-8.564
		c-0.567,3.373,0.116,7.012,2.054,10.918c1.602,3.206,1.652,6.228,0.15,9.066c3.071-0.836,5.509-3.473,7.312-7.914
		c1.77-4.307,1.987-7.746,0.651-10.317c2.07,0.668,3.789,1.903,5.158,3.706c1.57,2.037,1.938,4.057,1.102,6.061
		c1.336-0.801,2.254-1.971,2.756-3.506c0.3-0.835,0.584-2.387,0.851-4.658c0.534-4.474,2.104-7.696,4.708-9.666
		c-0.734,1.469-0.885,3.306-0.451,5.51c0.502,2.37,1.52,4.189,3.056,5.459c2.438-1.169,4.124-3.873,5.059-8.114
		c1.068-5.008,2.036-8.014,2.905-9.015c0.5,2.705,1.902,4.407,4.207,5.108c2.904,0.868,6.443-0.367,10.617-3.706
		c-2.904,0.267-5.408-0.685-7.513-2.855c-2.104-2.137-1.953-3.589,0.451-4.357c2.438-0.802,4.624-2.788,6.562-5.96l-5.76,0.501
		c-2.404-0.2-4.141-0.618-5.209-1.252c2.37-1.002,4.407-2.838,6.109-5.509c1.77-2.838,3.423-4.658,4.959-5.459
		c1.201-0.635,2.504-1.586,3.906-2.855L283.275,87.184"/>
	<path fill="none" stroke="#000000" stroke-miterlimit="10" d="M106.479,93.795c-2.17,4.875-6.428,8.297-12.771,10.267
		c-6.144,1.903-11.903,1.77-17.279-0.401c-5.208-2.137-9.232-6.193-12.07-12.17c-2.805-5.943-3.422-11.653-1.853-17.128
		c-0.567,4.708,0.852,9.132,4.257,13.272c3.406,4.174,7.746,6.728,13.022,7.663c7.412,1.302,13.656-0.05,18.731-4.057
		c5.81-4.608,7.295-11.336,4.458-20.184c2.07,3.139,3.389,5.493,3.957,7.062c0.501,1.436,0.801,3.589,0.901,6.461
		c4.007-2.104,7.012-6.294,9.015-12.571c2.571-8.147,2.104-17.479-1.402-27.997c2.304,3.606,3.94,7.98,4.908,13.122
		c0.968,5.108,1.152,10.167,0.551,15.175C119.4,84.063,114.592,91.224,106.479,93.795"/>
	<path fill="none" stroke="#000000" stroke-miterlimit="10" d="M163.375,170.224l3.506,0.251l3.605-0.101l-2.705,1.853l-3.205,1.754
		l5.459,0.4c1.436,0.267,2.838,0.717,4.207,1.352c-1.636,0.367-3.238,1.002-4.808,1.903c-1.77,1.002-3.071,2.138-3.907,3.405
		l-2.955,4.559c-1.402,2.003-2.921,3.772-4.557,5.309c-1.536-1.869-2.755-3.689-3.656-5.459c1.67-0.602,3.455-0.969,5.359-1.102
		c-2.371-1.068-4.742-1.536-7.112-1.402c1.034-0.502,2.771-2.504,5.208-6.011C160.42,173.229,162.272,170.992,163.375,170.224"/>
	<path fill="none" stroke="#000000" stroke-miterlimit="10" d="M167.181,141.375c0.634-2.304,0.918-4.641,0.852-7.012
		c-0.034-2.271,0.901-4.842,2.805-7.713l1.702,0.752c-1.035,2.805-1.234,5.809-0.601,9.015l1.253,4.407
		c0.367,1.836,0.149,3.74-0.652,5.709c-2.704,1.67-5.107,2.756-7.211,3.256l-3.506,0.15
		C164.359,147.703,166.146,144.848,167.181,141.375"/>
	<path fill="none" stroke="#000000" stroke-miterlimit="10" d="M164.025,163.662c2.137-1.201,3.455-2.203,3.957-3.005l-3.557-0.601
		l-3.155-0.852c2.003-0.901,4.023-2.154,6.061-3.756l3.005-0.101l3.005,0.4c-2.571,1.736-4.224,3.673-4.958,5.81
		c1.235-0.567,2.705-0.935,4.407-1.102l4.357,0.1c-4.374,2.906-7.146,5.227-8.313,6.963c-2.037-1.002-5.043-1.604-9.016-1.804
		L164.025,163.662"/>
	<path fill="none" stroke="#000000" stroke-miterlimit="10" d="M144.242,196.217l1.903-2.254c0.834-0.968,1.569-1.636,2.204-2.003
		c1.168,0.267,1.836,1.252,2.003,2.955c0.134,1.503-0.101,3.706-0.701,6.61c-0.568,2.538-2.388,6.695-5.459,12.472
		c-2.871,5.442-5.509,9.85-7.913,13.222c-1.903,2.639-4.424,4.391-7.563,5.26c-2.705,0.768-5.643,0.801-8.815,0.1
		c-2.638-0.567-4.574-1.82-5.81-3.756c-1.269-1.904-1.419-3.857-0.451-5.86c0,2.704,2.037,4.491,6.11,5.358
		c3.974,0.836,7.296,0.301,9.967-1.602c3.673-2.672,6.277-5.844,7.813-9.517c1.502-3.572,1.069-5.058-1.302-4.457
		c-2.204,0.534-4.324-0.001-6.36-1.603c-1.369,1.436-3.155,2.537-5.359,3.305c-2.104,0.701-4.057,0.952-5.86,0.752
		c0.901-1.503,1.703-3.389,2.404-5.66l1.152-4.707c1.269-0.268,2.237-0.869,2.905-1.804c3.206,1.903,7.58,2.153,13.122,0.751
		l-2.854-1.602c-1.169-0.769-1.987-1.47-2.454-2.104c2.404,0.734,4.841,0.467,7.312-0.802
		C141.838,198.438,143.174,197.419,144.242,196.217"/>
	<path fill="none" stroke="#000000" stroke-miterlimit="10" d="M114.943,203.028c3.707-2.871,5.175-6.11,4.408-9.716
		c-3.773,1.67-6.144,2.871-7.112,3.605c0.334-1.234,1.119-2.787,2.354-4.658c-1.436,0.201-3.489,0.936-6.16,2.205
		c-2.404,1.135-4.407,2.253-6.01,3.355c0.367-2.171,1.219-4.425,2.554-6.762c-2.404-0.468-4.391-0.434-5.96,0.1l2.855-2.654"/>
	<path fill="none" stroke="#000000" stroke-miterlimit="10" d="M95.26,215.85"/>
	<path fill="none" stroke="#000000" stroke-miterlimit="10" d="M101.871,188.504l2.404-2.453c1.803-0.836,3.756-1.52,5.86-2.055
		c-1.302,1.57-2.22,3.206-2.754,4.908c2.371-1.568,4.925-2.921,7.663-4.057c0.234,1.604,0.751,2.988,1.553,4.157
		c0.801-0.367,1.82-1.386,3.055-3.056c2.104,2.538,4.023,5.193,5.76,7.964l1.252-4.257l1.953,2.454l2.254,2.354l-4.407,6.911
		c-1.302,1.97-3.94,3.806-7.914,5.509c-1.636,0.701-4.591,2.455-8.865,5.26s-7.98,5.426-11.119,7.862
		c-2.905,2.237-6.277,3.372-10.117,3.405c-3.139,0.034-5.96-0.601-8.464-1.902c-2.237-1.102-3.873-2.621-4.908-4.558
		c-1.135-2.104-1.319-4.324-0.551-6.661c-0.067,1.068,0.567,2.236,1.903,3.506"/>
	<path fill="none" stroke="#000000" stroke-miterlimit="10" d="M194.126,173.629c0.334,3.006,1.519,6.512,3.556,10.518
		c1.87,3.64,3.689,6.344,5.459,8.113c2.805,2.806,4.458,5.543,4.959,8.215c0.334,1.803,0.133,4.523-0.602,8.164
		c-0.5,2.703-1.97,7.596-4.407,14.674l-4.858,13.322c-1.603,3.906-3.956,6.578-7.062,8.014c-3.038,1.436-6.929,1.72-11.669,0.852
		c-2.672-0.501-4.691-1.67-6.061-3.506c-1.402-1.903-1.637-3.939-0.701-6.11c0.701,3.239,3.689,4.708,8.965,4.407
		c5.143-0.334,8.814-2.02,11.019-5.059c1.736-2.371,3.706-6.678,5.909-12.922c2.07-5.843,3.322-10.316,3.757-13.422
		c0.468-3.105,0.634-5.359,0.501-6.762c-0.2-2.471-1.152-4.725-2.855-6.762c-2.537-3.104-4.256-6.51-5.158-10.217
		C194.109,181.977,193.859,178.137,194.126,173.629"/>
	<path fill="none" stroke="#000000" stroke-miterlimit="10" d="M82.288,200.224c-0.4,1.136-0.685,2.237-0.851,3.306
		c-1.269,0.568-2.521,1.402-3.756,2.504c-1.202,1.136-2.121,2.271-2.755,3.406c-1.77,0-3.539,0.567-5.309,1.703
		c0.133-2.805-0.134-6.178-0.802-10.117c3.54,0,6.578-0.602,9.116-1.803l-0.802,1.953c-0.267,0.867-0.434,1.619-0.5,2.254
		c0.634-0.635,1.552-1.286,2.754-1.953C80.485,200.842,81.454,200.424,82.288,200.224"/>
	<path fill="none" stroke="#000000" stroke-miterlimit="10" d="M86.345,223.313"/>
	<path fill="none" stroke="#000000" stroke-miterlimit="10" d="M84.492,234.181"/>
	<path fill="none" stroke="#000000" stroke-miterlimit="10" d="M81.236,242.795"/>
	<path fill="none" stroke="#000000" stroke-miterlimit="10" d="M86.345,223.313l5.108-0.351c-0.634,7.212-2.271,14.106-4.908,20.685
		c-2.404,5.91-7.896,8.414-16.478,7.513c-3.139-0.334-5.442-1.519-6.912-3.556c-1.302-1.803-1.636-3.723-1.002-5.76"/>
	<path fill="none" stroke="#000000" stroke-miterlimit="10" d="M106.479,93.795c4.207-1.135,7.679-4.057,10.417-8.765
		c2.304-3.94,3.739-8.381,4.307-13.323c0.501,6.311-0.451,11.87-2.855,16.678c-2.337,4.641-5.743,7.997-10.217,10.067
		c-3.172,4.741-7.78,7.997-13.823,9.767c-5.075,1.469-10.084,1.686-15.025,0.651c-6.21-1.269-11.085-4.992-14.625-11.169
		c-3.506-6.043-4.558-12.287-3.155-18.731c-0.167,6.611,1.352,12.104,4.558,16.478c3.172,4.34,7.78,7.312,13.823,8.915
		c5.676,1.503,11.252,1.035,16.728-1.402C101.654,100.69,104.943,97.635,106.479,93.795"/>
	<path fill="none" stroke="#000000" stroke-miterlimit="10" d="M10.417,21.474"/>
	<path fill="none" stroke="#000000" stroke-miterlimit="10" d="M10.417,21.474l-0.651-4.608c3.673,2.571,9.6,7.429,17.78,14.574
		c8.414,7.379,13.79,12.471,16.127,15.276c8.615,10.518,14.742,20.802,18.381,30.852l-0.3,2.454L59.25,79.07"/>
	<path fill="none" stroke="#000000" stroke-miterlimit="10" d="M127.314,80.874l-2.705,1.653l5.559-15.927
		c2.17-5.977,3.907-9.8,5.209-11.469c4.474-5.676,13.856-12.421,28.147-20.234c13.589-7.446,25.042-12.404,34.358-14.875
		l-1.904,4.307"/>
	<path fill="none" stroke="#000000" stroke-miterlimit="10" d="M157.364,46.366"/>
	<path fill="none" stroke="#000000" stroke-miterlimit="10" d="M195.979,24.329"/>
	<path fill="none" stroke="#000000" stroke-miterlimit="10" d="M82.539,131.408c0-0.4,0.952-0.601,2.855-0.601
		s2.872,0.184,2.905,0.551c0.033,0.468-0.334,0.952-1.102,1.452l-1.853,0.701c-0.4,0-0.968-0.25-1.703-0.751
		C82.906,132.227,82.539,131.775,82.539,131.408"/>
	<path fill="none" stroke="#000000" stroke-miterlimit="10" d="M57.547,94.396l-0.15,1.352c-7.68-3.573-15.326-8.08-22.938-13.522
		c-8.314-5.91-13.89-11.085-16.728-15.526c-2.805-4.34-6.077-13.74-9.816-28.197C4.508,25.447,1.887,13.01,0.05,1.19
		c-0.1-0.634,0.017-1.002,0.351-1.102c0.3-0.1,0.601,0.117,0.901,0.651c1.536,2.705,3.088,4.725,4.658,6.06
		C5.727,5.263,5.643,3.627,5.71,1.891C5.776,1.39,5.927,1.106,6.161,1.04c0.233-0.067,0.467,0.117,0.701,0.551
		c2.037,3.372,5.375,7.312,10.017,11.819c4.04,3.94,8.164,7.463,12.371,10.568c7.346,5.476,13.289,11.586,17.83,18.331"/>
	<path fill="none" stroke="#000000" stroke-miterlimit="10" d="M36.011,81.124"/>
	<path fill="none" stroke="#000000" stroke-miterlimit="10" d="M19.683,65.548"/>
	<path fill="none" stroke="#000000" stroke-miterlimit="10" d="M10.317,39.705"/>
	<path fill="none" stroke="#000000" stroke-miterlimit="10" d="M47.079,42.309c0.568,0.834,0.718,1.335,0.451,1.502
		c-0.267,0.2-0.701-0.1-1.302-0.901c-2.638-3.373-5.409-6.444-8.314-9.216c-2.738-2.571-6.01-5.275-9.816-8.113
		c-4.007-2.938-7.947-6.344-11.82-10.217c-4.44-4.474-7.563-8.348-9.366-11.62c0,1.502,0.134,2.988,0.401,4.458
		c0.067,0.334,0.017,0.568-0.15,0.701c-0.234,0.134-0.501,0.067-0.801-0.2C4.758,7.5,3.356,6.065,2.154,4.396"/>
	<path fill="none" stroke="#000000" stroke-miterlimit="10" d="M153.007,30.739l-1.503,1.703c0.134-1.469,0.134-3.139,0-5.008
		c-2.303,4.173-6.043,8.932-11.218,14.274c-3.439,3.539-6.645,7.546-9.616,12.02c-3.973,5.91-7.229,12.154-9.767,18.731l0.401-5.509
		c3.306-6.845,6.578-12.621,9.816-17.329c2.371-3.406,5.008-6.628,7.913-9.666c6.077-6.244,10.167-11.453,12.271-15.626
		c0.333-0.701,0.667-1.035,1.001-1.001c0.334,0.033,0.518,0.434,0.551,1.202L153.007,30.739"/>
	<path fill="none" stroke="#000000" stroke-miterlimit="10" d="M207.498,9.454l-1.352,0.801c0.301-1.569,0.384-3.072,0.25-4.507
		c-1.202,2.003-2.955,3.907-5.259,5.709c-2.438,1.87-4.908,3.155-7.413,3.856c-8.914,2.504-16.811,5.442-23.689,8.815
		c-6.777,3.339-11.419,6.528-13.923,9.566c-0.501,0.601-0.868,0.835-1.103,0.701c-0.233-0.133-0.267-0.551-0.1-1.252l0.602-4.007
		c-1.938,1.636-3.573,3.422-4.908,5.359c-0.469,0.668-0.836,0.935-1.103,0.801c-0.267-0.167-0.2-0.618,0.2-1.352
		c0.701-1.269,1.619-2.554,2.755-3.856s2.271-2.371,3.405-3.206c0.902-0.667,1.303-0.467,1.202,0.601l-0.551,3.756
		c6.745-6.645,18.798-12.421,36.161-17.329c5.175-1.502,9.783-4.958,13.822-10.367c0.701-0.935,1.103-0.818,1.203,0.351
		C207.865,5.731,207.799,7.584,207.498,9.454"/>
	<path fill="none" stroke="#000000" stroke-miterlimit="10" d="M206.046,11.106c-0.835,0.534-1.335,0.651-1.503,0.351
		c-0.166-0.267,0.134-0.701,0.902-1.302c2.37-1.803,4.474-3.222,6.311-4.257c3.172-1.836,4.891-2.655,5.158-2.454
		c0.268,0.233-0.617,1.819-2.654,4.758c-3.238,4.741-10.25,16.828-21.035,36.261c-10.284,18.498-16.027,28.481-17.229,29.95
		c-3.573,4.441-9.55,8.715-17.931,12.822c-8.882,4.34-18.682,7.579-29.399,9.716l-1.453-0.201c-0.066-0.3,0.334-0.584,1.202-0.851
		c11.286-3.206,20.835-6.711,28.648-10.518c8.081-3.94,13.773-7.98,17.079-12.121c0.701-0.868,6.694-11.168,17.98-30.902
		c11.452-20.067,18.598-32.021,21.436-35.86C210.086,8.536,207.582,10.071,206.046,11.106"/>
	<path fill="none" stroke="#000000" stroke-miterlimit="10" d="M101.27,166.768c-0.734-0.334-1.052-0.65-0.952-0.951l1.302-0.051
		l4.458,0.15c0.768-0.133,1.186-0.05,1.252,0.25c0.067,0.334-0.284,0.602-1.052,0.803L101.27,166.768"/>
	<path fill="none" stroke="#000000" stroke-miterlimit="10" d="M106.278,169.973c0.868,0,1.319,0.15,1.353,0.451
		c0,0.334-0.417,0.534-1.252,0.602c-3.372,0.3-5.993,1.268-7.863,2.904c-0.601,0.501-1.002,0.635-1.202,0.4
		c-0.2-0.267-0.033-0.684,0.501-1.252C99.751,171.008,102.572,169.973,106.278,169.973"/>
	<path fill="none" stroke="#000000" stroke-miterlimit="10" d="M95.61,181.442c0.601-1.503,1.569-2.888,2.905-4.157
		c1.369-1.302,2.955-2.337,4.758-3.105c0.668-0.3,1.068-0.3,1.202,0c0.133,0.301-0.1,0.618-0.701,0.952
		c-2.905,1.569-4.958,3.456-6.161,5.659l5.66-0.751l-1.402,1.402c-1.803,0.2-3.556,0.551-5.259,1.052
		C95.577,182.795,95.243,182.443,95.61,181.442"/>
	<path fill="none" stroke="#000000" stroke-miterlimit="10" d="M248.518,35.197c-1.002-0.3-1.186-0.751-0.551-1.352
		c0.533-0.534,1.318-0.918,2.354-1.152l3.055-0.1c-1.568-2.271-2.654-5.342-3.256-9.216c-0.133-0.734-0.049-1.168,0.251-1.302"/>
	<path fill="none" stroke="#000000" stroke-miterlimit="10" d="M250.37,22.075c0.267-0.134,0.601,0.033,1.002,0.5l3.306,2.855
		l0.25,2.003l-2.955-2.454c0.468,3.205,1.52,5.977,3.156,8.314c0.566,0.834,0.367,1.102-0.602,0.801l-4.357,0.15
		c4.875,1.736,7.98,4.975,9.315,9.717c0.935,3.472,0.835,7.162-0.3,11.068c-1.136,4.007-3.139,7.312-6.011,9.917l-0.101-1.502
		c2.305-2.972,3.873-6.127,4.709-9.466c0.867-3.373,0.885-6.578,0.05-9.616c-0.668-2.371-1.736-4.291-3.206-5.76"/>
	<path fill="none" stroke="#000000" stroke-miterlimit="10" d="M65.209,245.951c0.267-1.77,1.019-3.172,2.254-4.207
		c0.434-0.367,0.768-0.451,1.001-0.251c0.201,0.2,0.134,0.534-0.2,1.001c-0.968,1.303-1.452,2.789-1.452,4.458
		c0,1.804,0.651,2.839,1.953,3.105l-3.105-0.401C65.093,248.722,64.942,247.486,65.209,245.951"/>
	<path fill="none" stroke="#000000" stroke-miterlimit="10" d="M72.472,247.402c-0.033-1.936,0.451-3.589,1.453-4.957
		c0.334-0.469,0.634-0.635,0.901-0.502c0.267,0.135,0.284,0.468,0.05,1.002c-0.668,1.536-0.902,3.139-0.701,4.809
		c0.267,2.003,1.269,2.854,3.005,2.555l-3.005,1.001C73.04,250.742,72.472,249.439,72.472,247.402"/>
	<path fill="none" stroke="#000000" stroke-miterlimit="10" d="M79.133,219.957l-2.905-1.502c-0.434-1.369-0.334-2.839,0.3-4.408
		c0.668-1.603,1.67-2.771,3.005-3.506l1.102-0.1c0.201,0.199,0.067,0.518-0.4,0.951c-1.335,1.168-2.137,2.672-2.404,4.508
		C77.563,217.77,77.998,219.122,79.133,219.957"/>
	<path fill="none" stroke="#000000" stroke-miterlimit="10" d="M87.497,222.562l-3.356,0.501c-1.168-1.035-1.652-2.654-1.452-4.858
		c0.167-2.304,1.018-4.023,2.554-5.159c0.501-0.367,0.852-0.434,1.052-0.199c0.167,0.232,0.033,0.584-0.401,1.051
		c-1.269,1.336-1.819,3.056-1.652,5.159C84.442,221.293,85.527,222.461,87.497,222.562"/>
	<path fill="none" stroke="#000000" stroke-miterlimit="10" d="M118.449,231.477l-2.754-0.651c-0.467-1.269-0.451-2.671,0.05-4.207
		c0.568-1.603,1.569-2.805,3.005-3.606l1.102-0.05c0.201,0.267,0.05,0.585-0.451,0.952c-1.269,0.834-2.037,2.17-2.304,4.006
		C116.83,229.79,117.28,230.976,118.449,231.477"/>
	<path fill="none" stroke="#000000" stroke-miterlimit="10" d="M127.164,232.178l-3.055,1.002c-1.135-0.836-1.653-2.271-1.553-4.308
		c0.067-2.204,0.918-3.907,2.554-5.108c0.468-0.367,0.818-0.435,1.052-0.201c0.201,0.234,0.101,0.568-0.3,1.002
		c-1.335,1.503-1.887,3.205-1.653,5.109C124.409,231.643,125.394,232.479,127.164,232.178"/>
	<path fill="none" stroke="#000000" stroke-miterlimit="10" d="M178.7,244.648l-3.356-0.602c-0.601-0.968-0.768-2.236-0.5-3.806
		c0.301-1.804,1.085-3.188,2.354-4.157c0.468-0.367,0.785-0.451,0.951-0.25c0.201,0.233,0.117,0.584-0.25,1.051
		c-1.102,1.437-1.67,2.889-1.703,4.357C176.195,242.945,177.03,244.08,178.7,244.648"/>
	<path fill="none" stroke="#000000" stroke-miterlimit="10" d="M187.264,245.199l-3.154,1.002c-1.27-0.969-1.903-2.488-1.903-4.558
		c0-1.97,0.551-3.623,1.653-4.958c0.4-0.468,0.717-0.618,0.951-0.451c0.233,0.133,0.217,0.484-0.051,1.052
		c-0.834,1.603-1.135,3.288-0.9,5.059C184.126,244.481,185.262,245.434,187.264,245.199"/>
	<path fill="none" stroke="#000000" stroke-miterlimit="10" d="M44.224,33.995c1.636,1.536,3.306,3.355,5.009,5.459
		c-0.1-2.538-0.1-4.324,0-5.359c0.066-0.668,0.217-1.019,0.451-1.052c0.267-0.067,0.567,0.2,0.901,0.801
		c2.504,3.973,5.309,9.7,8.414,17.179c3.039,7.279,5.142,13.206,6.311,17.78l-1.302,2.003c-1.536-5.743-3.773-12.22-6.711-19.433
		c-2.538-6.277-4.775-11.152-6.711-14.625l-0.2,4.207l-0.351,0.701c-0.2,0.067-0.401-0.033-0.601-0.3l-5.108-5.56l0.3,4.207
		l-1.252-1.502l-0.351-3.907c-0.067-0.601,0-0.968,0.2-1.102C43.457,33.394,43.791,33.561,44.224,33.995"/>
</g>
</svg>
