<?xml version="1.0" encoding="UTF-8" standalone="no"?>
<!-- Created with Inkscape (http://www.inkscape.org/) -->

<svg
   xmlns:dc="http://purl.org/dc/elements/1.1/"
   xmlns:cc="http://creativecommons.org/ns#"
   xmlns:rdf="http://www.w3.org/1999/02/22-rdf-syntax-ns#"
   xmlns:svg="http://www.w3.org/2000/svg"
   xmlns="http://www.w3.org/2000/svg"
   version="1.1"
   width="792"
   height="612"
   viewBox="0 0 792 612"
   id="Layer_1"
   xml:space="preserve"><metadata
   id="metadata3077"><rdf:RDF><cc:Work
       rdf:about=""><dc:format>image/svg+xml</dc:format><dc:type
         rdf:resource="http://purl.org/dc/dcmitype/StillImage" /><dc:title></dc:title></cc:Work></rdf:RDF></metadata><defs
   id="defs3075" />
<line
   fill="none"
   stroke="#000000"
   stroke-miterlimit="10"
   x1="24.433001"
   y1="75.556999"
   x2="514.95502"
   y2="454.59698"
   id="line3033"
   style="fill:none;stroke:#000000;stroke-miterlimit:10" />
<rect
   width="439.19101"
   height="339.37601"
   x="48.634998"
   y="94.258003"
   id="rect3035"
   style="fill:none;stroke:#000000;stroke-miterlimit:10" />
<rect
   width="387.91501"
   height="299.75299"
   x="72.836998"
   y="112.96"
   id="rect3037"
   style="fill:none;stroke:#000000;stroke-miterlimit:10" />
<rect
   width="321.12601"
   height="248.144"
   x="102.362"
   y="135.774"
   id="rect3039"
   style="fill:none;stroke:#000000;stroke-miterlimit:10" />
<rect
   width="271.04901"
   height="209.44701"
   x="125.312"
   y="153.509"
   id="rect3041"
   style="fill:none;stroke:#000000;stroke-miterlimit:10" />
<rect
   width="222.43401"
   height="171.88"
   x="149.12601"
   y="171.911"
   id="rect3043"
   style="fill:none;stroke:#000000;stroke-miterlimit:10" />
<rect
   width="174.507"
   height="134.84599"
   x="173.239"
   y="190.54401"
   id="rect3045"
   style="fill:none;stroke:#000000;stroke-miterlimit:10" />
<rect
   width="127.918"
   height="98.846001"
   x="197.265"
   y="209.10899"
   id="rect3047"
   style="fill:none;stroke:#000000;stroke-miterlimit:10" />
<rect
   width="92.806"
   height="71.713997"
   x="216.179"
   y="223.724"
   id="rect3049"
   style="fill:none;stroke:#000000;stroke-miterlimit:10" />
<rect
   width="55.490002"
   height="42.879002"
   x="236.255"
   y="239.23801"
   id="rect3051"
   style="fill:none;stroke:#000000;stroke-miterlimit:10" />
<rect
   width="27.462"
   height="21.222"
   x="252.332"
   y="251.66"
   id="rect3053"
   style="fill:none;stroke:#000000;stroke-miterlimit:10" />
<rect
   width="387.91501"
   height="299.75299"
   x="76.168999"
   y="111.566"
   transform="matrix(0.7071,0.7071,-0.7071,0.7071,263.9855,-114.4338)"
   id="rect3055"
   style="fill:none;stroke:#000000;stroke-miterlimit:10" />
<rect
   width="321.12701"
   height="248.14301"
   x="108.941"
   y="132.521"
   transform="matrix(0.7071,0.7071,-0.7071,0.7071,260.3745,-115.4147)"
   id="rect3057"
   style="fill:none;stroke:#000000;stroke-miterlimit:10" />
<rect
   width="271.04901"
   height="209.44701"
   x="133.645"
   y="149.25"
   transform="matrix(0.7071,0.7071,-0.7071,0.7071,258.424,-115.9441)"
   id="rect3059"
   style="fill:none;stroke:#000000;stroke-miterlimit:10" />
<rect
   width="222.43401"
   height="171.881"
   x="157.873"
   y="167.41499"
   transform="matrix(0.7071,0.7071,-0.7071,0.7071,257.9635,-116.0693)"
   id="rect3061"
   style="fill:none;stroke:#000000;stroke-miterlimit:10" />
<rect
   width="174.507"
   height="134.84599"
   x="181.86"
   y="186.121"
   transform="matrix(0.7071,0.7071,-0.7071,0.7071,258.1031,-116.031)"
   id="rect3063"
   style="fill:none;stroke:#000000;stroke-miterlimit:10" />
<rect
   width="127.919"
   height="98.847"
   x="205.272"
   y="205.037"
   transform="matrix(0.7071,0.7071,-0.7071,0.7071,258.7865,-115.8459)"
   id="rect3065"
   style="fill:none;stroke:#000000;stroke-miterlimit:10" />
<rect
   width="92.806"
   height="71.713997"
   x="223.047"
   y="220.304"
   transform="matrix(0.7071,0.7071,-0.7071,0.7071,260.0506,-115.502)"
   id="rect3067"
   style="fill:none;stroke:#000000;stroke-miterlimit:10" />
<rect
   width="55.490002"
   height="42.877998"
   x="241.933"
   y="236.50101"
   transform="matrix(0.7071,0.7071,-0.7071,0.7071,261.3805,-115.1418)"
   id="rect3069"
   style="fill:none;stroke:#000000;stroke-miterlimit:10" />
<rect
   width="27.462999"
   height="21.221001"
   x="256.27802"
   y="249.914"
   transform="matrix(0.7071,0.7071,-0.7071,0.7071,263.3027,-114.6192)"
   id="rect3071"
   style="fill:none;stroke:#000000;stroke-miterlimit:10" />
</svg>