<?xml version="1.0" encoding="utf-8"?>
<!-- Generator: Adobe Illustrator 16.0.0, SVG Export Plug-In . SVG Version: 6.00 Build 0)  -->
<!DOCTYPE svg PUBLIC "-//W3C//DTD SVG 1.1//EN" "http://www.w3.org/Graphics/SVG/1.1/DTD/svg11.dtd">
<svg version="1.1"
	 id="Layer_1" xmlns:dc="http://purl.org/dc/elements/1.1/" xmlns:cc="http://creativecommons.org/ns#" xmlns:rdf="http://www.w3.org/1999/02/22-rdf-syntax-ns#" xmlns:svg="http://www.w3.org/2000/svg" xmlns:sodipodi="http://sodipodi.sourceforge.net/DTD/sodipodi-0.dtd" xmlns:inkscape="http://www.inkscape.org/namespaces/inkscape" sodipodi:docname="Colorful_Animal_Sea_Horse_black_white_line_art_coloring_book_colouring.svg" inkscape:version="0.48.1 "
	 xmlns="http://www.w3.org/2000/svg" xmlns:xlink="http://www.w3.org/1999/xlink" x="0px" y="0px" width="225.625px"
	 height="463.25px" viewBox="0 -7 225.625 463.25" enable-background="new 0 -7 225.625 463.25" xml:space="preserve">
<sodipodi:namedview  inkscape:cy="775.94638" inkscape:cx="245.74391" inkscape:zoom="0.40416667" showgrid="false" guidetolerance="10" gridtolerance="10" objecttolerance="10" borderopacity="1" pagecolor="#ffffff" bordercolor="#666666" id="namedview767" inkscape:current-layer="Layer_1" inkscape:window-maximized="0" inkscape:window-y="45" inkscape:window-x="707" inkscape:window-height="828" inkscape:window-width="1436" inkscape:pageshadow="2" inkscape:pageopacity="0">
	</sodipodi:namedview>
<path id="path571" inkscape:connector-curvature="0" fill="#FFFFFF" stroke="#000000" stroke-width="2" d="M189.386,244.089
	c-9.779-5.598-0.679-27.75-0.679-27.75c-8.611-2.924-1.432-25.829-1.432-25.829c-6.195-17.045,4.408-43.05,4.408-43.05
	s-38.18,32.198-47.174,41.456c-0.038-17.784,2.032-37.891,8.123-58.826c7.633-26.226,3.099-46.593-7.214-59.902
	c6.425-6.205,12.743-6.904,14.899-8.135c1.891-1.083-0.66-1.868-0.66-1.868c-14.83-3.064-14.805-12.8-14.048-15.243
	c0.331-1.066-1.133-0.888-1.133-0.888c-12.553,0.571-16.659-2.266-20.451-9.265c0,0-1.352-2.215-2.428-1.313
	c-10.951,9.176-24.78-8.297-22.528-0.325c2.553,9.043,2.027,17.691,1.831,19.93c-8,1.535-15.378,4.027-20.288,7.574
	c-11.201,8.089-15.91,13.186-25.323,46.467c-3.409,8.184-12.928,9.808-20.288,10.09c-9.918,0.377-11.898,2.545-11.898,2.545
	s-8.163,23.031,16.775,29.574c0,0,8.246-11.032,20.54-17.33c2.548-1.305,4.835-1.56,6.586-2.526
	c8.029,10.771,23.089,15.58,45.321,7.169c0,0-6.667,3.372-30.741,25.191c-26.854,24.344-58.958,94.733,26.708,135.048
	c0,0,33.259,9.576,15.117,65.509c-18.14,55.934-68.656,27.798-57.947,7.055c7.436-14.419,11.238,4.239,17.008-2.344
	c1.108-1.357,0.632-2.59,0.428-3.543c0,0-6.682-19.375-26.006-6.205c-18.498,12.605-4.532,56.939,34.771,51.902
	c39.305-5.04,84.15-62.991,63.491-152.684c0,0-0.326-0.865-0.856-2.491l36.195,14.787
	C182.427,263.863,189.386,244.089,189.386,244.089L189.386,244.089z M190.488,268.865c0.629,0.388,1.35,0.693,2.171,0.886
	L190.488,268.865z"/>
<g id="g573">
	<path id="path575" inkscape:connector-curvature="0" fill="#FFFFFF" stroke="#000000" stroke-width="2" d="M83.665,86.689
		c0.173,4.185,2.636,7.49,5.491,7.371c2.85-0.124,5.023-3.612,4.85-7.802c-0.182-4.185-2.635-7.483-5.492-7.364
		C85.66,79.014,83.49,82.506,83.665,86.689z"/>
	<path id="path577" inkscape:connector-curvature="0" fill="#FFFFFF" stroke="#000000" stroke-width="2" d="M112.712,85.442
		c1.49-2.588,9.838-1.555,13.267-9.317c0,0,0.896,3.622,2.983,4.833c0,0,0.744,8.796,1.787,9.141c0,0-2.237,5.176-2.237,6.387
		c0,0-3.874,3.621-3.429,5.175c0,0-5.812-9.144-12.669-9.491C112.414,92.169,111.404,87.711,112.712,85.442L112.712,85.442z"/>
	<path id="path579" inkscape:connector-curvature="0" fill="#FFFFFF" stroke="#000000" stroke-width="2" d="M116.765,203.026
		c0,0-11.285-12.18-25.491-3.234c0,0,2.722,17.697-17.904,23.978c0,0,8.756,6.281,9.925,8.944c0,0,14.984,4.183,15.957,6.088
		c0,0,12.452-1.143,16.15,0c0,0,8.564-6.281,12.65-6.281C128.053,232.522,113.458,221.487,116.765,203.026z"/>
</g>
</svg>
