<?xml version="1.0" encoding="utf-8"?>
<!-- Generator: Adobe Illustrator 16.0.0, SVG Export Plug-In . SVG Version: 6.00 Build 0)  -->
<!DOCTYPE svg PUBLIC "-//W3C//DTD SVG 1.1//EN" "http://www.w3.org/Graphics/SVG/1.1/DTD/svg11.dtd">
<svg version="1.1" id="svg2" xmlns:svg="http://www.w3.org/2000/svg"
	 xmlns="http://www.w3.org/2000/svg" xmlns:xlink="http://www.w3.org/1999/xlink" x="0px" y="0px" width="466.5px" height="492.5px"
	 viewBox="0 0 466.5 492.5" enable-background="new 0 0 466.5 492.5" xml:space="preserve">
<path id="path6" fill="none" stroke="#231F20" d="M58.599,224.09c0,0,0.086,1.619-0.618,1.603
	c-0.704-0.017-14.764-41.095-32.304-39.179C25.677,186.514,40.872,180.231,58.599,224.09z"/>
<path id="path10" fill="none" stroke="#231F20" d="M61.616,221.508c0,0-0.471,1.551-1.126,1.296
	c-0.656-0.255,0.099-43.667-17.049-47.833C43.442,174.972,59.867,174.233,61.616,221.508z"/>
<path id="path14" fill="none" stroke="#231F20" d="M85.105,257.676c0,0,1.398,0.82,0.997,1.399
	c-0.402,0.578-42.421-10.36-50.5,5.324C35.602,264.399,38.745,248.262,85.105,257.676z"/>
<path id="path18" fill="none" stroke="#231F20" d="M82.705,266.401c0,0,1.585,0.338,1.386,1.015
	c-0.199,0.676-43.524,3.531-46.249,20.964C37.842,288.38,35.741,272.071,82.705,266.401z"/>
<path id="path22" fill="none" stroke="#231F20" d="M79.107,261.681c0,0,1.521,0.566,1.225,1.205
	c-0.295,0.64-43.573-2.854-48.813,13.993C31.517,276.879,31.819,260.44,79.107,261.681z"/>
<path id="path26" fill="none" stroke="#231F20" d="M69.959,246.125c0,0,1.118,1.175,0.571,1.62
	c-0.545,0.444-37.923-21.647-50.012-8.794C20.519,238.951,27.988,224.303,69.959,246.125z"/>
<path id="path30" fill="none" stroke="#231F20" d="M63.512,249.707c0,0,1.244,1.039,0.752,1.545
	c-0.492,0.504-40.13-17.218-50.687-3.079C13.578,248.173,19.342,232.774,63.512,249.707z"/>
<path id="path34" fill="none" stroke="#231F20" d="M61.291,253.187c0,0,1.374,0.86,0.956,1.427
	c-0.419,0.564-42.103-11.586-50.632,3.857C11.614,258.473,15.224,242.432,61.291,253.187z"/>
<path id="path38" fill="none" stroke="#231F20" d="M70.463,253.71c0,0,0.958,1.309,0.358,1.68
	c-0.601,0.372-34.836-26.328-48.475-15.131C22.35,240.258,31.634,226.689,70.463,253.71z"/>
<path id="path42" fill="none" stroke="#231F20" d="M53.562,228.974c0,0,0.513,1.538-0.171,1.709
	c-0.683,0.171-25.122-35.717-41.528-29.224C11.862,201.459,24.851,191.377,53.562,228.974z"/>
<path id="path46" fill="none" stroke="#231F20" d="M54.155,234.938c0,0,0.833,1.392,0.202,1.706
	c-0.631,0.314-32.233-29.459-46.853-19.579C7.504,217.064,18.012,204.417,54.155,234.938z"/>
<path id="path50" fill="none" stroke="#231F20" d="M54.057,238.671c0,0,0.959,1.309,0.36,1.68
	c-0.6,0.371-34.837-26.329-48.474-15.131C5.944,225.22,15.227,211.65,54.057,238.671z"/>
<path id="path54_1_" fill="none" stroke="#231F20" d="M52.169,240.138c0.43,5.167,1.272,10.78,2.76,13.446
	c0,0-3.076,10.596,4.442,21.875c0,0-0.342,6.151,1.025,8.887c0,0,3.417,7.178,7.52,7.861c3.318,0.553,10.772,3.176,19.199,4.375
	c0,0,14.639,12.03,11.904,22.968c0,0-0.342,14.015-3.418,15.38c0,0,9.912-9.567,1.709,4.786l-3.76,16.064
	c0,0,21.875-18.457,8.545-2.734l-8.545,22.216c0,0,16.748-15.723,10.595-8.545l-2.733,7.52c0,0,36.913-23.239,10.595,2.053
	c0,0,6.836-3.075,10.596-0.686c0,0,5.811-1.023,5.127,0.344c0,0-17.772,8.887-20.85,24.607c0,0,7.177-8.545,4.442,0.687l0.342,9.911
	c0,0,3.418-18.459,3.077,13.672c0,0,16.405-15.381,6.493,2.393v14.354c0,0,12.988-14.015,7.521-3.074c0,0,8.544-7.521,5.126,5.469
	c0,0-0.683,8.887,3.076-0.684c0,0,13.672-26.146,8.545-3.762c0,0-0.685,16.406,3.418,3.762c0,0,0.342,8.887,8.203,15.037
	c0,0-1.025-43.406,9.912-12.646l3.417,14.015c0,0,2.393-7.859,2.051-12.306c0,0,12.646-14.014,6.836,6.836
	c0,0,12.988-19.479,10.253-8.203c0,0-6.494,13.673-5.127,17.774c0,0,14.354-29.736,15.381-31.104c0,0-1.709,36.23,7.521,5.47
	c0,0,4.784,10.255,2.393,14.015c0,0,6.836-6.835,6.152-9.57c0,0,3.931-7.007,6.322,4.615c0,0,1.538,8.031,2.904,5.297
	c0,0,3.418,20.509,4.444,1.025c0,0,1.367-11.62-4.785-21.532c0,0,0.684-2.734-1.709-6.153c0,0,11.621,18.457,5.469-6.149
	c0,0,9.571,6.836,10.597,6.836c0,0-11.621-19.823-4.104-15.725c0,0-4.443-8.888,10.938,1.367c0,0-13.673-13.672,1.367-5.469
	c0,0,6.836,5.469,0.343-3.077c0,0-12.306-13.671,6.493,1.71c0,0,9.912,14.014,10.597,16.406c0,0-8.545-24.951-12.306-27.344
	c0,0,7.178-31.104,42.383-17.773c0,0,5.81,14.696,9.569-1.025c0,0,10.938-5.469,20.508,18.115c0,0,3.417-11.621,2.732-14.014
	c0,0,5.813,1.025,5.128,0c0,0,11.278,3.759,12.304,3.077c0,0,5.812,5.81,6.152,2.731c0,0,7.86,2.395,6.151-0.684
	c0,0,7.521,13.33,7.861,16.406l2.052-11.965l1.708,2.396c0,0,1.367-6.496,0.685-7.521c-0.685-1.024,17.09,5.812,21.189,23.584
	l1.709,7.178c0,0,5.128-12.646,3.762-16.063c0,0,4.44,0.688,4.784,4.443c0,0,3.418-19.825-0.686-24.951c0,0,3.76-0.683,4.787,2.394
	v-6.151c0,0,6.148,0.684,6.148-1.366c0,0,3.762-3.418,5.471,0.684c0,0-10.597-30.077,5.127-13.672c0,0,6.15,9.229,3.075-6.837
	c-3.075-16.062-6.493-17.432-2.394-17.771c0,0,0.685-3.076-1.024-4.443s1.024,0,1.024,0s4.103,3.418-0.342-15.381
	c0,0,5.469,1.367-4.785-23.583c0,0,2.394-2.051-1.024-9.229c0,0,6.836,3.761,9.229,2.394c0,0-0.345-1.367-3.076-4.785
	c0,0-18.457-46.827-1.025-28.026c0,0,10.127,11.577,4.656-7.905c0,0-7.784-20.516-7.119-24.188"/>
<path id="path58_1_" fill="none" stroke="#231F20" d="M419.209,220.639c0.535,0.155,2.421,1.115,3.488,2.525
	c0,0,5.811,9.229,1.367-6.494c0,0-7.861-24.609-0.342-15.04c0,0,5.127,6.152,2.392-5.468c-3.304-14.037-5.47-19.482-5.47-19.482
	s9.914,4.102-12.987-29.735l7.521,3.076c0,0-16.748-33.837-35.205-38.281l-6.836-5.127c0,0,32.813-32.47,21.875-63.915
	c0,0-5.812-4.443-14.015,3.418c0,0-5.468,4.101-10.596,2.734c0,0-26.317,1.025-28.027,1.025c-1.709,0-31.444-31.787-87.497-16.748
	c0,0-4.443,1.708-8.203,0.684c0,0-15.724-13.672-57.422,5.81c0,0-8.545,1.709-9.912,1.709s-3.76,0-10.596,5.469
	c-6.836,5.468-7.178,6.152-8.887,7.519c0,0-14.013,9.57-18.114,10.253c0,0-9.912,5.469-13.673,14.014l-3.075,1.026
	c0,0-1.367,6.152-1.709,7.177c0,0-4.103,3.077-4.785,7.861c0,0-7.52,5.126-7.177,8.886c0,0-1.367,4.444-2.052,8.545
	c0,0-6.151,4.102-5.468,6.494c0,0-6.494,11.963-5.469,17.773c0,0-5.469-0.341-7.861,1.709c0,0-0.684,4.102-2.051,4.444
	c0,0-2.394,1.025-0.341,4.443c0,0-1.368,2.393-1.709,3.759c0,0,0.684,2.393-3.076,7.177c0,0-5.469,16.065-3.76,20.508
	c0,0,0.342,4.101-2.052,5.469c0,0-3.075-0.342,4.103,9.912c0,0,0.684,1.025-2.051,3.076c0,0-14.697,3.076-16.748,17.089
	c0,0-11.621,12.646-11.621,17.09c0,1.969,0.23,4.658,0.829,8.601c0,0-0.487,7.123,23.096,7.806"/>
<path id="path110" fill="none" stroke="#231F20" stroke-miterlimit="10" d="M99.703,279.901c0,0-6.152,9.912,11.621,21.192
	c0,0,1.195,1.195-14.188-2.394c0,0-5.298-1.709-6.665-10.596c0,0-4.101-3.759-8.203-8.545
	C78.171,274.775,99.703,279.901,99.703,279.901z"/>
<path id="path114" fill="none" stroke="#231F20" stroke-miterlimit="10" d="M219.331,239.228c0,0,15.122,22.918,14.61,27.002
	c-1.11,8.888-1.281,17.091,1.453,20.509c2.735,3.418,10.254,31.786,10.254,31.786s-0.341,1.023,10.254-31.444
	c0,0,9.912-13.672-7.178-29.395C248.725,257.686,218.647,233.076,219.331,239.228z"/>
<path id="path118_3_" fill="none" stroke="#231F20" stroke-miterlimit="10" d="M138.67,353.388
	c-3.418-5.468-9.571-2.05-8.887-17.771l-7.521,2.732c0,0,4.785-7.52,4.785-12.986l-6.836,2.051c0,0,13.218-22.71,4.102-23.926
	c-5.128-0.686-7.52-0.686-7.52-0.686s9.569,6.152-2.735,32.813l5.469-2.052c0,0-0.686,9.57-3.417,11.621l6.15-2.733
	c0,0,4.104,6.836,0.686,10.937"/>
<path id="path118_2_" fill="none" stroke="#231F20" stroke-miterlimit="10" d="M136.619,365.693"/>
<path id="path122" fill="none" stroke="#231F20" stroke-miterlimit="10" d="M144.478,317.157c0,0,2.393-3.759,0-3.076
	c-2.393,0.685-29.053,13.33-34.18,21.533C110.299,335.614,139.693,314.766,144.478,317.157z"/>
<path id="path126" fill="none" stroke="#231F20" stroke-miterlimit="10" d="M153.365,323.993c0,0,2.392-3.761,0-3.077
	c-2.396,0.686-29.053,13.331-34.18,21.534C119.185,342.45,148.579,321.602,153.365,323.993z"/>
<path id="path130" fill="none" stroke="#231F20" stroke-miterlimit="10" d="M164.644,311.005c0,0,2.394-3.759,0-3.076
	c-2.393,0.686-29.052,13.331-34.179,21.533C130.465,329.462,159.859,308.612,164.644,311.005z"/>
<path id="path134" fill="none" stroke="#231F20" stroke-miterlimit="10" d="M144.82,348.261c0,0,0-5.126-2.394-4.444
	c-2.393,0.686-33.154,15.725-38.281,23.928C104.146,367.742,140.034,345.867,144.82,348.261z"/>
<path id="path138" fill="none" stroke="#231F20" stroke-miterlimit="10" d="M145.845,339.032c0,0,1.025-4.104-1.367-3.418
	c-1.709,0-24.268,9.911-29.395,18.114C115.084,353.729,140.377,335.273,145.845,339.032z"/>
<path id="path142_1_" fill="none" stroke="#231F20" stroke-miterlimit="10" d="M133.541,379.705l-8.545,6.494
	c0,0,8.886-6.494,11.962-5.469c0,0-5.811,9.568-6.494,14.014c0,0,8.887-10.938,13.672-10.596c0,0,6.494,0.342,6.494,9.568
	c0,0,4.785-8.887,7.52-8.546c0,0,1.026,5.472,0,11.28c0,0,3.418-6.494,6.836-5.128c0,0,5.469-1.708,4.785,8.205
	c0,0,0,8.886-0.684,11.275c0,0,4.786-22.559,6.836-22.897c0,0,6.836-1.025,10.938,6.492c0,0-3.418-6.492,0.685-4.783
	c0,0,9.229,1.365,11.962,7.178c0,0-5.811-10.254-1.025-7.521c0,0,5.812,0,6.836,5.471c0,0,7.179,18.113,8.888,19.48
	c0,0-6.494-18.457-5.126-18.457c0,0-1.709-10.255,2.733,2.394c0,0-2.733-11.963,2.051-11.279c4.785,0.685,8.546,9.229,15.723,7.179
	c0,0,8.204,4.784,9.913-54.346"/>
<path id="path146" fill="none" stroke="#231F20" stroke-miterlimit="10" d="M137.642,300.409c0,0,12.646-5.127,46.825,0
	c0,0,6.152,0.342,11.962-7.177c5.813-7.521,28.71-13.673,34.18-11.964l8.204,5.47l0.685,1.021c0,0,10.596,8.888,10.938,15.381
	c0.342,6.494-12.304,47.509-20.509,61.182c-8.203,13.671-16.406,24.267-32.812,22.216c0,0-17.772-3.418-39.647,0
	c0,0-24.95-1.368-27.343-8.203s9.569-19.824,9.569-19.824s3.761-7.177,2.732-19.479
	C141.401,326.729,141.744,302.803,137.642,300.409z"/>
<path id="path150" fill="none" stroke="#231F20" stroke-miterlimit="10" d="M156.441,302.118
	c7.178,15.723-18.114,71.435-18.114,71.435c-1.708,1.368,10.817,6.533,19.481,4.443c9.354-2.254,43.75,1.368,43.75,1.368
	c20.166-13.33,31.104-51.271,31.104-51.271s8.887-20.508-6.152-23.242C211.469,302.118,156.441,302.118,156.441,302.118z"/>
<path id="path158_1_" fill="none" stroke="#231F20" stroke-miterlimit="10" d="M200.529,361.59c0,0,2.029-0.685,2.393-4.101
	c0.427-4.019,3.076-7.179,4.785-8.888s9.912-12.646,8.886-12.987c-1.021-0.341-58.102,6.836-58.102,6.836s1.709,6.151-0.343,9.569
	c0,0-1.366,0.685-2.393,1.024c0,0,1.026,3.076,6.152,4.443c0,0,1.709,3.759,3.76,4.101c2.051,0.343,6.151,5.127,9.569,4.104"/>
<path id="path162_1_" fill="none" stroke="#231F20" d="M195.404,357.489c0,0,7.687,1.146,10.597-11.622c0,0,4.101-5.469,10.253-7.86
	c6.152-2.393,12.305-37.938,8.886-44.774c-3.417-6.837-15.722-10.596-29.394,2.733c-13.671,13.33-15.38-1.025-41.014,5.128
	c0,0-2.393,19.142,0.343,26.317c2.734,7.177,2.051,8.887,1.366,12.305c-0.684,3.419,3.076,11.962,7.861,17.089l10.253,1.368"/>
<path id="path166" fill="none" stroke="#231F20" d="M156.099,365.009c0,0-0.684-1.71-4.443-2.052c0,0-19.14-3.075-26.317-13.671
	c0,0-5.812-4.786-2.051,5.127c0,0,8.886,17.431,14.696,19.823C137.984,374.236,151.997,377.655,156.099,365.009z"/>
<path id="path170_1_" fill="none" stroke="#231F20" stroke-miterlimit="10" d="M186.517,316.475c0,0,1.367-2.733,9.229-2.733
	c7.863,0,27.295-1.002,28.661-3.396c0.562-6.756,2.229-14.116,0.73-17.113c-5.507-11.019-20.011-6.414-29.394,2.733
	c-13.672,13.33-15.381-1.024-41.016,5.128c0,0-1.49,11.932-0.772,20.485"/>
<path id="path174" fill="none" stroke="#231F20" d="M187.544,301.777c0,0,4.102,4.101,1.024,12.304c0,0-12.306,13.672-10.597,25.635
	"/>
<path id="path178" fill="none" stroke="#231F20" d="M146.529,374.236c0,0-3.76-10.938,3.76-5.127c0,0,4.102,1.709,3.075,3.076
	C152.339,373.553,147.554,376.971,146.529,374.236z"/>
<path id="path182" fill="none" stroke="#231F20" d="M150.835,375.262c0,0-3.007-8.75,3.007-4.102c0,0,3.778,2.092,2.462,2.461
	C152.407,374.715,156.304,376.902,150.835,375.262z"/>
<path id="path186" fill="none" stroke="#231F20" d="M154.937,375.262c0,0-3.007-8.75,3.008-4.102c0,0,3.738,1.974,2.461,2.461
	C157.534,374.715,160.406,376.902,154.937,375.262z"/>
<path id="path190" fill="none" stroke="#231F20" d="M160.576,375.434c0,0-3.009-8.75,3.008-4.103c0,0,3.745,1.993,2.461,2.46
	C163.516,374.715,166.046,377.073,160.576,375.434z"/>
<path id="path194" fill="none" stroke="#231F20" d="M166.114,375.364c0,0-3.008-8.75,3.009-4.104c0,0,3.28,1.367,2.461,2.464
	C170.763,374.816,171.583,377.005,166.114,375.364z"/>
<path id="path198" fill="none" stroke="#231F20" d="M171.821,375.945c0,0-4.103-10.596,3.761-5.127c0,0,4.102,1.709,3.076,3.076
	C177.631,375.261,178.657,377.996,171.821,375.945z"/>
<path id="path202" fill="none" stroke="#231F20" d="M147.554,361.248c0,0,11.278-2.393,16.405,0.342c0,0,5.127,1.026,6.152,0.684
	c1.023-0.34,3.761-0.684,3.761-0.684"/>
<path id="path206_2_" fill="none" stroke="#231F20" d="M197.114,360.908c5.995,2.197,5.128-0.687,5.812-3.077
	c0.685-2.392,0.854-5.979,5.126-8.544"/>
<path id="path206_1_" fill="none" stroke="#231F20" d="M176.606,368.77"/>
<path id="path210" fill="none" stroke="#231F20" d="M191.303,355.096c0,0-3.418-9.229-5.811,1.709
	c-2.395,10.938-5.126,14.016-6.493,16.407c0,0,0,4.443,7.177,4.101c0,0,9.229-0.342,9.57-2.732
	C196.089,372.186,194.721,362.273,191.303,355.096z"/>
<path id="path214" fill="none" stroke="#231F20" d="M203.266,361.248c0,0,3.076-2.05,5.127-1.025"/>
<path id="path218" fill="none" stroke="#231F20" d="M208.82,347.234c0,0,2.479-4.188,6.58-4.869"/>
<path id="path222" fill="none" stroke="#231F20" stroke-miterlimit="10" d="M141.06,378.68c0,0,15.38,2.734,19.141,1.367
	c0,0,7.52,0,0.342,1.709c0,0-10.938,0-17.773-1.023C142.769,380.73,132.857,375.945,141.06,378.68z"/>
<path id="path226" fill="none" stroke="#231F20" d="M153.023,299.042c0,0,15.039,0,16.748,0.684c0,0,6.153,26.318,3.076,32.813
	c0,0-1.023,2.392-3.417-2.393c0,0-15.723-28.027-18.457-29.736C148.238,298.7,151.997,299.042,153.023,299.042z"/>
<path id="path230" fill="none" stroke="#231F20" d="M87.142,296.735c0,0,7.604,1.452,18.371,3.674c0,0,4.104,19.141,6.836,23.241
	c2.734,4.102-0.342,4.103-3.417,1.709c-3.076-2.393-15.723-14.354-17.432-18.113C89.791,303.485,87.142,296.735,87.142,296.735z"/>
<path id="path234" fill="none" stroke="#231F20" d="M105.823,300.595c0,0,4.956,1.323,5.818,3.216
	c0.86,1.892-1.028,4.708-1.028,4.708s-0.854,2.822-1.881,0.978C107.705,307.646,105.251,301.103,105.823,300.595z"/>
<path id="path238" fill="none" stroke="#231F20" stroke-miterlimit="10" d="M105.856,300.409c0,0,3.076,4.443,6.152,4.443
	s3.403-0.353,5.813,0.171c3.932,0.854,3.589-0.854,9.229,0.171c2.255,0.41,4.442-0.342,6.835,0.684
	c2.395,1.024,5.127,0.342,6.152-1.367c1.025-1.708,5.127-5.297,5.127-5.297s-10.938,1.537-13.33,2.221
	C131.832,301.435,112.692,302.46,105.856,300.409z"/>
<path id="path242" fill="none" stroke="#231F20" d="M143.965,300.58c0,0-5.511,2.992-5.854,5.042
	c-0.342,2.05,4.484,5.212,4.484,5.212s2.351,3.931,2.862,1.88C145.973,310.664,144.649,300.923,143.965,300.58z"/>
<path id="path246" fill="none" stroke="#231F20" d="M111.935,305.25c0,0,5.987,9.561,6.173-0.021c0,0,0.477-1.075-1.027-1.093
	C111.889,304.071,113.189,300.565,111.935,305.25z"/>
<path id="path250" fill="none" stroke="#231F20" d="M118.069,305.463c0,0,6.77,9.559,6.226-0.08c0,0,0.006-0.284-1.491-0.415
	C118.745,304.614,119.04,300.754,118.069,305.463z"/>
<path id="path254" fill="none" stroke="#231F20" d="M124.232,305.469c0,0,6.802,9.081,6.23,0.822c0,0,0.102-1.054-1.312-1.312
	C125.825,304.377,125.644,301.601,124.232,305.469z"/>
<path id="path258" fill="none" stroke="#231F20" d="M130.108,305.537c0,0,6.75,9.879,7.047,1.521c0,0,1.404-1.179-0.087-1.369
	C132.097,305.06,132.778,301.253,130.108,305.537z"/>
<path id="path262" fill="none" stroke="#231F20" stroke-miterlimit="10" d="M99.198,308.553l-6.543-1.307
	c-2.222-4.273-4.018-9.528-4.018-9.528s5.426,0.854,16.107,3.247c0,0,0.748,2.835,2.006,7.787L99.198,308.553z"/>
<path id="path266" fill="none" stroke="#231F20" stroke-miterlimit="10" d="M154.797,304.57c-1.423-2.144-2.549-3.646-3.104-3.99
	c-2.574-1.609,0.966-1.287,1.931-1.287c0,0,14.16,0,15.769,0.643c0,0,0.448,1.916,1.032,4.813
	C170.423,304.749,161.803,303.032,154.797,304.57z"/>
<path id="path294_1_" fill="none" stroke="#231F20" stroke-miterlimit="10" d="M240.523,154.463c0,0-23.756,6.494-33.667,5.127
	c0,0-13.501-5.64-21.02,12.988c0,0-3.076,6.153-4.785,7.861"/>
<path id="path298" fill="none" stroke="#231F20" stroke-miterlimit="10" d="M243.769,152.583c0,0-24.781,10.425-33.325,10.083
	c0,0-14.016-3.931-21.19,8.544c0,0-7.178,7.862-9.912,9.229c0,0-0.342,1.367,5.126-2.05l8.886,4.443c0,0,12.647,8.204,20.851-5.469
	c0,0,3.418-9.57,3.418-11.279s18.114-6.494,19.482-6.836C238.471,158.907,244.111,155.318,243.769,152.583z"/>
<path id="path302" fill="none" stroke="#231F20" stroke-miterlimit="10" d="M203.266,183.271c-5.871,0-13.025-3.303-13.025-8.642
	s7.154-10.692,13.025-10.692c5.875,0,10.635,4.328,10.635,9.667S209.14,183.271,203.266,183.271z"/>
<path id="path310" fill="none" stroke="#231F20" stroke-miterlimit="10" d="M210.444,168.818c0,0-3.76-2.734-3.76-0.854
	C206.684,167.964,209.76,171.724,210.444,168.818z"/>
<path id="path314" fill="none" stroke="#231F20" stroke-miterlimit="10" d="M201.899,175.762c-2.135,0-3.865-1.729-3.865-3.867
	c0-2.135,1.729-3.866,3.865-3.866c2.138,0,3.868,1.731,3.868,3.866C205.766,174.031,204.035,175.762,201.899,175.762z"/>
<path id="path342" fill="none" stroke="#231F20" stroke-miterlimit="10" d="M109.53,157.369c0,0-18.457-8.716-19.228-9.399
	c0,0,7.775,7.007,8.459,7.007C99.447,154.976,109.53,157.369,109.53,157.369z"/>
<path id="path346" fill="none" stroke="#231F20" stroke-miterlimit="10" d="M94.919,152.071c0,0,15.722,3.076,15.722,6.836
	c0,2.488-0.208,13.954-4.785,12.646C98.677,169.502,101.754,157.198,94.919,152.071z"/>
<path id="path350" fill="none" stroke="#231F20" stroke-miterlimit="10" d="M102.096,155.318c0,0,7.672,1.26,8.544,3.589
	c0.515,1.367,1.08,8.466-3.588,9.399C103.163,169.084,101.257,160.351,102.096,155.318z"/>
<path id="path354" fill="none" stroke="#231F20" stroke-miterlimit="10" d="M175.576,191.675c-0.425-1.488,0.695-1.376,2.226-1.836
	c1.709-0.513,12.134-3.76,12.817-5.981c0.684-2.222,11.963,1.538,11.963,1.538c1.538,0.683,5.298,2.905,5.298,2.905
	c4.101,1.025,9.741,1.367,9.741,1.367c2.051,0.854,4.956,3.247,4.956,3.247c12.476,8.715,23.071,2.563,23.071,2.563
	c17.09-5.64,11.963-20.337,11.963-20.337c-2.563-7.69,0.172-10.595,0.172-10.595c0.17-3.247,6.322,2.222,6.322,2.222
	c2.223,3.588,2.905,7.861,2.905,7.861c6.835,9.57,3.931-5.64,3.931-5.64c0.171-0.854-2.222-3.931-2.222-4.956
	c0-1.025-1.538-3.931-1.538-3.931c-2.563-2.905-0.513-8.887-0.513-8.887c1.538-11.792-0.342-10.253-0.342-10.253
	c-1.026-1.538-8.888,7.006-8.888,7.006c-1.879,2.906-7.006,4.272-7.006,4.272c-2.393,1.538-5.298,0.342-5.298,0.342
	c-2.222-0.342-7.006,5.64-7.006,5.64c2.393-0.171,4.442,3.588,6.494,3.76c2.051,0.171,3.589-2.051,4.956-2.564
	c1.366-0.512,3.76,4.444,3.76,4.444c0.341,2.222-4.443,6.323-4.443,6.323c-0.342,3.931-1.709,2.563-1.709,2.563
	c-2.562-0.512-3.588,2.735-4.442,6.665c-0.855,3.931-4.443,4.272-4.443,4.272c-1.368,6.323-2.394,3.76-2.394,3.76
	c-0.172-4.785-5.299,0.171-5.299,0.171c-1.024,1.709-4.956-0.171-4.956-0.171c-5.813-1.709-3.76-3.418-3.76-3.418
	c1.538-1.88,11.108,0,11.108,0c1.88-1.367-4.956-4.785-4.956-4.785c-0.513-1.539,0.342-5.298,0.342-5.298
	c1.025-2.735,6.836-7.52,6.836-7.52c8.033-1.026,5.643-2.393,5.643-2.393c-5.299-4.443-10.255,2.051-10.255,2.051
	c-1.88,5.298-16.748,18.115-16.748,18.115c-4.104,2.906-1.88-2.905-5.298,0c-3.418,2.906-21.021-4.785-21.021-4.785
	c-9.88-1.019-12.214,12.432-15.229,9.766C172.314,189.18,176.944,196.46,175.576,191.675z"/>
<path id="path362" fill="none" stroke="#231F20" stroke-miterlimit="10" d="M388.706,48.687c0,0,1.795-7.63-2.341-3.495
	c0,0-6.015,4.888-12.408,4.888c0,0-12.405,1.88-16.166,13.159c0,0-3.384,22.935,3.384,27.822c0,0,4.136,6.392,10.15,0.752
	C377.341,86.173,390.588,60.342,388.706,48.687z"/>
<path id="path386" fill="none" stroke="#231F20" stroke-miterlimit="10" d="M206.342,223.847c0,0-17.431-16.406-24.267-17.089
	c0,0-29.396-3.418-42.041,11.962c0,0,15.038-17.431,38.623-12.646c0,0-18.457-3.76-29.053-1.025c0,0-14.355,0-22.559,11.962
	l-2.393,4.103c0,0,3.417-12.646,19.141-17.773c0,0,19.481-4.102,28.711,0c0,0-18.458-5.811-27.002-4.102
	c0,0-25.977-2.05-36.914,20.508c0,0,3.418-12.305,16.064-18.457c0,0,11.621-7.52,29.053-5.127c0,0,12.305,2.734,16.748,4.785
	c4.443,2.051,3.418-0.342-3.761-4.443c0,0-4.784-8.545-16.748-8.203c0,0-36.571,3.076-45.458,13.33c0,0,11.621-9.57,20.508-11.962
	c0,0,19.141-6.836,26.317-6.152c0,0,21.191,0.854,27.686-2.563c0,0-9.57,4.272-6.836,7.007c2.734,2.734,8.545,9.229,8.545,10.254
	c0,1.025,20.679,19.909,23.754,23.669L206.342,223.847z"/>
<path id="path390" fill="none" stroke="#231F20" stroke-miterlimit="10" d="M324.602,389.616c0,0-13.244-31.188-23.925-39.308
	c0,0,22.217,13.674,25.208,29.054C325.885,379.362,325.885,387.907,324.602,389.616z"/>
<path id="path394" fill="none" stroke="#231F20" stroke-miterlimit="10" d="M364.762,396.023c0,0-22.645-46.994-38.451-67.504
	c0,0,37.171,32.045,41.442,54.688l0.427,4.699l-2.563-2.137C365.616,385.771,365.191,393.461,364.762,396.023z"/>
<path id="path398" fill="none" stroke="#231F20" stroke-miterlimit="10" d="M413.04,354.582c0,0-53.403-50.842-54.687-52.977
	c0,0,51.697,56.396,54.26,62.804C412.614,364.409,410.906,356.719,413.04,354.582z"/>
<path id="path402" fill="none" stroke="#231F20" stroke-miterlimit="10" d="M251.971,391.752c0,0,16.663-44.433,32.897-25.206
	c0,0,12.816,8.544,12.39,11.108c0,0-3.418-5.555-18.799-5.128C278.46,372.525,262.225,369.964,251.971,391.752z"/>
<path id="path406" fill="none" stroke="#231F20" stroke-miterlimit="10" d="M414.75,282.807c0,0-38.452-24.353-44.86-25.635
	c-10.088-2.017,42.297,24.78,46.569,33.752C416.459,290.924,418.169,288.788,414.75,282.807z"/>
<path id="path410" fill="none" stroke="#231F20" stroke-miterlimit="10" d="M285.981,373.895c0,0,17.433-1.709,23.242-7.52
	l3.761,3.076l15.038-32.813l3.076,4.444c0,0,12.304-12.646,11.622-19.482c-0.686-6.836,10.938,5.127,10.938,5.127
	s-0.687-9.91,5.468-4.103c0,0-2.05-13.329,5.128-6.493c0,0-9.005-25.769,10.255-3.76c4.783,5.469,1.024-0.342,1.024-0.342
	s-22.218-41.018-3.761-28.71c0,0,1.709-19.482,0.685-23.242c-1.025-3.76-2.734-22.901-6.837-27.344
	c-4.101-4.443,0.343-5.811,5.128-1.368c0,0-9.57-20.507,1.709-10.253c0,0-3.075-12.988-6.837-15.38c0,0-4.784-14.697,8.203-5.469
	c0,0-3.76-10.596-6.493-13.33c0,0-9.913-23.584-3.761-19.482l3.761,3.076c0,0-5.811-11.963-0.343-8.203
	c5.47,3.76,5.47,3.417,5.47,3.417s-18.114-28.369-0.685-13.329c0,0-6.972-11.893-9.912-17.773c0,0-16.062-17.432-3.76-11.963
	l4.104,1.367c0,0-7.521-8.545-14.354-9.912c-6.836-1.367,2.051-6.836,7.521-5.127c5.468,1.709,18.798,8.203,18.798,8.203
	s10.938,16.064,14.355,16.406c0,0-17.09-6.494-11.963,0.342c0,0,12.305,11.962,6.152,11.621c0,0-5.128,6.153-1.025,13.672
	c0,0-15.773-15.715-3.076,6.152l5.812,14.014c0,0-20.851-21.191-11.279-2.393c0,0,14.697,20.166,16.407,20.507
	c1.709,0.342,5.468,7.861,5.468,7.861l-3.759-1.708l4.441,7.52c0,0-9.569-10.254-4.441,1.025l4.783,12.305
	c0,0-17.432-18.798-5.811,6.494c0,0-14.013-4.443-6.494,10.253c0,0-1.366,13.672-1.024,18.117c0.341,4.443,1.367,28.71-2.394,35.547
	c-3.76,6.836,5.127,23.242,6.836,26.66c1.708,3.418,4.784,12.646-2.733,4.785c-7.521-7.859-3.76-3.076-2.051,4.442
	c1.709,7.518,6.835,20.849,6.151,25.635c0,0-1.025,1.025-3.761-2.051c0,0-12.646-19.483-11.278-7.179c0,0-1.023,6.837-3.76,14.354
	c0,0-2.733,9.229-2.733,1.709c0,0-2.733-14.354-5.127-7.859c-2.393,6.494-5.469,11.621-7.861,13.672
	c-2.392,2.051-6.836-17.434-7.859-8.545c0,0-10.254-10.597-14.354,3.418l-9.912,14.014c0,0-0.342-10.596-1.367-5.469
	C320.501,372.527,294.867,377.655,285.981,373.895z"/>
<path id="path414" fill="none" stroke="#231F20" stroke-miterlimit="10" d="M256.586,69.016c0,0-9.912-6.836-13.33-6.494
	s23.584-7.52,58.788,16.064c0,0,4.102,2.393,7.178,2.051c0,0,2.733,2.05,0.342,5.126c0,0-7.521,8.203,2.05,17.773
	c0,0,15.724,5.811,10.938-1.708c0,0,9.229,3.417,11.278,6.836c2.052,3.417,1.026,0,1.026,0s-5.471-6.152-10.597-10.596
	c0,0-4.443-1.709-6.836-8.887c-2.394-7.177-4.442-15.722-0.685-18.457c0,0-3.418,3.76-2.733,0.342
	c0.685-3.418,3.76-6.495,5.127-6.836c1.365-0.342,15.38-13.843,21.19-14.184c0,0-7.86,1.196-10.425,0.341
	c-2.563-0.855-25.293-10.595-30.419-11.621c0,0-14.354-5.639-4.102-3.931c0,0,30.59,3.247,46.141,14.526
	c0,0-6.152-7.177-21.875-13.159c0,0-18.969-10.767-49.046-6.494c0,0-15.21,2.734-21.875,4.272c0,0-2.222-0.512-2.733-0.854
	c-0.514-0.342-10.598-8.032-34.182-2.051c0,0-14.525,3.931-21.875,8.032c0,0-12.988,1.026-16.063,3.76
	c0,0-15.895,12.475-17.604,13.159s-11.45,7.178-12.133,7.52c0,0,21.021-5.64,23.071-7.691c2.051-2.05,16.919-4.272,18.969-3.076
	c2.051,1.196,9.228,0.684,1.025,1.196c0,0,64.599,12.646,65.282,14.355C253.169,70.041,256.586,69.016,256.586,69.016z"/>
<path id="path418" fill="none" stroke="#231F20" stroke-miterlimit="10" d="M317.596,61.154c0,0-8.716-6.323-10.425-6.323
	s-12.304-8.715-15.895-8.374c-3.588,0.342-14.015-8.203-37.425-1.196c0,0-0.513-1.709,2.563-2.393c0,0,5.469-1.88,5.81-2.393
	c0,0,17.261-3.589,23.413-0.513c0,0,7.861,2.222,13.159,7.519c0,0,9.569,2.735,12.306,1.88c0,0,7.519,1.88,7.861,3.418
	c0,0,4.955,2.563,3.417,4.785C322.382,57.565,322.723,58.933,317.596,61.154z"/>
<path id="path422" fill="none" stroke="#231F20" stroke-miterlimit="10" d="M306.94,59.353c0.69,0.54,1.562,0.624,2.077,1.315
	c0.201,0.268-0.046,0.546-0.316,0.629c-0.89,0.271-1.792-0.216-2.768,0.286c-0.344,0.177-0.893,0.021-1.365-0.105
	c-1.394-0.377-2.957-0.398-4.401,0.189c-1.696-0.965-3.713-0.466-5.491-1.321c-0.05-0.023-0.239,0.273-0.302,0.25
	c-2.604-0.978-5.802-0.736-7.878-2.688c-2.075-0.352-4.09-0.747-6.164-1.328c-1.554-0.435-2.757-1.28-4.143-1.991
	c-1.176-0.605-2.422-1.051-3.731-1.369c-1.593-0.386-3.157-0.291-4.774-0.735c-0.08-0.022-0.244,0.272-0.312,0.25
	c-0.277-0.093-0.524-0.591-0.671-0.546c-1.438,0.446-2.708-0.384-4.13-0.092c-1.007-1.046-2.482-0.836-3.804-1.214
	c-2.533-0.724-5.228,0.361-7.816-0.495c3.515-1.574,7.52-0.521,10.989-2.289c1.989-1.014,4.265-0.072,6.46-0.721
	c0.416-0.123,1.008-0.295,1.35,0.276c0.113-0.116,0.27-0.32,0.318-0.296c2.095,0.988,4.071,2.077,6.19,2.988
	c0.292,0.125,0.746-0.074,0.961,0.099c1.299,1.039,2.959,0.951,4.148,1.993c1.45-0.429,2.982-0.104,4.46-0.637
	c0.065-0.023,0.266,0.268,0.294,0.249c0.966-0.639,1.953-0.407,2.715-0.147c0.289,0.098,0.854,0.309,1.116,0.373
	c0.962,0.236,1.693,0.646,2.7,0.802c0.098,0.016,0.257-0.274,0.315-0.251c0.959,0.375,1.852,0.327,2.411,1.321
	c0.115-0.116,0.256-0.319,0.326-0.295c0.878,0.289,1.432,0.934,2.373,1.14c0.415,0.09,0.937,0.625,1.43,0.776
	c2.043,0.625,3.619,1.931,5.493,2.696C305.651,58.729,306.399,58.928,306.94,59.353z"/>
<path id="path426" fill="none" stroke="#231F20" stroke-miterlimit="10" d="M241.458,47.193c-2.152-1.474-4.175-2.419-6.263-3.945
	c-0.154-0.114-0.462,0.032-0.635-0.073c-0.86-0.52-1.619-1.017-2.458-1.611c-0.46-0.327-1.163-0.317-1.597-0.537
	c-2.173-1.104-4.42-1.581-6.562-2.602c0.583-0.545,1.542-0.336,2.051-1.025c0.167,0.239,0.371,0.481,0.672,0.318
	c1.433-0.772,3.014-0.903,4.446-0.826c1.456,0.079,2.926,0.339,4.44,0.572c0.263,0.04,0.435,0.487,0.708,0.57
	c1.904,0.567,3.945,0.118,5.756,0.834c1.359,0.538,2.701,1.241,3.76,2.33c0.216,0.222-0.063,0.479-0.302,0.645
	c0.332-0.093,0.564,0.083,0.66,0.351c0.072,0.204,0.072,0.462,0,0.667c-0.096,0.267-0.334,0.353-0.653,0.396
	c-1.203,0.163,0.312-1.017-0.287-0.634c-1.088,0.696-0.449,1.897-1.087,2.98c-0.238-0.166-0.436-0.352-0.342-0.684
	c0.2,0.446-0.313,0.694-0.458,0.964C242.982,46.502,242.214,47.711,241.458,47.193z"/>
<path id="path430" fill="none" stroke="#231F20" stroke-miterlimit="10" d="M213.689,53.472c-2.694-0.679-5.301-0.581-7.878-1.67
	c-0.058-0.024-0.249,0.272-0.303,0.249c-1.167-0.507-1.951-1.333-2.871-2.227c-0.78-0.759-2.197-0.428-3.286-0.844
	c-0.276-0.106-0.451-0.543-0.707-0.577c-1.042-0.134-1.834-0.945-2.727-1.433c1.996-0.679,4.056-0.653,6.16-0.98
	c0.097-0.015,0.221,0.259,0.334,0.259c0.116,0,0.228-0.189,0.342-0.303c0.167,0.239,0.425,0.518,0.645,0.301
	c0.467-0.461,0.943-0.299,1.404-0.265c0.123,0.009,0.23,0.268,0.344,0.268c0.116,0,0.229-0.266,0.342-0.266
	c0.116,0.001,0.229,0.266,0.342,0.266c0.115,0,0.228-0.189,0.342-0.303c0.591,0.668,1.348,0.195,2.05,0.348
	c0.887,0.194,1.115,1.175,2.033,1.43c4.029,1.114,7.563,2.947,11.292,4.73c0.262,0.125,0.441,0.338,0.348,0.67
	c0.229,0,0.496-0.075,0.658,0.038c0.904,0.625,1.793,1.094,2.389,2.032c0.186,0.29-0.096,0.638-0.295,0.593
	C220.861,54.934,217.438,54.415,213.689,53.472z"/>
<path id="path434" fill="none" stroke="#231F20" stroke-miterlimit="10" d="M201.846,91.25c-1.358-1.042-1.857-2.777-2.823-4.308
	c-0.183-0.291,0.052-0.559,0.321-0.635c0.479-0.136,0.943,0.272,1.292,0.445c1.491,0.736,2.802,1.798,4.509,1.917
	c1.7,1.909,5.34,2.238,5.347,5.127c0,0.734-1.22-0.05-1.588,0.683c-2.094-0.856-4.136-0.769-6.169-2.022
	C202.209,92.131,202.491,91.744,201.846,91.25z"/>
<path id="path438" fill="none" stroke="#231F20" stroke-miterlimit="10" d="M178.315,46.324c0.115,0,6.123,0.2,6.109,0.297
	c-0.039,0.264-6.645,1.161-6.955,1.015c-0.14-0.063-6.559,2.012-6.673,1.897C171.025,49.418,178.088,46.324,178.315,46.324z"/>
<path id="path442" fill="none" stroke="#231F20" stroke-miterlimit="10" d="M191.474,54.66c0,0-12.646,1.538-16.406,2.563
	c-3.76,1.025-19.652,7.52-22.217,9.229c0,0-11.45,4.614-25.976,21.704c0,0,6.494-2.905,8.374-5.298c0,0,11.621-10.767,11.451-8.544
	c0,0,10.424-7.349,9.91-5.469c0,0,20.851-9.57,19.142-6.836c0,0,18.457-3.931,17.602-2.222c0,0,16.065,3.76,13.672,3.931
	c0,0-4.956,1.026,0.514,4.102c0,0-2.905,3.76-7.521,0.342s-2.051-1.538-6.323-0.684c0,0-2.222,0.684-6.151-2.734
	c0,0-4.785-3.931-12.306-0.855c0,0-26.146,10.767-27.854,11.28c0,0-3.076,2.393-5.127,5.469c0,0-4.956,3.759-7.52,4.956
	c0,0-10.938,9.912-11.963,11.108c0,0-2.904,4.443-3.589,4.785c0,0,5.469-3.247,7.179-4.956c0,0,11.962-8.545,16.576-9.229
	c0,0,3.761-2.562,4.444-3.76c0,0,12.304-7.861,15.895-7.861c0,0,7.859,4.443,9.912-1.538c0,0,4.956-1.538,9.741-0.513
	c0,0,2.734-2.222,2.051-4.102c0,0,1.367-1.538,2.222,1.709c0,0,2.904,3.076,7.007,1.367c0,0,3.418-0.171,1.709,1.879
	c0,0-3.76,3.247-13.843,3.418c0,0-10.597,0.513-24.609,7.007c0,0-25.463,8.887-33.325,17.773c0,0-5.468,7.52-10.083,8.545
	c0,0-4.956,0.684-10.083,7.006c0,0,8.374-4.956,16.064-4.956c0,0,3.418-2.05,0.171,1.025c0,0-3.076,6.494-1.709,11.108
	c0,0-0.513,4.443-1.196,5.81c0,0-6.665,10.938-6.665,12.988c0,2.051,1.025,10.425,1.367,10.938c0.342,0.513-0.854-1.367,2.395,0.684
	c3.247,2.05,5.64,3.418,6.323,5.811s-1.709-4.615-1.88-6.152c-0.17-1.538-3.76-7.69-3.076-9.741c0,0,0.854,0.854,1.538,2.051
	c0,0-0.512-0.513,0-3.589c0,0,0.685-4.443,1.88-7.177c1.196-2.734,2.905-5.981,3.247-6.665c0.342-0.684,0.342-5.64,1.538-3.418
	l2.905,2.222c0,0-2.394-2.222-0.514-4.101c0,0-0.854-4.786,0.685-7.007c0,0,5.98-7.178,7.349-8.033
	c1.367-0.854,0.171-0.512,0.171-0.512s5.127-3.589,0.171-2.222c0,0-3.418,1.367-5.98,1.367c0,0-6.494,1.709-3.076-1.88
	c3.417-3.588,11.963-8.203,15.209-8.032l0.685,1.367l9.569-2.051l-1.024,0.684c0,0-0.171-0.171,3.418-0.513
	c3.588-0.342,8.544,0.854,9.74-0.684c1.197-1.538,4.102-2.393,3.761-1.196c-0.343,1.196-0.514,2.905-0.514,2.905
	s4.271-4.956,3.761-3.076c-0.514,1.88-7.521,6.323-8.717,11.621l8.887-7.006l3.076-2.563c0,0,3.075,1.88,3.246,0.513
	c0.172-1.367,4.103-6.323,5.127-6.152c1.025,0.17,2.733-2.222,2.563,0c-0.171,2.222,6.323,6.836,6.323,6.836
	s2.733-1.538,3.931-0.342c1.196,1.196,4.785-16.918,4.785-16.918l21.362-9.058l37.256-2.905l-14.526-5.811L191.474,54.66z"/>
<path id="path446" fill="none" stroke="#231F20" d="M207.026,224.702c0,0-12.816-14.355-19.995-16.577c0,0-11.449-5.811-32.47,0.854
	"/>
<path id="path450" fill="none" stroke="#231F20" d="M184.297,206.929c0,0-21.533-6.836-34.691-3.247c0,0-15.723,1.708-22.899,13.5"
	/>
<path id="path454" fill="none" stroke="#231F20" d="M181.22,205.903c0,0-14.524-6.152-27.173-8.032c0,0-14.185-2.222-28.368,3.931
	c0,0-10.424,5.127-15.039,13.842"/>
<path id="path458" fill="none" stroke="#231F20" d="M182.075,206.245c0,0-13.159-9.399-14.014-10.595c0,0-5.98-9.399-17.09-9.741
	c0,0-18.286,0.684-32.981,7.52"/>
<path id="path462" fill="none" stroke="#231F20" stroke-miterlimit="10" d="M180.96,198.561c1.317,1.25,24.356,25.97,24.356,25.97
	c30.078,31.272,6.153,2.051,6.153,2.051c-6.495-4.102-14.354-20.166-14.354-20.166c-1.025-2.393,11.963,6.152,11.963,6.152
	c3.418,0.684,15.039,17.09,15.039,17.09c-5.813-2.05-1.708,4.102-1.708,4.102c2.392,1.709,19.824,15.04,19.824,15.04
	c3.076,3.417,6.494,4.785,6.494,4.785c11.962-4.443,6.494,6.837,6.494,6.837c2.051,5.809,6.836-4.103,6.836-4.103
	c9.57-14.356-4.442-12.307-4.442-12.307c-25.636,2.396-31.446-11.28-31.446-11.28c-2.05-2.051,5.469,0,5.469,0
	c7.181,1.708-6.15-10.596-6.15-10.596c2.052,0,9.912,5.811,9.912,5.811c8.888,7.861,10.598,6.152,10.598,6.152
	c15.38-7.52,24.267-1.025,24.267-1.025c1.709,1.367-3.076,7.177-1.709,11.622c1.367,4.442,5.469,15.039,5.469,15.039
	c-2.05,1.366-1.709,10.596-1.709,10.596c14.356,19.824,6.152,18.115,6.152,18.115c-13.33-0.343-0.685,6.15-0.685,6.15
	c2.735,1.709,10.254,7.861,10.254,7.861c-2.393-1.025-3.76,3.418-3.76,3.418c4.103,3.418,1.709,7.521,1.709,7.521
	c-5.127,1.023-6.151,4.441-6.151,4.441c5.811,6.837-2.734,7.18-2.734,7.18c3.076,3.758-1.025,14.014-1.025,14.014
	c-4.101,0-9.569,4.783-9.569,4.783c2.051,4.104-6.836,8.889-6.836,8.889c-7.178,1.367-4.785,7.178-4.785,7.178
	c-6.836,5.127-8.886,18.798-8.886,18.798c-0.685,8.888-2.735,11.621,1.708,9.912c4.442-1.709,3.76-12.305,3.76-12.305
	c-4.103-13.33,32.47-27.001,32.47-27.001c3.417-1.367,4.102-5.811,4.102-5.811c1.709,0.34,9.229,6.836,9.229,6.836
	c6.493,9.568,6.835,1.709,6.835,1.709c1.026-3.078-0.342-8.205-0.342-8.205c5.127-18.455-6.835-23.924-6.835-23.924
	c-8.545-28.713,3.418-21.534,3.418-21.534c2.394,4.784,11.621,9.228,11.621,9.228l3.075-2.05c-1.366-4.103,5.812-9.229,5.812-9.229
	c2.393,5.47,7.519-1.366,7.519-1.366c3.077-20.851,13.673-8.546,13.673-8.546c3.417,1.025,4.443-4.785,4.443-4.785
	c3.075-8.886,0-20.508,0-20.508c3.075-0.341,11.279,4.786,11.279,4.786c2.392-3.077-5.471-17.432-2.051-15.381
	c3.417,2.052,7.177,3.418,7.177,3.418c0.684-1.71-7.861-12.305-7.861-12.305c-3.76-2.393-8.203-19.824-8.203-19.824
	c6.152,3.076-2.392-9.912-2.392-9.912c0-2.734,5.126-12.304,5.126-12.304c-0.684-5.811,0-5.469,0-5.469
	c2.394,1.025,9.229,2.393,3.418-3.076c-5.812-5.469,0.685-9.57,0.685-9.57c3.76-2.393-7.86-2.051-7.86-2.051
	c-4.443-3.76-4.103-7.177-4.103-7.177c6.835,1.709-5.47-10.596-7.52-13.672c-2.051-3.076,6.151-7.519,6.151-7.519
	c11.279-3.077,1.367-5.811,1.367-5.811c-16.748,0.342-7.52-8.887-7.52-8.887c5.127,0.342,3.76-1.708,3.76-1.708
	c-4.443-1.025-12.646-6.494-12.646-6.494c-3.418-3.076-0.343-2.393-0.343-2.393c14.355,1.026-10.253-8.544-10.253-8.544
	c6.835,0-8.546-8.887-8.546-8.887c-1.709-1.367-4.442-7.861-4.442-7.861c-5.127-4.444-9.229-10.254-9.229-10.254
	c-0.342-3.76-4.443-7.861-4.443-7.861c-9.912-11.621-14.696-11.279-14.696-11.279c-12.646-3.076-17.09-2.393-17.09-2.393
	l-45.118,3.759c-22.56,10.938-15.894,28.882-15.894,28.882c5.47,7.177,13.33,3.93,13.33,3.93c3.932-5.298,13.844-3.417,13.844-3.417
	c17.432,2.734,15.21-0.342,15.21-0.342c-2.052-3.931-15.895-9.229-16.065-9.741c-0.171-0.513-7.689-3.418-7.689-3.418
	c-2.564-1.025-6.323-8.887-6.323-8.887c-2.732-2.905,10.768,2.051,10.768,2.051c-1.024,0.854,5.298,4.272,5.298,4.272
	c14.869-0.854,23.927,8.374,23.927,8.374c9.228,14.184,9.399,7.178,9.399,7.178c2.393-8.032-7.69-26.147-7.69-26.147
	c0.342-1.709,7.348,3.93,7.348,3.93c1.197-1.708,1.88,3.247,1.88,3.247c0.171,2.051,3.418,8.886,3.418,8.886
	c2.394,11.108,5.468,4.785,5.468,4.785l3.932,8.033c1.195,2.222-3.932,8.716-3.932,8.716c-0.17,2.393,0.514,2.221-4.271,8.715
	c-4.785,6.494-1.879,10.254-1.879,10.254c-1.196,5.639,6.322,5.298,6.322,5.298c2.223,1.879,5.128,1.879,5.128,1.879
	c1.537,1.709,3.588,1.197,3.588,1.197c1.367-3.247,6.665-1.538,6.665-1.538c1.195-2.051,8.202-2.393,8.202-2.393
	c0.854-2.222,1.197-3.589,4.103-4.102c2.905-0.513-18.115-37.255-18.115-37.255c5.469-0.684-1.538-11.28-1.538-11.28
	c-1.879-5.639,7.861,6.836,9.741,8.033c1.879,1.196,2.734,3.076,1.368,2.905c-1.368-0.17-2.906,1.709-1.709,1.88
	c1.197,0.171,12.307,12.988,15.209,21.704c2.906,8.715,8.032,12.133,13.329,17.26c5.298,5.126,4.615,25.805,4.615,25.805
	c-0.343,7.519,4.784,16.577,4.784,16.577c1.709,3.247-1.88,18.799-1.88,18.799c-1.709,1.879-0.514,2.563-0.514,2.563
	c0.854,1.025,6.666,12.305,6.666,12.305c-1.538-0.171,1.538,2.905,1.538,2.905c4.442,5.126-1.026,2.563-1.026,2.563
	c-5.126-1.368,0.854,7.006,0.854,7.006c1.026,1.538-6.664-2.393-6.664-2.393c-7.86-0.513,2.052,5.64,2.052,5.64
	c7.349,6.152-2.394,2.393-2.394,2.393c-3.931-1.538-1.195,4.272-1.195,4.272c2.733,1.367,17.434,7.348,17.434,7.348
	c0.341,3.249-2.225,7.521-2.225,7.521c0.343,3.418-1.536,6.322-1.536,6.322c-1.026,7.007-1.539,7.691-1.539,7.691
	c-3.589,0.17-9.912,11.963-9.912,11.963c-1.538,2.221-10.254,12.476-10.254,12.476c-1.709,5.981-17.09-0.171-17.09-0.171
	c-5.639,2.904-3.931,0-3.931,0c-0.342-1.88,3.76-7.008,3.76-7.008c5.98-2.223,3.76-11.449,3.76-11.449
	c3.419-1.196-6.152-3.589-5.981-4.614c0.172-1.026,5.128-2.222,5.128-2.222c6.836-1.709,3.075-3.759,3.075-3.759
	c-0.512-3.419,2.052-8.204,2.052-8.204c9.912-0.686,0-14.527,0-14.527c-9.229-6.494-10.083-11.449-10.083-11.449
	c10.766-7.007,3.759-17.603,3.931-20.679c0.17-3.076,1.196-21.533,1.196-21.533c-1.708-5.298-4.271-16.919-4.271-16.919
	c1.88-4.443,8.202-15.209,8.202-15.209c2.393-3.589,9.913-7.69,8.031-10.254c-1.879-2.563-8.543-1.025-8.543-1.025
	c-6.665-1.196-6.152,3.247-6.152,3.247c-1.367,0.854-2.051,5.127-2.051,5.127c-0.616,6.778-8.203,12.134-8.203,12.134
	c-9.57,5.298-1.709,8.715-1.709,8.715c5.127,5.64-3.247,5.811-3.247,5.811c-9.399-1.538-2.393,7.177-2.393,7.177
	c9.229,10.938,6.665,13.33,6.665,13.33c-8.716,0.854,2.051,8.715,2.051,8.715s-0.684-1.708-0.514-0.17
	c0.171,1.538,2.734,5.127,3.418,6.836c0.685,1.708-2.733,1.88-2.733,1.88c0.512,8.203-12.646,4.614-12.646,4.614s0,0-1.367,0.171
	s-10.937-0.512-15.894-2.393c-4.956-1.879-10.766-1.879-10.766-1.879s-3.418,1.538-9.913,1.367
	c-6.494-0.171-13.33,2.221-13.33,2.221c-3.76-0.342,3.589-4.101,3.76-3.931c0.171,0.171,4.956-4.614-1.88-4.101
	c-18.625,1.397-27.856-7.349-27.856-7.349c-1.709-1.197-3.931-3.589-3.931-3.589c-8.545-1.709,1.196,10.596,1.196,10.596
	c1.024,1.196-0.171,2.05-0.171,2.05c-0.685-1.367-7.35-5.981-7.35-5.981C184.116,201.825,182.952,200.685,180.96,198.561z"/>
<path id="path466" fill="none" stroke="#231F20" stroke-miterlimit="10" d="M160.542,188.643c0,0,9.912,4.785,12.133,7.178
	c2.222,2.393,14.187,12.133,14.187,12.133s-4.613-1.709-6.836-3.247c-2.222-1.538-11.449-8.544-11.449-8.544
	S165.327,191.036,160.542,188.643z"/>
<path id="path470" fill="none" stroke="#231F20" stroke-miterlimit="10" d="M110.975,161.985c0.288-0.126-0.16-2.444-0.334-2.908
	c-0.873-2.33-8.544-3.589-8.544-3.589c-0.192,1.167-0.241,2.53-0.148,3.93C101.946,159.419,106.105,164.134,110.975,161.985z"/>
<path id="path474" fill="none" stroke="#231F20" stroke-miterlimit="10" d="M110.975,161.814c-0.384,0.135-0.013-2.336-0.163-2.737
	c-0.874-2.33-8.716-3.674-8.716-3.674c-0.192,1.167-0.241,2.53-0.148,3.93C101.946,159.333,105.593,163.707,110.975,161.814z"/>
<path id="path478" fill="none" stroke="#231F20" stroke-miterlimit="10" d="M107.222,161.937c-0.534,0-0.966-0.974-0.966-2.176
	c0-1.2,0.433-2.175,0.966-2.175c0.534,0,0.967,0.975,0.967,2.175C108.19,160.963,107.757,161.937,107.222,161.937z"/>
<path id="path486" fill="none" stroke="#231F20" stroke-miterlimit="10" d="M68.259,245.723c0,0-4.785,8.544,16.406,3.417
	c0,0,11.962-1.025,14.013-3.076c1.026,0.684,8.175,3.19,10.596,3.76c5.812,1.367,12.988-7.178,12.988-7.178s3.933-8.972,6.324-8.972
	c2.392,0-0.343,1.368-0.343,1.368s-5.64,8.63-5.298,9.998c0,0-4.442,17.09-18.114,17.772c0,0-13.801,0.813-12.646,5.812
	c0,0,7.521-2.051,9.57,0c0,0,9.229-0.342,2.393,5.127l-5.81,9.912c0,0,0.12,3.348-8.545,0.342
	c-8.374-2.906-17.175-13.929-17.175-13.929S58.988,257.643,68.259,245.723z"/>
<path id="path490" fill="none" stroke="#231F20" stroke-miterlimit="10" d="M67.233,249.141c0,0-1.708,8.203,29.736-0.684
	c0,0,3.759,0,5.813,0.684c2.052,0.684,12.305,3.075,14.015,2.051c0,0-6.153,11.62-16.065,10.254c0,0-11.278,1.366-10.937,5.469
	c0,0,3.418,6.152,7.52,8.203c0,0,2.394,2.051,2.05,4.784c-0.341,2.733-2.733,4.103-4.441,4.785c-1.709,0.685-4.444-2.05-5.812-2.05
	c-1.366,0-8.545-5.469-12.306-9.57c-3.76-4.103-10.938-14.354-10.596-16.748C66.55,253.926,67.233,249.141,67.233,249.141z"/>
<path id="path494" fill="none" stroke="#231F20" stroke-miterlimit="10" d="M69.968,264.051c2.221,3.376,4.956,6.964,6.836,9.016
	c3.759,4.102,10.938,9.57,12.304,9.57c1.367,0,4.103,2.734,5.812,2.05c1.708-0.683,4.101-2.05,4.441-4.785
	c0.343-2.733-2.05-4.784-2.05-4.784c-2.62-1.313-4.961-4.294-6.311-6.279c0,0,0.158,2.177-4.285,1.494
	c-4.443-0.684-8.887-3.076-10.253-5.812c-1.368-2.733-3.418-4.784-2.051-1.709c1.366,3.077,3.418,6.152,4.785,6.495
	c1.367,0.342,1.023,1.366-1.024,1.025c-2.051-0.343-4.443-0.684-8.203-5.127L69.968,264.051L69.968,264.051z"/>
<path id="path498" fill="none" stroke="#231F20" stroke-miterlimit="10" d="M67.746,246.064c0,0,1.538-11.622,2.562-15.04
	c0,0-0.684-5.81,1.367-9.399c2.051-3.589,3.76-8.886,6.323-13.5c2.562-4.614,2.734-8.032,6.152-9.399
	c3.417-1.367,8.544-8.716,10.938-9.571c2.393-0.854,2.222-0.17,2.222-0.17s5.812-12.646,17.433-9.229c0,0-13.844-2.393-0.343-10.425
	c0,0-4.102,0.94-1.281-5.041c1.881-3.989,1.452,1.794-7.946,11.877c0,0-4.272,7.349-8.716,9.912
	c-4.444,2.563-14.697,8.545-15.723,11.792s-3.76,8.203-5.469,9.57c-1.709,1.367-4.102,4.956-4.441,7.861
	c0,0-1.024,3.417-2.222,4.443c-1.196,1.025-1.368,3.759-1.368,5.469c0,1.708-1.708,4.101-1.538,6.151c0,0,0.685,16.236,0.343,17.945
	L67.746,246.064z"/>
<path id="path502" fill="none" stroke="#231F20" stroke-miterlimit="10" d="M60.398,249.996c0,0-1.709-1.197-5.469,3.93
	c0,0,6.237,28.197,6.237,29.396c0,0,0.939-1.794-0.171-7.947c-1.111-6.152-1.88-17.005-1.88-17.005L60.398,249.996z"/>
<path id="path506" fill="none" stroke="#231F20" stroke-miterlimit="10" d="M78.854,198.213c0,0-15.039,2.734-14.696,27.685
	l-0.684,21.192c0,0-1.024-21.875-2.051-23.243c-1.025-1.367,2.393-10.937-0.342-5.811c0,0-11.962,11.963-5.126,30.079
	c0,0,1.281,2.82-1.282-1.11c0,0-3.931-10.768-2.991-16.236c0,0,0.171-1.88,1.794-4.272c0,0,7.35-9.998,9.655-11.963
	c0,0,1.539-12.304,14.697-16.748C77.828,197.786,82.699,195.82,78.854,198.213z"/>
<path id="path510" fill="none" stroke="#231F20" stroke-miterlimit="10" d="M197.969,141.646c0.564-0.303,0.556-1.132,1.052-1.28
	c0.982-0.293,1.122-1.206,1.564-1.875c0.746-1.127,0.911-2.437,1.408-3.711c0.232-0.598,0.256-1.415-0.013-1.979
	c-1.003-2.121-1.603-4.213-2.835-6.286c-0.229-0.384-0.453-1.063-0.625-1.574c-0.396-1.183-1.469-2.029-2.204-3.157
	c-0.247-0.377,0.202-1.167-0.409-1.239c-0.769-0.09-2.005-0.585-2.204,0.291c-0.502,2.21,0.36,4.366,1.188,6.453
	c-0.668,0.592-0.382,1.378-0.253,2.034c0.607,3.082-0.417,5.946-1.065,8.915c-0.021,0.088,0.271,0.258,0.249,0.311
	c-1.044,2.295-2.284,4.384-3.839,6.419c-0.646,0.848-1.393,1.63-1.817,2.539c-0.314,0.672-0.663,1.498-0.449,2.342
	c-2.936,2.375-4.857,5.661-7.089,8.947c-0.396,0.581-0.146,1.614,0.325,1.844c0.694,0.34,1.512-0.535,1.912-1.258
	c0.332-0.597,0.635-1.152,1.055-1.702c0.113-0.149-0.04-0.507,0.076-0.61c2.25-2.006,3.676-4.515,5.771-6.538
	c1.666-0.281,2.979-1.134,4.475-2c0.264-0.153,0.712,0.06,0.958-0.106c1.499-1.006,1.497-2.746,1.588-4.378
	C196.826,143.293,196.994,142.168,197.969,141.646z"/>
<path id="path514" fill="none" stroke="#231F20" stroke-miterlimit="10" d="M190.414,137.83c0.105-0.065-0.026-0.428,0.066-0.612
	c0.139-0.276,0.482-0.437,0.621-0.714c0.093-0.185-0.046-0.509,0.07-0.63c1.993-2.091,2.212-4.675,1.327-7.215
	c0.875-0.53,0.928-1.608,0.564-2.332c-0.729-1.453-0.895-3.098-1.727-4.417c-0.687-1.084-2.034-2.147-3.205-1.034
	c-0.36,0.342-0.634,1.014-0.397,1.623c0.056,0.139,0.299,0.264,0.275,0.334c-0.092,0.276-0.558,0.468-0.563,0.701
	c-0.024,1.278-0.841,2.569-0.303,3.705c0.66,1.392,1.36,2.979,1.938,4.496c-1.056,1.808-0.171,3.9-1.67,5.504
	c-0.116,0.125-0.108,0.455-0.004,0.627c0.25,0.416,0.596,0.763,1.012,1.012c0.172,0.104,0.47,0.105,0.641-0.001
	C189.554,138.567,189.895,138.151,190.414,137.83z"/>
<path id="path518" fill="none" stroke="#231F20" stroke-miterlimit="10" d="M244.086,129.019c1.187,1.532,1.435,3.92-0.316,5.108
	c0.471,2.828,3.333,1.136,5.127,0.684c-0.093-0.332,0.102-0.626,0.344-0.63c0.902-0.013,1.483-0.895,2.392-0.737
	c0.371-1.331,1.771-1.931,2.32-3.11c1.475-3.157,0.97-6.808-1.237-9.582c-0.173-0.217,0.013-0.659-0.094-0.968
	c-0.646-1.89-2.413-2.159-4.065-2.747c-1.006-3.311-1.57-6.756-3.076-9.912c-1.379-0.214-1.975-1.7-3.118-2.315
	c-1.139-0.615-1.625,0.735-1.589,1.628c0.006,0.175,0.393,0.367,0.247,0.679c-0.064,0.14-0.287,0.235-0.287,0.349
	c0.001,0.116,0.19,0.228,0.305,0.342c-0.784,0.701-2,1.109-2.252,2.087c-0.815,3.17,1.384,5.84,2.809,8.576
	c0.505,0.97-0.124,2.056-0.771,3.088c-0.375,0.594-0.281,1.557-0.046,2.289C241.414,125.839,242.774,127.325,244.086,129.019z"/>
<path id="path522" fill="none" stroke="#231F20" stroke-miterlimit="10" d="M212.333,144.73c-1.271,1.582-4.187,3.777-1.693,5.424
	c0.165,0.11,0.481,0.114,0.629-0.001c1.728-1.337,3.438-2.109,5.521-2.606c0.104-0.024,0.339,0.375,0.655,0.237
	c1.379-0.601,3.096-0.552,4.105-1.695c3.219,0.191,6.265-0.762,9.162-1.88c0.993-0.383,2.078-0.86,3.104-1.29
	c1.177-0.492,2.205-1.285,3.155-2.26c0.114-0.116,0.416-0.04,0.646-0.04c-0.034-0.737,0.787-0.846,0.999-1.377
	c0.078-0.198-0.05-0.537,0.063-0.623c1.827-1.393,2.612-3.118,1.614-5.148c-0.244-0.494-0.457-1.022-0.94-1.429
	c-0.927-0.778-1.869-0.049-2.763-0.309c-0.136,0.536-0.759,0.39-1.089,0.559c-0.734,0.375-1.873-0.125-2.607,0.249
	c-1.164,0.594-2.224,0.739-3.438,1.061c-0.268,0.07-0.933-0.012-1.068,0.524c-0.115-0.115-0.241-0.314-0.332-0.296
	c-1.63,0.338-2.707,0.521-3.816,1.967c-0.088,0.114-0.466-0.04-0.603,0.076c-0.816,0.69-1.165,1.745-2.104,2.319
	c-0.172,0.105-0.473-0.039-0.639,0.072c-0.552,0.368-0.866,0.916-1.414,1.298c-0.28,0.196-0.623-0.082-0.596-0.301
	c0.209-1.664,0.769-3.191,0.275-4.793c1.774-2.153,3.926-3.819,5.469-6.152c0.013-1.851,0.604-3.685,0.507-5.459
	c-0.008-0.165-0.254-0.791-0.362-1.087c-0.266-0.73,0.508-1.641-0.213-2.259c-1.2-1.028-2.304-0.28-3.008,0.945
	c-1.57,0.333-3.336,0.925-4.685-0.129c-0.86-0.673-1.354-1.447-2.037-2.349c-0.843-1.113-0.556-2.339-0.496-3.676
	c0.005-0.109-0.265-0.226-0.265-0.34c0-0.115,0.188-0.227,0.304-0.341c-0.604-0.535-0.838-1.439-1.709-1.709
	c0.261-0.933-0.317-1.689-1.062-1.947c-1.705-0.59-3.138,1.043-4.754,1.105c-0.438,0.017-0.838-0.87-1.393-1.148
	c-0.37-0.185-0.972-0.212-1.28,0.015c-0.588,0.431-1.092,0.528-1.74,0.704c-1.381,0.372-2.474,1.307-3.738,2.038
	c-1.271,0.732-2.084,1.96-3.007,3.088c-0.804,0.984-0.92,3.046,0.293,3.474c1.575,0.556,2.689-1.754,4.369-1.475
	c0.268,0.043,0.442,0.309,0.35,0.641c0.332,0.093,0.519-0.103,0.684-0.341c0.733,0.871,1.729,1.158,2.529,1.904
	c0.829,0.773,2.32,0.416,3.188,1.268c1.308,1.283,0.829,3.574,2.486,4.689c-0.501,1.122-1.021,2.212-1.306,3.432
	c-0.241,1.031,0.607,2.054,1.643,1.976c1.075-0.08,1.299-0.729,1.713-1.648c0.229,0.229,0.628,0.482,0.593,0.667
	c-0.39,2.04-1.268,3.742-1.659,5.819c-0.05,0.271-0.313,0.444-0.645,0.35c-0.398,3.545-3.86,5.591-6.038,8.296
	c-0.344,0.429-0.348,1.496,0.002,1.84c1.199,1.185,2.874-0.136,4.326-0.566c0.184-1.031,0.917-1.835,2.054-1.788
	c0.22,0.009,0.419-0.454,0.697-0.565c0.297-0.118,0.728,0.073,0.973-0.096c1.478-1.021,2.681-1.966,4.166-2.982
	c0.164-0.112,0.458,0.024,0.643-0.068c0.277-0.138,0.438-0.469,0.714-0.627c0.297-0.171,0.504,0.077,0.669,0.316
	c-0.552,0.298-0.555,1.117-1.053,1.289c-0.662,0.229-1.142,0.667-1.718,1.049c-0.25,0.165-0.813-0.047-0.9,0.106
	C213.951,143.601,212.94,143.976,212.333,144.73z"/>
<path id="path526" fill="none" stroke="#231F20" stroke-miterlimit="10" d="M164.986,102.511c0,0-7.896-2.454-17.433,19.482
	c0,0-2.051,4.443-4.102,6.152c-2.052,1.709-11.621,4.785-13.33,8.203l-8.888,13.672c0,0,12.646-13.672,15.382-15.722
	c0,0,6.836-7.178,4.102-1.367c0,0-11.963,9.228-10.938,17.089c0,0-4.784,12.305-5.469,14.014c0,0,13.672-27.344,15.723-28.369
	c2.051-1.025,3.075-1.025,2.051,2.051c-1.025,3.076-1.367,17.09-3.76,18.798c0,0,6.836-17.432,6.152-20.166
	c0,0,2.733-3.076,4.785,1.368l-1.023,13.671l3.76,10.254c0,0-2.052-9.57-0.684-22.9c0,0-1.709-8.887,1.708-4.102
	c3.418,4.785,11.621,9.912,11.621,14.013c0,0-4.442-15.039-12.305-19.14l-3.417,5.127l-1.026-1.709c0,0-3.076-0.684,0.685-6.494
	c3.76-5.81,3.418-6.494,3.418-6.494s5.469,6.152,6.835,6.152c0,0,11.279-6.494,12.305,14.355c0,0,5.812-12.304-2.051-18.115
	c0,0-12.646-1.709-11.621-6.152l6.152-10.595c3.075-4.444,1.709-2.051,1.709-2.051L164.986,102.511z"/>
<path id="path530" fill="none" stroke="#231F20" stroke-miterlimit="10" d="M147.896,116.524c0,0-10.938,0-13.671,4.443
	l-6.152,8.204c0,0,14.697-8.545,18.115-9.57C149.605,118.575,147.896,116.524,147.896,116.524z"/>
<path id="path534" fill="none" stroke="#231F20" stroke-miterlimit="10" d="M113.717,121.994c0,0-1.709,1.025-2.051,3.417
	c-0.341,2.393-2.394,2.734-1.708,5.127c0.683,2.393,2.392,4.443,2.392,1.025s1.368-5.127,2.051-6.152
	S116.451,120.626,113.717,121.994z"/>
<path id="path538" fill="none" stroke="#231F20" stroke-miterlimit="10" d="M106.198,174.287c0,0-7.178-3.417-9.911-6.494
	c-2.734-3.076-2.349,1.338-6.494,1.025c-4.997-0.376-4.103-14.013-4.103-14.013l-3.417,6.494c0,0-1.025,12.305,5.812,10.254
	c3.338-1.001,4.442,0.341,3.076,1.025c-1.367,0.684,4.784,1.026,2.393,2.393c-2.393,1.368,9.912-3.076,7.861,5.811L106.198,174.287z
	"/>
<path id="path542" fill="none" stroke="#231F20" stroke-miterlimit="10" d="M95.431,186.592c0,0-13.159,3.76-16.233-4.443
	c0,0-4.104,2.051-2.222,4.614c1.88,2.563,2.905,2.905,2.905,2.905s4.614,1.025,4.102,1.709s-2.562,3.589-2.562,3.589
	S90.134,189.839,95.431,186.592z"/>
<path id="path546" fill="none" stroke="#231F20" stroke-miterlimit="10" d="M290.595,253.414c-0.365,1.822-1.793,2.507-3.418,3.075
	c-1.638-0.818-3.855-3.473-5.468-1.709c-0.405-0.409-1.07-0.462-1.365-1.027c-0.396-0.768-0.165-1.661-0.457-2.343
	c-0.465-1.087-1.071-2.254-0.913-3.466c1.543-0.609,2.051-2.236,1.647-3.743c-0.06-0.22-0.427-0.389-0.255-0.686
	c0.158-0.277,0.431-0.471,0.658-0.699c-0.114,0.116-0.239,0.314-0.334,0.297c-0.521-0.091-0.415-0.635-0.304-0.965
	c0.5-1.492,2.221-1.718,3.373-0.698c0.219-0.483,0.654-0.318,1.025-0.343c-0.042-0.495,0.306-0.945,0.475-1.304
	c0.442-0.938,1.834,0.007,2.516-0.516c0.92-0.706,1.828-1.303,2.749-0.788c1.546,0.866,3.006,1.902,4.031,3.389
	c0.491,0.713,0.696,1.808,0.646,2.625c-0.032,0.552-1.213,0.251-1.506,1.046c-0.551,1.493,1.014,1.936,1.659,3.08
	c0.169,0.299-0.056,0.56-0.326,0.643c-0.353,0.11-1.021-0.052-0.902,0.335C294.957,252.347,292.602,252.926,290.595,253.414z"/>
<path id="path550" fill="none" stroke="#231F20" stroke-miterlimit="10" d="M282.391,270.161c-0.006-1.485-1.374-2.985-0.341-4.443
	c0.115,0.114,0.227,0.304,0.342,0.304c0.116,0,0.228-0.189,0.342-0.304c1.277,1.896,4.398,2.688,4.276,5.118
	c-0.019,0.382-0.947,1.166-0.175,1.718c-1.549,1.152-1.597,3.177-2.393,4.785c-1.059-0.244-2.094-0.555-3.076-1.025
	c0.301-1.271,0.2-2.709,0.9-3.837C282.639,271.88,282.393,270.958,282.391,270.161z"/>
<path id="path554" fill="none" stroke="#231F20" stroke-miterlimit="10" d="M140.377,262.471c0,0-14.405,8.661-2.394-4.441
	c7.52-8.203,16.063-12.988,16.063-12.988s8.887-3.761,11.963-4.786c3.076-1.025,16.064-5.468,18.798-5.811
	c2.734-0.341,10.938-3.759,16.748-0.341c5.813,3.418,12.646,7.177,12.646,7.177s-14.015-7.177-17.09-5.126
	c-3.075,2.051-9.229,1.709-14.354,4.444c0,0-12.646,3.76-15.381,5.469c-2.735,1.709-11.621,11.621-12.987,10.938
	c-1.368-0.684,0.341-1.025,1.366-3.418c1.026-2.393-0.684-3.76-7.52,1.709C141.402,260.762,140.377,262.471,140.377,262.471z"/>
<path id="path558" fill="none" stroke="#231F20" stroke-miterlimit="10" d="M146.704,257.372c0,0,1.205-11.144,8.448-9.721
	c0,0,7.027-3.563,9.354-5.244c0,0,6.955-1.454,8.074-1.981c15.79-7.435,28.367-3.573,28.834-4.53
	c0.466-0.957,17.234,5.125,20.319,8.617c0.333,0.378-8.742-4.783-17.028-6.396c-7.069-1.379-25.527,0.211-34.847,4.939
	c-2.541,1.29-10.184,6.232-12.346,6.136C155.351,249.098,146.704,257.372,146.704,257.372z"/>
<path id="path562" fill="none" stroke="#231F20" stroke-miterlimit="10" d="M143.453,279.219c0,0-12.988-2.051,1.366-3.418
	c0,0,15.382-1.71,18.799-6.152c0,0,11.62-7.861,14.014-8.203c2.393-0.343,28.027-6.495,28.369-8.545
	c0.341-2.05,5.126-2.05,6.494-1.367c1.366,0.683,0.683,1.709-1.709,2.393c-2.394,0.686-29.054,14.697-34.521,15.723
	c-5.469,1.024-15.381,7.52-19.479,8.545C152.682,279.22,143.453,279.219,143.453,279.219z"/>
<path id="path566" fill="none" stroke="#231F20" stroke-miterlimit="10" d="M160.132,272.896c0,0-7.333-0.708,0.017-1.407
	c0,0,7.533-2.927,9.283-5.202c0,0,5.95-4.024,7.175-4.199c1.227-0.175,13.154-3.325,13.329-4.375s29.284-11.801,33.062-9.074
	c2.487,1.795-5.974,0.362-14.204,4.131c-1.158,0.528-30.085,12.993-32.885,13.518c-2.801,0.526-7.875,3.851-9.976,4.375
	C163.832,271.188,160.132,272.896,160.132,272.896z"/>
<path id="path570" fill="none" stroke="#231F20" stroke-miterlimit="10" d="M153.365,274.775c0,0,4.442-0.342,3.418,1.025
	c-1.026,1.367-3.076,0.684-3.076,0.684L153.365,274.775z"/>
<path id="path574" fill="none" stroke="#231F20" stroke-miterlimit="10" d="M147.212,276.143c0,0,4.443-0.342,3.418,1.025
	c-1.025,1.366-3.076,0.683-3.076,0.683L147.212,276.143z"/>
<path id="path578" fill="none" stroke="#231F20" stroke-miterlimit="10" d="M138.325,277.51c0,0,4.443-0.342,3.418,1.024
	c-1.025,1.367-3.076,0.685-3.076,0.685L138.325,277.51z"/>
<path id="path582" fill="none" stroke="#231F20" stroke-miterlimit="10" d="M131.832,278.193c0,0,4.442-0.343,3.417,1.025
	c-1.025,1.367-3.076,0.683-3.076,0.683L131.832,278.193z"/>
<path id="path586" fill="none" stroke="#231F20" stroke-miterlimit="10" d="M164.644,244.356c0,0,3.76,0,2.734,1.367
	c-1.025,1.367-3.76,1.025-3.76,1.025L164.644,244.356z"/>
<path id="path590" fill="none" stroke="#231F20" stroke-miterlimit="10" d="M156.099,249.141c0,0,5.561-1.83,3.418,1.025
	c-1.024,1.367-3.076,0.685-3.076,0.685L156.099,249.141z"/>
<path id="path594" fill="none" stroke="#231F20" stroke-miterlimit="10" d="M146.529,253.242c0,0,4.441-0.342,3.417,1.025
	c-1.024,1.367-3.075,0.683-3.075,0.683L146.529,253.242z"/>
<path id="path598" fill="none" stroke="#231F20" stroke-miterlimit="10" d="M140.034,258.368c0,0,4.443-0.341,3.418,1.026
	c-1.026,1.367-3.076,0.684-3.076,0.684L140.034,258.368z"/>
<path id="path602" fill="none" stroke="#231F20" stroke-miterlimit="10" d="M134.224,262.471c0,0,4.443-0.342,3.418,1.025
	c-1.024,1.367-3.076,0.684-3.076,0.684L134.224,262.471z"/>
<path id="path606" fill="none" stroke="#231F20" stroke-miterlimit="10" d="M167.619,267.938c0,0,5.914-0.455,4.549,1.364
	c-1.365,1.819-4.096,0.909-4.096,0.909L167.619,267.938z"/>
<path id="path610" fill="none" stroke="#231F20" stroke-miterlimit="10" d="M176.506,263.835c0,0,5.914-0.455,4.549,1.365
	c-1.365,1.819-4.094,0.909-4.094,0.909L176.506,263.835z"/>
<path id="path614" fill="none" stroke="#231F20" stroke-miterlimit="10" d="M185.734,260.076c0,0,5.914-0.455,4.55,1.364
	c-1.364,1.819-4.096,0.909-4.096,0.909L185.734,260.076z"/>
<path id="path618" fill="none" stroke="#231F20" stroke-miterlimit="10" d="M194.621,255.974c0,0,5.913-0.455,4.549,1.365
	c-1.365,1.819-4.095,0.909-4.095,0.909L194.621,255.974z"/>
<path id="path622" fill="none" stroke="#231F20" stroke-miterlimit="10" d="M171.036,240.594c0,0,5.915-0.455,4.549,1.364
	c-1.364,1.82-4.778,1.594-4.778,1.594L171.036,240.594z"/>
<path id="path626" fill="none" stroke="#231F20" stroke-miterlimit="10" d="M179.582,237.859c0,0,5.914-0.455,4.549,1.364
	c-1.365,1.82-5.12,1.594-5.12,1.594L179.582,237.859z"/>
<path id="path630" fill="none" stroke="#231F20" stroke-miterlimit="10" d="M160.2,272.041c0,0,4.442-0.343,3.417,1.025
	c-1.025,1.367-3.076,0.684-3.076,0.684L160.2,272.041z"/>
<path id="path634" fill="none" stroke="#231F20" stroke-miterlimit="10" d="M97.652,187.275c0,0-3.76,7.52-4.103,10.253
	c0,0,0.686-7.519,1.709-9.228C96.285,186.591,97.652,187.275,97.652,187.275z"/>
<path id="path638" fill="none" stroke="#231F20" stroke-miterlimit="10" d="M81.93,199.238c0,0-2.732,12.305-2.393,14.697
	c0,0-1.025-9.912-0.685-10.937C79.196,201.973,81.93,199.238,81.93,199.238z"/>
<path id="path642" fill="none" stroke="#231F20" stroke-miterlimit="10" d="M99.703,135.494l-0.171,2.734l-1.881,0.171
	c0,0,12.135,10.766,12.646,17.261C110.299,155.66,110.983,148.653,99.703,135.494z"/>
<path id="path646" fill="none" stroke="#231F20" stroke-miterlimit="10" d="M103.108,136.575c-0.367-0.355-0.181-0.992-0.529-1.214
	c-0.691-0.441,1.108-0.489,0.915-1.101c-0.327-1.03-0.167-1.048-0.272-2.139c-0.048-0.511,0.454-1.827,0.784-2.203
	c1.235-1.412,0.104-3.917,1.505-5.243c0.26-0.247,0.581-0.719,0.825-1.076c0.562-0.823,1.575-1.24,2.387-1.947
	c0.271-0.236,0.102-0.942,0.586-0.864c0.61,0.098,1.671-0.013,1.632,0.706c-0.097,1.812-1.231,3.281-2.326,4.707
	c0.386,0.602-0.006,1.144-0.249,1.62c-1.141,2.239-0.979,4.667-1.127,7.093c-0.004,0.072-0.269,0.139-0.26,0.185
	c0.302,1.995,0.8,3.874,1.552,5.778c0.313,0.795,0.716,1.56,0.845,2.352c0.094,0.586,0.182,1.298-0.167,1.9
	c1.738,2.469,0.62,4.734,1.62,7.751c0.177,0.534,1.623,2.169,1.227,2.032c-2.146-0.744-2.244-1.085-2.395-1.728
	c-0.125-0.533-0.407-1.709-0.609-2.224c-0.055-0.14-0.201-1.75-0.268-1.854c-1.292-2.036-0.133-1.885-1.304-3.9
	c-1.22-0.581-2.045-1.524-3.005-2.517c-0.169-0.174,0.809-0.793,0.653-0.975c-0.934-1.102-1.918-1.757-1.631-3.032
	C103.626,138.093,103.743,137.19,103.108,136.575z"/>
<path id="path650" fill="none" stroke="#231F20" stroke-miterlimit="10" d="M100.045,138.057c0,0,0.342,5.811,2.392,7.178
	c2.051,1.368,1.026,0.684-1.709-0.341c-2.732-1.025-1.708-1.709-1.708-1.709s-2.393,0.341-0.342,2.05
	c2.051,1.709,5.127,3.76,3.76,3.76s-7.86-3.418-7.86-5.81c0-2.393-0.854-5.896-0.854-5.896s0.94-0.684,5.042-0.599
	C98.763,136.69,99.96,137.289,100.045,138.057z"/>
<path id="path654" fill="none" stroke="#231F20" d="M99.361,153.951c0,0-7.279-2.385-23.069,0.513c0,0,7.716-1.776,23.754,0.171
	C108.846,155.702,99.361,153.951,99.361,153.951z"/>
<path id="path658" fill="none" stroke="#231F20" d="M101.154,153.89c0,0-7.046-3.006-23.028-1.484c0,0,7.842-1.102,23.65,2.225
	C110.453,156.455,101.154,153.89,101.154,153.89z"/>
<path id="path662" fill="none" stroke="#231F20" d="M102.682,153.969c0,0-6.803-3.521-22.854-3.192c0,0,7.901-0.516,23.42,3.977
	C111.763,157.219,102.682,153.969,102.682,153.969z"/>
<path id="path666" fill="none" stroke="#231F20" d="M103.767,154.16c0,0-5.831-3.68-20.25-4.618c0,0,7.125,0.145,20.695,5.365
	C111.66,157.771,103.767,154.16,103.767,154.16z"/>
<path id="path670" fill="none" stroke="#231F20" d="M202.275,163.146c0,0-0.795,0.551-0.611-0.458
	c0.184-1.009,24.288-12.263,27.375-12.049C229.038,150.638,203.192,161.922,202.275,163.146z"/>
<path id="path674" fill="none" stroke="#231F20" d="M199.375,163.692c0,0-0.749,0.611-0.646-0.409
	c0.104-1.021,23.25-14.132,26.344-14.162C225.073,149.121,200.194,162.4,199.375,163.692z"/>
<path id="path678" fill="none" stroke="#231F20" d="M196.567,164.867c0,0-0.708,0.66-0.672-0.366
	c0.036-1.024,16.971-14.267,25.354-15.868C221.249,148.633,205.843,155.578,196.567,164.867z"/>
<path id="path682" fill="none" stroke="#231F20" d="M194.11,166.458c0,0-0.636,0.593-0.604-0.329
	c0.032-0.923,15.271-12.84,22.816-14.281C216.323,151.849,202.458,158.099,194.11,166.458z"/>
<path id="path686" fill="none" stroke="#231F20" stroke-miterlimit="10" d="M167.036,292.89c0,0-12.989-2.051,1.366-3.418
	c0,0,15.381-1.709,18.799-6.149c0,0,11.62-7.861,14.013-8.203c2.393-0.342,16.406-3.419,16.748-5.469
	c0.342-2.051,5.469-4.102,6.836-3.419c1.367,0.685,1.367,8.546-1.025,9.229c-2.393,0.684-18.457,6.836-23.925,7.861
	c-5.469,1.023-15.381,7.519-19.479,8.545C176.265,292.89,167.036,292.89,167.036,292.89z"/>
<path id="path690" fill="none" stroke="#231F20" stroke-miterlimit="10" d="M229.413,260.933c0,0-2.563,1.367-3.589,3.588
	c0,0-5.469,9.059-17.604,11.793c0,0-19.653,7.69-26.315,9.398c0,0-11.45,4.272-17.772,3.59c0,0-5.981,0.17-0.685,1.537
	c0,0,17.261-1.709,20.166-3.246c0,0,13.33-4.443,15.894-6.665c2.563-2.223,18.115-6.494,19.996-8.203
	C221.381,271.015,229.755,263.838,229.413,260.933z"/>
<path id="path694" fill="none" stroke="#231F20" stroke-miterlimit="10" d="M179.24,287.856c0,0,4.468-0.193,3.48,1.132
	c-0.984,1.324-3.077,0.577-3.077,0.577L179.24,287.856z"/>
<path id="path698" fill="none" stroke="#231F20" stroke-miterlimit="10" d="M173.086,289.013c0,0,4.467-0.191,3.482,1.131
	c-0.984,1.324-3.076,0.578-3.076,0.578L173.086,289.013z"/>
<path id="path702" fill="none" stroke="#231F20" stroke-miterlimit="10" d="M164.174,290.079c0,0,4.468-0.194,3.484,1.13
	c-0.986,1.324-3.078,0.577-3.078,0.577L164.174,290.079z"/>
<path id="path706" fill="none" stroke="#231F20" stroke-miterlimit="10" d="M157.652,290.543c0,0,4.469-0.192,3.48,1.132
	c-0.985,1.324-3.077,0.578-3.077,0.578L157.652,290.543z"/>
<path id="path710" fill="none" stroke="#231F20" stroke-miterlimit="10" d="M193.367,281.536c0,0,5.946-0.258,4.636,1.504
	c-1.312,1.763-4.095,0.77-4.095,0.77L193.367,281.536z"/>
<path id="path714" fill="none" stroke="#231F20" stroke-miterlimit="10" d="M202.181,277.755c0,0,5.091-2.82,4.635,1.505
	c-0.23,2.186-4.096,0.771-4.096,0.771L202.181,277.755z"/>
<path id="path718" fill="none" stroke="#231F20" stroke-miterlimit="10" d="M209.984,275.351c0,0,6.117-3.163,4.636,1.504
	c-0.664,2.094-4.097,0.77-4.097,0.77L209.984,275.351z"/>
<path id="path722" fill="none" stroke="#231F20" stroke-miterlimit="10" d="M218.113,271.227c0,0,3.726-4.188,4.637,1.505
	c0.347,2.169-4.097,0.77-4.097,0.77L218.113,271.227z"/>
<path id="path726" fill="none" stroke="#231F20" stroke-miterlimit="10" d="M186.035,285.367c0,0,4.467-0.193,3.481,1.131
	c-0.983,1.322-3.077,0.578-3.077,0.578L186.035,285.367z"/>
<path id="path730" fill="none" stroke="#231F20" d="M216.454,181.639c0,0-0.62,0.568-0.621-0.347
	c0-0.915,14.939-12.249,22.496-13.431C238.329,167.861,224.573,173.61,216.454,181.639z"/>
<path id="path734" fill="none" stroke="#231F20" stroke-miterlimit="10" d="M218.989,236.151c0,0,18.8,19.142,26.661,22.217
	c0,0,7.861,9.571,4.443,31.788c0,0-2.734,6.494-5.469-11.279c0,0,2.733-21.533-6.836-7.862c0,0-7.179-8.459-1.709-8.203
	c0,0,2.734,1.709,3.076,0.342c0.342-1.366-6.494-12.987-21.191-25.292C203.266,225.556,218.989,236.151,218.989,236.151z"/>
<path id="path738" fill="none" stroke="#231F20" d="M169.087,269.307c0,0-0.171-1.538,1.367-0.854
	c1.539,0.684,82.03,5.981,109.032,26.489C279.487,294.941,240.864,275.117,169.087,269.307z"/>
<path id="path742" fill="none" stroke="#231F20" d="M177.974,265.547c0,0-0.171-1.539,1.367-0.854
	c1.538,0.683,118.261-0.172,138.426,27.515C317.767,292.207,298.969,270.673,177.974,265.547z"/>
<path id="path746" fill="none" stroke="#231F20" d="M187.885,262.129c0,0-0.171-1.538,1.367-0.854
	c1.538,0.682,149.704-10.425,169.87,17.259C359.123,278.534,350.922,256.659,187.885,262.129z"/>
<path id="path750" fill="none" stroke="#231F20" d="M196.43,258.027c0,0-0.171-1.538,1.368-0.854
	c1.538,0.685,105.956-32.3,126.122-4.613C323.92,252.56,312.469,231.538,196.43,258.027z"/>
<path id="path754" fill="none" stroke="#231F20" d="M146.87,277.51c0,0-0.17-1.538,1.367-0.854
	c1.538,0.684,16.748,2.562,18.456,35.717C166.694,312.372,160.542,276.484,146.87,277.51z"/>
<path id="path758" fill="none" stroke="#231F20" d="M139.351,278.877c0,0-0.171-1.538,1.367-0.854
	c1.538,0.683,13.672-3.247,11.279,29.906C151.997,307.929,153.023,277.851,139.351,278.877z"/>
<path id="path762" fill="none" stroke="#231F20" d="M132.516,279.219c0,0-0.171-1.539,1.366-0.854
	c1.539,0.684,14.697,1.195,4.102,20.336C137.984,298.7,146.187,278.193,132.516,279.219z"/>
<path id="path766" fill="none" stroke="#231F20" d="M172.954,241.334c0,0-0.379,1.708,0.943,0.668
	c13.73-10.788,41.451-61.119,89.033-65.933C262.931,176.07,230.198,165.722,172.954,241.334z"/>
<path id="path770" fill="none" stroke="#231F20" d="M182.525,239.796c0,0-1.165-1.02,0.432-1.554
	c1.597-0.534,97.676-62.485,131.243-55.679C314.199,182.564,291.038,176.146,182.525,239.796z"/>
<path id="path774" fill="none" stroke="#231F20" d="M164.716,245.011c0,0-0.436,1.366,1.027,0.532
	c7.669-4.375,10.758-53.261,47.993-54.333C213.737,191.209,186.043,178.637,164.716,245.011z"/>
<path id="path778" fill="none" stroke="#231F20" d="M147.693,254.432c0,0-0.92,1.099,0.749,0.882
	c8.755-1.138,27.045-36.403,65.018-32.063C213.458,223.25,186.144,210.992,147.693,254.432z"/>
<path id="path782" fill="none" stroke="#231F20" d="M157.295,249.197c0,0-0.693,1.255,0.904,0.721
	c8.373-2.797,19.554-40.917,57.652-43.948C215.852,205.97,186.692,199.183,157.295,249.197z"/>
<path id="path786" fill="none" stroke="#231F20" d="M141.677,258.807c0,0-0.746,0.89,0.606,0.714
	c7.091-0.923,21.905-29.487,52.663-25.971C194.947,233.549,172.822,223.62,141.677,258.807z"/>
<path id="path790" fill="none" stroke="#231F20" d="M135.184,263.854c0,0-0.857,0.894,0.5,0.792
	c3.562-0.264,29.741-28.529,45.522-15.283C181.206,249.363,170.94,233.365,135.184,263.854z"/>
<path id="path794" fill="none" stroke="#231F20" d="M194.597,236.578c0,0-1.024-1.158,0.625-1.487
	c1.65-0.328,104.789-49.643,137.229-38.649C332.448,196.441,310.283,187.15,194.597,236.578z"/>
<path id="path798" fill="none" stroke="#231F20" d="M166.011,291.523c0,0-0.171-1.539,1.367-0.854
	c1.538,0.684,14.697,1.196,4.102,20.336C171.479,311.005,179.682,290.498,166.011,291.523z"/>
<path id="path802" fill="none" stroke="#231F20" d="M174.898,290.156c0,0-0.171-1.539,1.367-0.854
	c1.538,0.685,16.748,2.563,18.457,35.718C194.721,325.02,188.569,289.13,174.898,290.156z"/>
<path id="path806" fill="none" stroke="#231F20" d="M180.708,288.789c0,0-0.171-1.539,1.367-0.854
	c1.537,0.683,22.559,3.589,42.724,31.272C224.799,319.207,194.38,287.763,180.708,288.789z"/>
<path id="path810" fill="none" stroke="#231F20" d="M187.223,287.055c0,0-0.373-1.502,1.242-1.028
	c1.615,0.474,19.075-1.15,51.628,28.054C240.094,314.08,200.638,284.222,187.223,287.055z"/>
<path id="path814" fill="none" stroke="#231F20" d="M196.11,283.295c0,0-0.374-1.502,1.241-1.028s31.38,4.318,75.554,34.206
	C272.906,316.473,209.524,280.461,196.11,283.295z"/>
<path id="path818" fill="none" stroke="#231F20" d="M161.568,273.408c0,0-0.171-1.538,1.367-0.854
	c1.538,0.685,47.167,2.905,73.145,25.806C236.078,298.359,206.256,277.189,161.568,273.408z"/>
<path id="path822" fill="none" stroke="#231F20" d="M153.023,276.825c0,0-0.171-1.537,1.368-0.854
	c1.538,0.686,22.559,3.588,42.724,31.274C197.114,307.246,166.694,275.801,153.023,276.825z"/>
<path id="path826" fill="none" stroke="#231F20" d="M205.405,279.355c0,0-0.482-1.47,1.163-1.116
	c1.646,0.353,31.612,2.007,77.858,28.575C284.426,306.814,218.064,277.427,205.405,279.355z"/>
<path id="path830" fill="none" stroke="#231F20" d="M212.582,277.305c0,0-0.482-1.471,1.164-1.116
	c1.646,0.353,31.611,2.007,77.856,28.576C291.603,304.765,225.753,275.034,212.582,277.305z"/>
<path id="path834" fill="none" stroke="#231F20" d="M220.786,273.033c0,0-0.483-1.472,1.163-1.117
	c1.646,0.353,38.447,4.058,115.113,33.361C337.062,305.277,233.957,270.762,220.786,273.033z"/>
<path id="path838" fill="none" stroke="#231F20" stroke-miterlimit="10" d="M125.679,278.877c0,0,4.443-0.343,3.417,1.024
	c-1.023,1.367-3.076,0.685-3.076,0.685L125.679,278.877z"/>
<path id="path842" fill="none" stroke="#231F20" stroke-miterlimit="10" d="M151.997,290.839c0,0,4.442-0.341,3.418,1.026
	c-1.025,1.367-3.076,0.683-3.076,0.683L151.997,290.839z"/>
<path id="path846" fill="none" stroke="#231F20" stroke-miterlimit="10" d="M144.478,290.498c0,0,4.443-0.342,3.417,1.025
	c-1.024,1.366-3.076,0.684-3.076,0.684L144.478,290.498z"/>
<path id="path850" fill="none" stroke="#231F20" stroke-miterlimit="10" d="M62.987,280.398c0,0,4.312,1.131,2.896,2.087
	c-1.416,0.956-3.131-0.36-3.131-0.36L62.987,280.398z"/>
<path id="path854" fill="none" stroke="#231F20" stroke-miterlimit="10" d="M64.696,272.195c0,0,4.312,1.131,2.896,2.087
	c-1.416,0.957-3.131-0.361-3.131-0.361L64.696,272.195z"/>
<path id="path858" fill="none" stroke="#231F20" stroke-miterlimit="10" d="M58.544,268.436c0,0,4.312,1.131,2.895,2.087
	c-1.417,0.957-3.131-0.361-3.131-0.361L58.544,268.436z"/>
<path id="path862" fill="none" stroke="#231F20" stroke-miterlimit="10" d="M126.705,332.538c0,0-1.367,0-4.785,1.709
	c-1.709,0-11.279,3.076-16.064,11.62C105.856,345.867,116.451,337.664,126.705,332.538z"/>
<path id="path866" fill="none" stroke="#231F20" stroke-miterlimit="10" d="M201.656,411.702c0.121,0.222,0.168,0.579,0.418,0.595
	c0.562,0.034,1.615,0.291,1.509-0.253c-0.726-3.679-1.472-7.897-5.003-9.44c-0.546-0.237-1.778,0.113-1.842,0.868
	c-0.108,1.304-0.208,2.455,0.057,3.707c0.256,1.216,2.1,1.227,2.884,0.041C200.477,408.648,200.846,410.223,201.656,411.702z"/>
<path id="path870" fill="none" stroke="#231F20" stroke-miterlimit="10" d="M192.191,415.747c0.64,1.207,0.53,2.797,1.739,3.276
	c0.632,0.252,2.213-0.582,1.856-1.5c-0.686-1.763-1.018-3.674-2.204-5.224c-0.171-0.224,0.034-0.679-0.103-0.959
	c-0.508-1.042-1.485-1.671-2.688-1.39c-0.953,1.882,0.027,3.701,1.329,5.162C192.236,415.246,192.094,415.566,192.191,415.747z"/>
<path id="path874" fill="none" stroke="#231F20" stroke-miterlimit="10" d="M158.352,411.313c-0.093-0.321-0.125-0.72,0.017-0.991
	c0.452-0.886,1.131-1.845,0.843-2.716c-0.297-0.901-1.251-0.748-1.808-0.262c-0.969,0.852-1.011,2.409-1.604,3.57
	c-0.167,0.33-0.124,0.82-0.501,1.152c-0.405,0.358-0.781,1.662-0.699,2.148c0.045,0.271-0.11,8.733,0.078,8.51
	c0.529-0.625,3.135-8.942,3.195-9.705C157.925,412.396,158.55,412,158.352,411.313z"/>
<path id="path878" fill="none" stroke="#231F20" stroke-miterlimit="10" d="M136.445,405.51c2.25-2.137,4.635-4.667,4.257-7.839
	c-0.1-0.834-1.616-0.383-1.775,0.339c-0.685,3.102-2.428,5.372-4.622,7.417c-1.877,1.748-3.467,7.169-3.668,7.604
	C133.794,408.539,135.723,406.191,136.445,405.51z"/>
<path id="path882" fill="none" stroke="#231F20" stroke-miterlimit="10" d="M124.846,400.413c0.446-0.316,0.188-0.735,0.374-1.021
	c0.814-1.246,1.926-2.312,1.941-3.796c0.002-0.235-0.32-0.502-0.607-0.311c-0.234,0.155-0.529,0.269-0.622,0.38
	c-1.732,2.092-2.93,4.375-4.163,6.777c-0.157,0.306-1.134,4.143-0.867,4.234c0.204,0.073,1.675-3.5,1.854-3.598
	C123.836,402.499,123.846,401.119,124.846,400.413z"/>
<path id="path886" fill="none" stroke="#231F20" stroke-miterlimit="10" d="M139.144,417.113c0.379-0.743,1.727-1.771,1.629-2.529
	c-0.101-0.793,0.299-2.025-0.479-1.438c-1.074,0.81-4.021,1.963-4.252,6.926C136.019,420.559,138.559,418.258,139.144,417.113z"/>
<path id="path890" fill="none" stroke="#231F20" stroke-miterlimit="10" d="M151.485,402.436c0.343-0.568,0.947-0.168,1.338-0.393
	c0.556-0.316,1.077-0.795,1.326-1.35c0.829-1.836,2.34-3.394,2.462-5.438c-1.272-1.201-1.854,0.542-2.394,1.367
	c-1.13-1.406-1.982,0.194-3.095,0.638c-0.061,0.023-0.242-0.271-0.307-0.25c-1.006,0.376-1.586,1.301-2.438,1.967
	c-0.146,0.115-0.492-0.037-0.618,0.077c-0.557,0.519-1.389,0.792-1.627,1.376c-0.949,2.313-3.632,4.104-5.245,10.547
	c0.326,0.778,3.855-5.675,4.271-6.271c0.715-1.022,0.813,1.419,1.905,0.851c0.044-0.021,0.203,0.183,0.317,0.295
	c0.166-0.237,0.352-0.437,0.683-0.343c0-0.342-0.113-0.813,0.059-0.952c1.057-0.836,0.984-1.748,1.651-2.809
	C150.167,402.425,151.074,401.813,151.485,402.436z"/>
<path id="path894" fill="none" stroke="#231F20" stroke-miterlimit="10" d="M202.583,448.919c0,0,6.322-17.433,2.562-27.003
	c0,0,9.741,18.457,5.811,28.027c0,0-0.343-8.887-3.761-13.159C207.197,436.784,203.779,447.722,202.583,448.919z"/>
<path id="path898" fill="none" stroke="#231F20" stroke-miterlimit="10" d="M189.936,446.697c0,0,4.614-7.521-2.222-23.242
	c0,0-0.685,17.432-6.494,26.83C181.22,450.285,193.354,433.025,189.936,446.697z"/>
<path id="path902" fill="none" stroke="#231F20" stroke-miterlimit="10" d="M181.391,444.988c0,0-0.171-17.09,0.171-19.653
	c0,0-3.247,14.185-11.963,22.387C169.599,447.722,181.905,437.469,181.391,444.988z"/>
<path id="path906" fill="none" stroke="#231F20" stroke-miterlimit="10" d="M173.189,417.645c0,0,5.126,11.621-3.418,27.347
	c0,0,5.469-10.427,1.368-16.406C171.138,428.582,173.36,425.676,173.189,417.645z"/>
<path id="path910" fill="none" stroke="#231F20" stroke-miterlimit="10" d="M156.782,444.646c0,0-0.854-13.33,0.684-15.209
	c0,0,0.171-5.473-0.171-6.323c0,0,3.418-5.298,3.589,1.022c0,0,1.196,6.664,3.589,10.598c0,0,3.076,4.611,2.905,10.082
	C167.378,444.816,158.833,419.012,156.782,444.646z"/>
<path id="path914" fill="none" stroke="#231F20" stroke-miterlimit="10" d="M153.706,421.063c0,0-5.641,9.229-7.178,25.463
	c0,0-1.195-5.299,2.051-17.604C148.579,428.923,152.169,415.764,153.706,421.063z"/>
<path id="path918" fill="none" stroke="#231F20" stroke-miterlimit="10" d="M135.079,437.98c0,0,4.271-4.614,5.469-8.89
	c0,0,3.076-13.5-2.394-6.149c0,0,0.172,6.836-6.836,13.156C131.319,436.102,135.421,434.051,135.079,437.98z"/>
<path id="path922" fill="none" stroke="#231F20" stroke-miterlimit="10" d="M130.123,433.708c0,0,2.904-14.868,3.589-15.551
	c0,0,1.538-2.904-0.854-0.172c0,0-7.52,16.405-10.938,22.047C121.92,440.032,128.756,432.171,130.123,433.708z"/>
<path id="path926" fill="none" stroke="#231F20" stroke-miterlimit="10" d="M125.167,419.523c0,0,9.912-19.142-8.716,2.903
	C116.451,422.43,125.85,414.055,125.167,419.523z"/>
<path id="path930" fill="none" stroke="#231F20" stroke-miterlimit="10" d="M112.008,407.048c0,0,4.104-16.063,6.323-15.893
	c0,0,7.007-7.691,1.366,1.368c0,0-5.127,8.201-4.613,16.576C115.084,409.1,114.571,400.896,112.008,407.048z"/>
<path id="path934" fill="none" stroke="#231F20" stroke-miterlimit="10" d="M394.241,397.307c0,0-10.253-8.544-12.39-11.535
	c0,0,11.535,15.81,11.535,21.789C393.387,407.561,395.524,401.15,394.241,397.307z"/>
<path id="path938" fill="none" stroke="#231F20" stroke-miterlimit="10" d="M398.941,378.508c0,0-17.943-12.816-20.937-19.226
	c0,0,22.646,25.207,22.646,29.053C400.65,388.335,401.077,380.645,398.941,378.508z"/>
<path id="path942" fill="none" stroke="#231F20" stroke-miterlimit="10" d="M413.469,246.919c0,0-10.254-6.837-11.535-5.127
	c0,0,8.975,5.553,11.106,12.817C413.04,254.608,411.76,246.919,413.469,246.919z"/>
<path id="path946" fill="none" stroke="#231F20" stroke-miterlimit="10" d="M420.732,315.704l-14.955-10.255
	c0,0,16.234,14.527,16.664,17.945L420.732,315.704z"/>
<path id="path950" fill="none" stroke="#231F20" d="M86.844,296.478l18.798,4.059"/>
<path id="path954" fill="none" stroke="#231F20" d="M129.781,434.904c0,0-0.427-2.991-8.117,5.979"/>
<path id="path958" fill="none" stroke="#231F20" d="M134.481,439.176c0,0,1.709-5.554-3.845-1.709"/>
<path id="path962" fill="none" stroke="#231F20" d="M180.623,446.439c0,0,1.281-9.399-8.545,1.709"/>
</svg>
