<?xml version="1.0" encoding="utf-8"?>
<!-- Generator: Adobe Illustrator 16.0.0, SVG Export Plug-In . SVG Version: 6.00 Build 0)  -->
<!DOCTYPE svg PUBLIC "-//W3C//DTD SVG 1.1//EN" "http://www.w3.org/Graphics/SVG/1.1/DTD/svg11.dtd">
<svg version="1.1"
	 id="svg2" xmlns:svg="http://www.w3.org/2000/svg" xmlns:cc="http://creativecommons.org/ns#" xmlns:rdf="http://www.w3.org/1999/02/22-rdf-syntax-ns#" xmlns:inkscape="http://www.inkscape.org/namespaces/inkscape" xmlns:sodipodi="http://sodipodi.sourceforge.net/DTD/sodipodi-0.dtd" xmlns:dc="http://purl.org/dc/elements/1.1/" sodipodi:docname="Treble_clef.svg" inkscape:version="0.48.0 r9654" sodipodi:version="0.34"
	 xmlns="http://www.w3.org/2000/svg" xmlns:xlink="http://www.w3.org/1999/xlink" x="0px" y="0px" width="433.971px"
	 height="432.1px" viewBox="0 0 433.971 432.1" enable-background="new 0 0 433.971 432.1" xml:space="preserve">
<sodipodi:namedview  id="base" fit-margin-left="0" fit-margin-top="0" showgrid="false" inkscape:cy="526.3813" inkscape:cx="630.26081" inkscape:zoom="0.35355339" bordercolor="#666666" borderopacity="1.0" pagecolor="#ffffff" inkscape:window-y="-4" fit-margin-right="0" inkscape:current-layer="svg2" inkscape:window-maximized="1" inkscape:window-height="749" inkscape:window-width="1366" fit-margin-bottom="0" inkscape:window-x="-4" inkscape:pageopacity="0.0" inkscape:pageshadow="2">
	</sodipodi:namedview>
<g id="g3041" transform="translate(9131.729,5055.94)">
	<path id="path9" inkscape:connector-curvature="0" fill="none" stroke="#131516" stroke-width="3" d="M-8907.776-4915.282
		c-3.691,1.31-6.922,3.887-9.819,7.677c-2.895,3.853-4.156,7.962-3.855,12.271c0.189,2.709,1.331,5.722,3.349,8.86
		c2.021,3.2,4.905,5.41,8.53,6.704c1.189,0.164,1.789,0.741,1.85,1.603c0.021,0.308-0.39,0.646-1.422,0.965
		c-5.715-1.022-10.555-3.716-14.447-7.96c-3.898-4.305-6.111-9.347-6.648-15.249c-0.258-6.353,1.242-12.397,4.504-18.069
		c3.32-5.737,7.801-9.948,13.442-12.632l-5.786-21.557c-8.953,8.544-16.096,17.271-21.479,26.309
		c-5.388,8.976-7.823,18.487-7.369,28.541c0.438,4.485,1.669,8.792,3.689,12.857c2.025,4.127,4.885,7.763,8.586,11.03
		c7.46,6.469,16.787,9.467,27.859,9.063c3.746-0.509,7.71-1.467,11.953-2.877L-8907.776-4915.282z M-8903.376-4916.208
		l12.938,46.668c9.236-4.481,13.407-13.125,12.52-25.806c-0.852-4.209-2.353-7.94-4.688-11.18c-2.277-3.305-5.182-5.824-8.776-7.553
		C-8894.977-4915.806-8898.933-4916.519-8903.376-4916.208z M-8920.504-4979.35c1.949-1.374,4.145-3.693,6.464-6.886
		c2.323-3.131,4.546-6.814,6.616-10.917c2.127-4.17,3.756-8.367,4.887-12.592c1.135-4.162,1.543-8.088,1.293-11.659
		c-0.107-1.539-0.338-3.069-0.742-4.401c-0.4-2.199-1.201-3.876-2.455-4.964c-1.25-1.026-2.773-1.538-4.625-1.408
		c-3.703,0.258-6.877,2.769-9.52,7.533c-2.008,4.1-3.594,8.912-4.582,14.302c-1.045,5.455-1.477,10.806-1.226,16.17
		C-8923.658-4988.1-8922.322-4983.182-8920.504-4979.35L-8920.504-4979.35z M-8924.143-4975.507
		c-3.475-9.779-5.727-19.829-6.76-30.151c-0.402-6.653-0.159-12.918,0.732-18.796c0.829-5.874,2.271-10.985,4.314-15.458
		c1.982-4.469,4.407-7.918,7.215-10.341c2.516-2.156,4.355-3.336,5.404-3.409c0.803-0.056,1.504,0.204,2.159,0.715
		c0.656,0.511,1.522,1.378,2.597,2.541c8.07,9.89,12.652,22.19,13.676,36.843c0.486,6.957,0.035,13.793-1.344,20.695
		c-1.319,6.835-3.525,13.423-6.625,19.641c-3.158,6.284-6.988,11.81-11.549,16.645l6.694,23.907
		c2.693-0.498,4.527-0.874,5.577-0.947c4.689-0.328,8.955,0.364,12.98,2.062s7.544,4.113,10.496,7.309
		c2.947,3.135,5.313,6.805,7.096,11.011c1.721,4.21,2.838,8.648,3.164,13.328c0.508,7.264-0.939,14.047-4.349,20.286
		c-3.409,6.239-8.843,11.012-16.358,14.383c0.705,2.982,1.874,7.292,3.562,12.804c1.631,5.578,2.87,10.007,3.72,13.289
		c0.85,3.28,1.32,6.465,1.54,9.604c0.34,4.863-0.531,9.254-2.609,13.235c-2.14,3.985-5.143,7.165-9.069,9.543
		c-3.864,2.373-8.234,3.729-13.049,4.067c-6.788,0.475-12.846-1.021-18.169-4.422c-5.327-3.463-8.4-8.383-9.103-14.892
		c-0.018-2.905,0.472-5.663,1.525-8.334s2.572-4.882,4.621-6.634c1.982-1.809,4.452-2.847,7.34-3.235
		c2.406-0.168,4.738,0.35,6.988,1.491c2.192,1.209,4.045,2.873,5.501,5.061c1.394,2.191,2.249,4.668,2.438,7.377
		c0.254,3.633-0.766,6.797-3.058,9.493s-5.349,4.21-9.114,4.474l-1.418,0.099c2.664,3.526,6.748,5.158,12.24,4.774
		c2.777-0.194,5.572-1.008,8.334-2.314c2.818-1.373,5.118-3.081,7.017-5.193c1.899-2.111,3.11-4.299,3.511-6.555
		c0.873-2.598,1.121-6.141,0.816-10.512c-0.207-2.957-0.723-5.89-1.485-8.805c-0.757-2.855-1.893-6.673-3.401-11.394
		c-1.504-4.658-2.625-8.292-3.296-10.781c-3.638,1.182-7.431,1.942-11.442,2.223c-6.727,0.47-13.177-0.44-19.357-2.792
		c-6.18-2.352-11.692-5.802-16.604-10.408c-4.85-4.61-8.754-9.905-11.724-16.007c-2.903-6.045-4.656-12.48-5.191-19.248
		c-0.192-6.297,0.559-12.412,2.384-18.232c1.822-5.881,4.282-11.496,7.447-16.791c3.164-5.294,6.482-10.167,9.959-14.555
		C-8934.627-4963.144-8929.994-4968.726-8924.143-4975.507L-8924.143-4975.507z"/>
	<path id="path9-7" inkscape:connector-curvature="0" fill="none" stroke="#131516" stroke-width="3" d="M-8995.637-4859.918
		c0.104,3.916,1.558,7.784,4.268,11.711c2.77,3.942,6.287,6.413,10.479,7.458c2.635,0.657,5.854,0.503,9.461-0.447
		c3.668-0.935,6.662-2.993,9.012-6.042c0.523-1.081,1.258-1.472,2.096-1.263c0.3,0.075,0.494,0.569,0.479,1.65
		c-2.739,5.119-6.796,8.889-12.035,11.281c-5.299,2.375-10.778,2.922-16.558,1.609c-6.121-1.718-11.406-5.012-15.793-9.867
		c-4.432-4.93-7.051-10.493-7.86-16.688l-22.29-1.158c5.359,11.154,11.453,20.644,18.384,28.557
		c6.872,7.898,15.166,13.154,24.866,15.827c4.402,0.97,8.877,1.129,13.369,0.464c4.551-0.65,8.892-2.246,13.143-4.756
		c8.458-5.098,14.191-13.04,17.229-23.695c0.673-3.72,0.987-7.787,0.957-12.257L-8995.637-4859.918z M-8995.158-4864.39
		l48.383,2.117c-1.407-10.17-8.338-16.808-20.674-19.883c-4.268-0.489-8.279-0.215-12.08,1.006
		c-3.848,1.145-7.142,3.128-9.896,6.012C-8992.18-4872.255-8994.08-4868.712-8995.158-4864.39z M-9060.502-4867.612
		c-0.705-2.279-2.23-5.083-4.553-8.275c-2.26-3.178-5.074-6.43-8.338-9.667c-3.309-3.311-6.797-6.158-10.465-8.539
		c-3.607-2.366-7.216-3.967-10.689-4.833c-1.496-0.373-3.023-0.626-4.416-0.655c-2.215-0.297-4.057-0.054-5.479,0.802
		c-1.363,0.872-2.32,2.163-2.77,3.964c-0.898,3.602,0.51,7.396,4.223,11.382c3.277,3.176,7.365,6.172,12.186,8.776
		c4.865,2.68,9.82,4.744,15,6.163C-9069.799-4867.315-9064.709-4867.066-9060.502-4867.612z M-9057.973-4862.964
		c-10.373,0.282-20.629-0.681-30.764-2.889c-6.451-1.672-12.336-3.84-17.65-6.504c-5.328-2.604-9.745-5.554-13.367-8.88
		c-3.639-3.266-6.169-6.639-7.606-10.057c-1.272-3.059-1.826-5.173-1.572-6.194c0.194-0.781,0.659-1.366,1.348-1.832
		s1.782-1.022,3.219-1.684c11.9-4.62,25.015-5.176,39.266-1.624c6.767,1.688,13.13,4.23,19.267,7.674
		c6.094,3.368,11.678,7.501,16.634,12.371c4.999,4.944,9.072,10.295,12.261,16.127l24.806,1.02c0.358-2.715,0.568-4.576,0.823-5.597
		c1.137-4.563,3.113-8.405,5.973-11.708c2.858-3.304,6.242-5.904,10.193-7.723c3.892-1.835,8.113-2.951,12.664-3.347
		c4.535-0.335,9.102-0.025,13.652,1.109c7.066,1.762,13.07,5.235,17.95,10.405c4.882,5.17,7.741,11.812,8.624,20.003
		c3.055,0.251,7.516,0.471,13.278,0.568c5.81,0.173,10.404,0.362,13.788,0.568c3.383,0.206,6.557,0.742,9.61,1.504
		c4.731,1.18,8.638,3.365,11.782,6.572c3.129,3.267,5.225,7.105,6.272,11.574c1.063,4.409,1.004,8.984-0.163,13.667
		c-1.646,6.603-4.939,11.903-9.82,15.914c-4.939,3.996-10.568,5.397-16.976,4.056c-2.77-0.881-5.239-2.197-7.455-4.025
		s-3.848-3.956-4.881-6.445c-1.107-2.443-1.333-5.113-0.81-7.979c0.584-2.341,1.797-4.397,3.578-6.185
		c1.826-1.711,3.981-2.961,6.512-3.668c2.516-0.648,5.135-0.695,7.77-0.039c3.533,0.881,6.229,2.828,8.084,5.84
		c1.855,3.015,2.352,6.389,1.438,10.051l-0.344,1.381c4.176-1.445,6.99-4.824,8.322-10.168c0.674-2.701,0.764-5.611,0.375-8.642
		c-0.436-3.104-1.349-5.819-2.771-8.278c-1.423-2.458-3.129-4.287-5.149-5.364c-2.202-1.633-5.495-2.964-9.747-4.024
		c-2.874-0.716-5.823-1.132-8.832-1.31c-2.948-0.161-6.931-0.261-11.886-0.286c-4.896-0.009-8.698-0.064-11.273-0.196
		c0,3.825-0.448,7.667-1.422,11.569c-1.63,6.542-4.49,12.397-8.635,17.547c-4.146,5.149-9.132,9.328-15.029,12.575
		c-5.883,3.188-12.126,5.266-18.848,6.204c-6.646,0.894-13.309,0.571-19.91-1.011c-6.048-1.764-11.631-4.367-16.602-7.901
		c-5.031-3.549-9.611-7.624-13.669-12.269c-4.058-4.646-7.665-9.309-10.765-13.971
		C-9049.453-4849.172-9053.331-4855.304-9057.973-4862.964L-9057.973-4862.964z"/>
	<path id="path9-4" inkscape:connector-curvature="0" fill="none" stroke="#131516" stroke-width="3" d="M-8969.707-4759.585
		c3.756,1.11,7.885,0.926,12.457-0.438c4.605-1.417,8.042-3.999,10.332-7.662c1.438-2.303,2.287-5.412,2.499-9.137
		c0.244-3.776-0.789-7.26-2.962-10.438c-0.865-0.831-1.012-1.65-0.553-2.383c0.163-0.262,0.693-0.294,1.717,0.055
		c4.021,4.188,6.354,9.209,7.01,14.933c0.623,5.774-0.551,11.153-3.585,16.244c-3.526,5.292-8.292,9.3-14.266,11.973
		c-6.058,2.69-12.158,3.463-18.3,2.318l-7.989,20.842c12.265-1.65,23.173-4.514,32.841-8.661
		c9.635-4.095,17.195-10.358,22.736-18.758c2.282-3.887,3.817-8.094,4.572-12.57c0.787-4.529,0.611-9.15-0.462-13.971
		c-2.233-9.618-8.016-17.525-17.211-23.707c-3.331-1.791-7.101-3.346-11.362-4.698L-8969.707-4759.585z M-8973.812-4761.421
		l16.965-45.36c-10.107-1.804-18.562,2.737-25.298,13.519c-1.785,3.905-2.764,7.807-2.779,11.799c-0.1,4.014,0.77,7.76,2.662,11.27
		C-8980.371-4766.685-8977.589-4763.783-8973.812-4761.421L-8973.812-4761.421z M-8997.068-4700.271
		c-2.385-0.035-5.523,0.551-9.276,1.771c-3.722,1.168-7.685,2.84-11.771,4.944c-4.172,2.123-7.957,4.562-11.355,7.313
		c-3.364,2.699-6.002,5.636-7.898,8.672c-0.817,1.309-1.53,2.682-1.988,3.998c-0.967,2.016-1.305,3.84-0.93,5.457
		c0.408,1.565,1.34,2.875,2.914,3.859c3.148,1.968,7.191,1.8,12.129-0.498c4.035-2.139,8.146-5.1,12.113-8.878
		c4.053-3.799,7.547-7.874,10.496-12.362C-8999.658-4691.338-8997.85-4696.103-8997.068-4700.271L-8997.068-4700.271z
		 M-8991.865-4701.241c-2.938,9.953-7.022,19.408-12.254,28.365c-3.585,5.619-7.465,10.543-11.641,14.775
		c-4.124,4.264-8.295,7.552-12.576,9.971c-4.231,2.451-8.221,3.814-11.916,4.125c-3.303,0.266-5.484,0.14-6.377-0.418
		c-0.682-0.426-1.096-1.049-1.326-1.848s-0.422-2.012-0.607-3.582c-0.715-12.747,2.808-25.391,10.592-37.846
		c3.695-5.916,8.08-11.181,13.252-15.953c5.086-4.754,10.742-8.787,16.904-11.996c6.249-3.229,12.596-5.447,19.128-6.679
		l8.636-23.274c-2.472-1.182-4.177-1.957-5.068-2.514c-3.988-2.491-7.031-5.558-9.291-9.298c-2.258-3.74-3.686-7.762-4.195-12.082
		c-0.542-4.27-0.298-8.628,0.732-13.079c1.082-4.417,2.787-8.664,5.273-12.642c3.859-6.174,9.017-10.812,15.441-13.855
		c6.426-3.043,13.627-3.711,21.688-2.02c1.183-2.828,2.771-7.002,4.646-12.453c1.959-5.472,3.559-9.783,4.801-12.938
		c1.241-3.154,2.732-6.007,4.4-8.675c2.583-4.135,5.869-7.176,9.891-9.175c4.073-1.966,8.371-2.773,12.945-2.39
		c4.522,0.352,8.855,1.823,12.948,4.379c5.771,3.606,9.794,8.375,12.101,14.256c2.274,5.935,1.869,11.721-1.389,17.397
		c-1.693,2.362-3.709,4.306-6.133,5.847c-2.423,1.543-4.951,2.438-7.639,2.649c-2.666,0.299-5.275-0.312-7.838-1.696
		c-2.047-1.278-3.628-3.067-4.777-5.313c-1.064-2.267-1.586-4.702-1.477-7.327c0.16-2.592,0.924-5.1,2.363-7.4
		c1.93-3.088,4.613-5.049,8.053-5.884c3.439-0.835,6.802-0.262,10.002,1.738l1.207,0.754c-0.084-4.419-2.428-8.14-7.098-11.057
		c-2.359-1.476-5.102-2.46-8.104-3.026c-3.086-0.546-5.949-0.517-8.729,0.077c-2.777,0.593-5.043,1.651-6.692,3.239
		c-2.233,1.589-4.517,4.31-6.839,8.026c-1.57,2.513-2.877,5.188-3.975,7.996c-1.064,2.755-2.391,6.511-3.945,11.216
		c-1.521,4.652-2.749,8.251-3.67,10.66c3.639,1.182,7.152,2.796,10.563,4.927c5.719,3.574,10.403,8.103,14.021,13.638
		s6.05,11.565,7.315,18.179c1.213,6.581,1.261,13.159,0.076,19.842c-1.205,6.598-3.57,12.834-7.114,18.624
		c-3.546,5.207-7.747,9.713-12.646,13.349c-4.93,3.688-10.221,6.785-15.894,9.207c-5.671,2.424-11.22,4.414-16.61,5.922
		C-8976.117-4705.083-8983.146-4703.288-8991.865-4701.241z"/>
	<path id="path9-0" inkscape:connector-curvature="0" fill="none" stroke="#131516" stroke-width="3" d="M-8866.163-4753.099
		c2.216-3.229,3.315-7.213,3.431-11.982c0.076-4.817-1.316-8.885-4.094-12.193c-1.745-2.08-4.439-3.848-7.916-5.2
		c-3.517-1.399-7.148-1.494-10.842-0.408c-1.059,0.565-1.883,0.451-2.438-0.211c-0.199-0.235-0.065-0.751,0.582-1.616
		c5.225-2.529,10.723-3.197,16.367-2.052c5.685,1.192,10.438,3.97,14.342,8.429c3.943,4.99,6.282,10.762,6.977,17.268
		c0.688,6.593-0.463,12.633-3.449,18.121l17.353,14.039c2.221-12.174,2.868-23.434,1.911-33.91
		c-0.916-10.428-4.537-19.555-10.813-27.42c-2.991-3.372-6.519-6.132-10.542-8.234c-4.064-2.147-8.515-3.408-13.43-3.877
		c-9.838-0.849-19.145,2.209-27.865,9.043c-2.732,2.613-5.377,5.72-7.98,9.354L-8866.163-4753.099L-8866.163-4753.099z
		 M-8869.178-4749.763l-37.899-30.15c-4.839,9.055-3.132,18.498,5.039,28.237c3.164,2.904,6.571,5.04,10.364,6.288
		c3.785,1.335,7.615,1.666,11.539,0.952S-8872.591-4746.9-8869.178-4749.763z M-8818.208-4708.749
		c-0.771,2.258-1.183,5.424-1.183,9.371c-0.038,3.899,0.327,8.186,1.065,12.722c0.729,4.624,1.879,8.978,3.447,13.06
		c1.528,4.035,3.505,7.451,5.807,10.191c0.991,1.184,2.078,2.285,3.188,3.126c1.618,1.542,3.25,2.429,4.904,2.571
		c1.614,0.096,3.148-0.387,4.569-1.58c2.844-2.386,3.936-6.281,3.275-11.688c-0.786-4.497-2.332-9.323-4.7-14.265
		c-2.362-5.026-5.157-9.609-8.515-13.803C-8810.513-4703.523-8814.484-4706.715-8818.208-4708.749z M-8817.523-4713.995
		c8.56,5.869,16.289,12.674,23.191,20.418c4.236,5.146,7.722,10.357,10.455,15.637c2.781,5.24,4.621,10.223,5.596,15.042
		c1.023,4.78,1.089,8.997,0.242,12.606c-0.769,3.223-1.563,5.26-2.369,5.937c-0.616,0.517-1.336,0.718-2.167,0.688
		c-0.831-0.027-2.042-0.22-3.594-0.528c-12.343-3.257-23.28-10.517-32.721-21.767c-4.482-5.344-8.135-11.141-11.077-17.533
		c-2.949-6.308-5.037-12.934-6.184-19.787c-1.139-6.938-1.288-13.662-0.44-20.254l-19.468-15.404
		c-1.888,1.984-3.15,3.367-3.955,4.043c-3.603,3.021-7.46,4.971-11.715,5.963c-4.255,0.993-8.52,1.107-12.787,0.255
		c-4.228-0.802-8.298-2.382-12.213-4.735c-3.866-2.396-7.379-5.33-10.393-8.922c-4.682-5.578-7.497-11.917-8.406-18.968
		c-0.91-7.051,0.682-14.106,4.779-21.252c-2.322-1.998-5.803-4.799-10.407-8.266c-4.597-3.555-8.204-6.408-10.819-8.563
		c-2.617-2.155-4.869-4.455-6.893-6.867c-3.134-3.734-5.01-7.799-5.669-12.242c-0.61-4.481-0.051-8.818,1.728-13.051
		c1.732-4.19,4.471-7.857,8.167-10.959c5.213-4.374,10.992-6.726,17.298-7.103c6.346-0.329,11.723,1.845,16.118,6.697
		c1.722,2.341,2.946,4.858,3.664,7.639s0.788,5.462,0.161,8.083c-0.541,2.628-1.928,4.92-4.037,6.933
		c-1.848,1.551-4.038,2.502-6.529,2.899c-2.484,0.312-4.962,0.054-7.424-0.858c-2.417-0.955-4.564-2.455-6.31-4.535
		c-2.341-2.791-3.376-5.949-3.106-9.479s1.853-6.549,4.744-8.975l1.09-0.915c-4.229-1.286-8.492-0.206-12.709,3.333
		c-2.133,1.789-3.916,4.09-5.383,6.771c-1.473,2.768-2.329,5.5-2.625,8.325c-0.294,2.825,0.013,5.308,1.015,7.367
		c0.819,2.614,2.702,5.627,5.519,8.983c1.904,2.27,4.045,4.34,6.376,6.252c2.291,1.863,5.454,4.285,9.448,7.217
		c3.955,2.885,6.998,5.164,9.004,6.785c2.248-3.096,4.869-5.939,7.949-8.524c5.166-4.334,10.92-7.39,17.303-9.12
		c6.381-1.729,12.869-2.178,19.551-1.339c6.632,0.879,12.904,2.867,18.893,6.058c5.902,3.186,11.104,7.361,15.514,12.521
		c3.856,4.98,6.844,10.37,8.787,16.15c1.983,5.828,3.295,11.817,3.846,17.961c0.551,6.143,0.73,12.036,0.498,17.628
		C-8816.309-4730.161-8816.775-4722.92-8817.523-4713.995L-8817.523-4713.995z"/>
	<path id="path9-9" inkscape:connector-curvature="0" fill="none" stroke="#131516" stroke-width="3" d="M-8827.893-4849.452
		c-2.387-3.106-5.835-5.382-10.336-6.967c-4.559-1.562-8.857-1.492-12.862,0.125c-2.518,1.018-5.03,3.034-7.392,5.922
		c-2.418,2.912-3.63,6.338-3.739,10.185c0.212,1.182-0.152,1.93-0.952,2.253c-0.287,0.116-0.736-0.17-1.358-1.052
		c-0.792-5.752,0.272-11.186,3.105-16.201c2.891-5.037,7.001-8.701,12.448-11.035c5.963-2.208,12.176-2.65,18.578-1.3
		c6.482,1.384,11.872,4.344,16.168,8.881l18.715-12.165c-10.895-5.875-21.4-9.97-31.659-12.297
		c-10.202-2.351-20.001-1.728-29.421,1.811c-4.131,1.803-7.846,4.305-11.088,7.483c-3.299,3.201-5.873,7.044-7.838,11.573
		c-3.847,9.094-3.816,18.89-0.011,29.296c1.643,3.407,3.778,6.88,6.43,10.479L-8827.893-4849.452z M-8825.652-4845.554
		l-40.387,26.727c7.117,7.399,16.626,8.695,28.414,3.934c3.738-2.111,6.823-4.691,9.183-7.914c2.44-3.188,3.937-6.729,4.47-10.68
		S-8823.982-4841.423-8825.652-4845.554z M-8770.894-4881.356c1.909,1.431,4.793,2.802,8.546,4.021
		c3.697,1.242,7.887,2.218,12.428,2.918c4.624,0.735,9.119,0.986,13.486,0.757c4.31-0.207,8.17-1.033,11.488-2.373
		c1.43-0.578,2.814-1.271,3.957-2.066c1.968-1.062,3.314-2.34,3.961-3.869c0.591-1.506,0.606-3.115-0.09-4.835
		c-1.391-3.441-4.759-5.684-10.104-6.725c-4.52-0.644-9.587-0.665-15.019,0.063c-5.51,0.692-10.732,1.934-15.758,3.832
		C-8763.547-4887.06-8767.811-4884.269-8770.894-4881.356z M-8775.672-4883.628c8.228-6.326,17.089-11.575,26.586-15.746
		c6.203-2.44,12.238-4.144,18.102-5.112c5.844-1.026,11.15-1.235,16.037-0.674c4.862,0.504,8.892,1.746,12.064,3.667
		c2.828,1.727,4.518,3.111,4.912,4.086c0.301,0.746,0.271,1.493-0.013,2.274c-0.283,0.782-0.841,1.874-1.614,3.255
		c-6.912,10.732-17.195,18.89-30.813,24.393c-6.466,2.612-13.108,4.294-20.097,5.117c-6.91,0.857-13.857,0.795-20.729-0.232
		c-6.951-1.062-13.391-2.997-19.398-5.84l-20.668,13.754c1.305,2.409,2.229,4.037,2.623,5.013c1.762,4.359,2.422,8.629,2.051,12.983
		c-0.37,4.354-1.579,8.444-3.707,12.24c-2.07,3.772-4.83,7.155-8.279,10.15c-3.473,2.938-7.348,5.371-11.697,7.128
		c-6.752,2.728-13.65,3.444-20.637,2.132c-6.988-1.313-13.205-5.006-18.734-11.111c-2.618,1.592-6.357,4.035-11.077,7.342
		c-4.801,3.274-8.63,5.824-11.488,7.646s-5.741,3.253-8.659,4.433c-4.521,1.826-8.966,2.355-13.395,1.608
		c-4.451-0.804-8.402-2.677-11.879-5.677c-3.451-2.941-6.092-6.68-7.9-11.152c-2.549-6.31-3-12.533-1.41-18.646
		c1.647-6.137,5.377-10.58,11.35-13.259c2.76-0.915,5.532-1.301,8.398-1.125c2.867,0.177,5.438,0.939,7.737,2.346
		c2.333,1.326,4.085,3.354,5.345,5.981c0.903,2.236,1.132,4.613,0.742,7.105c-0.471,2.459-1.482,4.736-3.112,6.797
		c-1.655,2.002-3.745,3.58-6.263,4.598c-3.377,1.363-6.701,1.373-9.975,0.025c-3.272-1.346-5.656-3.785-7.07-7.283l-0.531-1.319
		c-2.53,3.624-2.82,8.013-0.759,13.117c1.044,2.581,2.682,4.987,4.778,7.21c2.176,2.257,4.51,3.917,7.105,5.068
		c2.596,1.152,5.052,1.629,7.32,1.313c2.74,0.026,6.188-0.832,10.25-2.474c2.746-1.109,5.377-2.506,7.914-4.133
		c2.482-1.602,5.762-3.86,9.785-6.754c3.965-2.871,7.074-5.062,9.234-6.467c-2.249-3.096-4.144-6.467-5.648-10.194
		c-2.527-6.252-3.655-12.669-3.328-19.273s1.904-12.913,4.768-19.007c2.886-6.038,6.715-11.387,11.601-16.097
		c4.853-4.629,10.431-8.285,16.702-10.885c5.93-2.128,11.977-3.304,18.076-3.367c6.155-0.084,12.256,0.52,18.271,1.893
		c6.014,1.374,11.671,3.024,16.919,4.975C-8790.671-4889.779-8783.93-4887.098-8775.672-4883.628z"/>
</g>
</svg>
