<?xml version="1.0" encoding="utf-8"?>
<!-- Generator: Adobe Illustrator 16.0.0, SVG Export Plug-In . SVG Version: 6.00 Build 0)  -->
<!DOCTYPE svg PUBLIC "-//W3C//DTD SVG 1.1//EN" "http://www.w3.org/Graphics/SVG/1.1/DTD/svg11.dtd">
<svg version="1.1"
	 id="svg2" xmlns:cc="http://creativecommons.org/ns#" xmlns:rdf="http://www.w3.org/1999/02/22-rdf-syntax-ns#" xmlns:inkscape="http://www.inkscape.org/namespaces/inkscape" xmlns:sodipodi="http://sodipodi.sourceforge.net/DTD/sodipodi-0.dtd" xmlns:dc="http://purl.org/dc/elements/1.1/" xmlns:svg="http://www.w3.org/2000/svg" sodipodi:docname="Treble_clef.svg" sodipodi:version="0.34" inkscape:version="0.48.0 r9654"
	 xmlns="http://www.w3.org/2000/svg" xmlns:xlink="http://www.w3.org/1999/xlink" x="0px" y="0px" width="433.971px"
	 height="432.1px" viewBox="0 0 433.971 432.1" enable-background="new 0 0 433.971 432.1" xml:space="preserve">
<sodipodi:namedview  id="base" fit-margin-left="0" fit-margin-top="0" showgrid="false" inkscape:cy="526.3813" inkscape:cx="630.26081" inkscape:zoom="0.35355339" bordercolor="#666666" borderopacity="1.0" pagecolor="#ffffff" inkscape:window-y="-4" fit-margin-right="0" inkscape:current-layer="svg2" inkscape:window-maximized="1" fit-margin-bottom="0" inkscape:pageopacity="0.0" inkscape:pageshadow="2" inkscape:window-height="749" inkscape:window-width="1366" inkscape:window-x="-4">
	</sodipodi:namedview>
<g id="g3041" transform="translate(9131.729,5055.94)">
	<path id="path9" inkscape:connector-curvature="0" fill="none" stroke="#131516" d="M-8950.644-4842.464
		c-3.691,1.31-6.922,3.887-9.819,7.677c-2.895,3.853-4.156,7.962-3.855,12.271c0.189,2.709,1.331,5.723,3.349,8.86
		c2.021,3.2,4.905,5.41,8.53,6.704c1.189,0.164,1.789,0.741,1.85,1.604c0.021,0.308-0.39,0.646-1.422,0.965
		c-5.715-1.022-10.555-3.717-14.447-7.961c-3.898-4.305-6.111-9.347-6.648-15.248c-0.258-6.354,1.242-12.397,4.504-18.069
		c3.32-5.737,7.801-9.948,13.442-12.632l-5.786-21.557c-8.953,8.544-16.096,17.271-21.479,26.309
		c-5.388,8.976-7.823,18.486-7.369,28.541c0.438,4.484,1.669,8.792,3.689,12.857c2.025,4.127,4.885,7.763,8.586,11.029
		c7.46,6.469,16.787,9.467,27.859,9.063c3.746-0.508,7.71-1.467,11.953-2.877L-8950.644-4842.464z M-8946.243-4843.39l12.938,46.668
		c9.236-4.48,13.407-13.125,12.52-25.807c-0.852-4.209-2.353-7.939-4.688-11.18c-2.277-3.305-5.182-5.824-8.776-7.553
		C-8937.844-4842.988-8941.8-4843.701-8946.243-4843.39z M-8963.371-4906.532c1.949-1.374,4.145-3.693,6.464-6.886
		c2.323-3.131,4.546-6.814,6.616-10.917c2.127-4.17,3.756-8.367,4.887-12.592c1.135-4.162,1.543-8.088,1.293-11.659
		c-0.107-1.539-0.338-3.069-0.742-4.401c-0.4-2.199-1.201-3.876-2.455-4.964c-1.25-1.026-2.773-1.538-4.625-1.408
		c-3.703,0.258-6.877,2.769-9.52,7.533c-2.008,4.1-3.594,8.912-4.582,14.302c-1.045,5.455-1.477,10.806-1.226,16.17
		C-8966.525-4915.282-8965.189-4910.364-8963.371-4906.532L-8963.371-4906.532z M-8967.01-4902.689
		c-3.475-9.779-5.727-19.829-6.76-30.151c-0.402-6.653-0.159-12.918,0.732-18.796c0.829-5.874,2.271-10.985,4.314-15.458
		c1.982-4.469,4.407-7.918,7.215-10.341c2.516-2.156,4.355-3.336,5.404-3.409c0.803-0.056,1.504,0.204,2.159,0.715
		c0.656,0.511,1.522,1.378,2.597,2.541c8.07,9.89,12.652,22.19,13.676,36.843c0.486,6.957,0.035,13.793-1.344,20.695
		c-1.319,6.835-3.525,13.423-6.625,19.641c-3.158,6.284-6.988,11.81-11.549,16.645l6.694,23.907
		c2.693-0.498,4.527-0.874,5.577-0.947c4.689-0.328,8.955,0.364,12.98,2.062s7.544,4.113,10.496,7.309
		c2.947,3.135,5.313,6.805,7.096,11.011c1.721,4.21,2.838,8.648,3.164,13.328c0.508,7.264-0.939,14.047-4.349,20.286
		s-8.843,11.013-16.358,14.383c0.705,2.981,1.874,7.292,3.562,12.804c1.631,5.578,2.87,10.008,3.72,13.289s1.32,6.465,1.54,9.605
		c0.34,4.863-0.531,9.254-2.609,13.234c-2.14,3.986-5.143,7.166-9.069,9.543c-3.864,2.373-8.234,3.73-13.049,4.068
		c-6.788,0.475-12.846-1.021-18.169-4.422c-5.327-3.463-8.4-8.383-9.103-14.893c-0.018-2.904,0.472-5.662,1.525-8.334
		c1.054-2.67,2.572-4.881,4.621-6.633c1.982-1.809,4.452-2.848,7.34-3.235c2.406-0.168,4.738,0.351,6.988,1.491
		c2.192,1.209,4.045,2.873,5.501,5.061c1.394,2.191,2.249,4.668,2.438,7.377c0.254,3.633-0.766,6.797-3.058,9.492
		c-2.292,2.697-5.349,4.211-9.114,4.475l-1.418,0.098c2.664,3.527,6.748,5.158,12.24,4.775c2.777-0.195,5.572-1.008,8.334-2.314
		c2.818-1.373,5.118-3.082,7.017-5.193c1.899-2.111,3.11-4.299,3.511-6.555c0.873-2.598,1.121-6.141,0.816-10.512
		c-0.207-2.957-0.723-5.891-1.485-8.805c-0.757-2.855-1.893-6.674-3.401-11.395c-1.504-4.658-2.625-8.292-3.296-10.781
		c-3.638,1.183-7.431,1.942-11.442,2.224c-6.727,0.47-13.177-0.44-19.357-2.792c-6.18-2.352-11.692-5.802-16.604-10.408
		c-4.85-4.609-8.754-9.904-11.724-16.007c-2.903-6.045-4.656-12.479-5.191-19.248c-0.192-6.297,0.559-12.412,2.384-18.232
		c1.822-5.881,4.282-11.496,7.447-16.791c3.164-5.294,6.482-10.167,9.959-14.555
		C-8977.494-4890.326-8972.861-4895.908-8967.01-4902.689L-8967.01-4902.689z"/>
</g>
</svg>
