<?xml version="1.0" encoding="utf-8"?>
<!-- Generator: Adobe Illustrator 16.0.0, SVG Export Plug-In . SVG Version: 6.00 Build 0)  -->
<!DOCTYPE svg PUBLIC "-//W3C//DTD SVG 1.1//EN" "http://www.w3.org/Graphics/SVG/1.1/DTD/svg11.dtd">
<svg version="1.1"
	 id="Layer_1" xmlns:dc="http://purl.org/dc/elements/1.1/" xmlns:cc="http://creativecommons.org/ns#" xmlns:rdf="http://www.w3.org/1999/02/22-rdf-syntax-ns#" xmlns:svg="http://www.w3.org/2000/svg" xmlns:sodipodi="http://sodipodi.sourceforge.net/DTD/sodipodi-0.dtd" xmlns:inkscape="http://www.inkscape.org/namespaces/inkscape" sodipodi:docname="Colorful_Animal_Turtle_Tortise_black_white_line_art_coloring_book_colouring.svg" inkscape:version="0.48.1 "
	 xmlns="http://www.w3.org/2000/svg" xmlns:xlink="http://www.w3.org/1999/xlink" x="0px" y="0px" width="586.5px" height="484.5px"
	 viewBox="0 0 586.5 484.5" enable-background="new 0 0 586.5 484.5" xml:space="preserve">
<sodipodi:namedview  inkscape:cy="632.30191" inkscape:cx="75.328496" inkscape:zoom="0.28578899" showgrid="false" guidetolerance="10" gridtolerance="10" objecttolerance="10" borderopacity="1" pagecolor="#ffffff" bordercolor="#666666" id="namedview767" inkscape:current-layer="Layer_1" inkscape:window-maximized="0" inkscape:window-y="72" inkscape:window-x="443" inkscape:window-height="828" inkscape:window-width="1436" inkscape:pageshadow="2" inkscape:pageopacity="0">
	</sodipodi:namedview>
<path id="path705" inkscape:connector-curvature="0" fill="#FFFFFF" stroke="#000000" d="M315.301,424.052
	c-70.489,36.044-77.864-10.83-77.864-10.83c-14.223-44.489-20.37-76.431-22.112-99.33c0.003,0.018,0.003,0.036,0.005,0.05
	c-23.102,2.082-38.011-0.251-48.484-4.359c-15.055,12.857-30.227,29.615-30.227,29.615c16.238,50.906,8.776,52.663,8.776,52.663
	c-27.646,25.012-76.799,1.315-76.799,1.315s-5.267-55.294,2.195-69.34c5.085-9.571,31.17-34.23,47.267-48.962
	c-0.407-2.295,0.115-4.337,0.563-5.546C38.5,238.957,20.929,152.037,25.6,92.283c-0.038-0.752-0.074-1.502-0.074-2.259
	c0-31.449,33.026-56.94,73.765-56.94c40.739,0,73.763,25.491,73.763,56.94c0,27.372-25.021,50.218-58.367,55.69
	c4.448,11.272,14.278,24.302,35.61,32.816c-0.958-1.543-4.281-7.476-3.447-14.42c0.969-8.085,23.939-7.763,23.939-7.763
	c39.795-88.647,122.618-96.089,122.618-96.089s173.079-29.122,198.733,139.85c13.444,8.737,33.491,18.19,52.488,13.4
	c0,0,3.754-0.998,3.167,1.838c-0.537,2.589-5.938,26.272-52.514,25.669c0.003,0.142,0.007,0.28,0.007,0.42
	c0,0,7.765,6.901,8.629,12.079c0,0,3.851,8.337-2.794,19.008c18.979,24.437,31.847,49.399,36.085,57.609
	c6.901,13.373,3.019,55.216,3.019,55.216c-28.901,23.292-70.745,6.901-76.351,3.449c-5.611-3.449,11.215-34.078,3.449-54.351
	c-3.277-8.559-17.628-19.196-33.12-28.631c-10.68,2.343-22.929,4.448-37.002,6.227c1.123,51.855-3.021,51.85-3.021,51.85
	s-6.973,2.817-44.86,1.728c-28.346-0.816-23.248-28.585-19.051-48.972c-23.95,0.081-43.713-1.916-60.036-5.438
	c-4.466,25.89,18.631,54.105,36.391,76.788c10.101,12.904,12.816,22.585,13.516,27.471
	C320.146,415.466,320.986,421.468,315.301,424.052L315.301,424.052z"/>
<path id="path709" inkscape:connector-curvature="0" fill="#FFFFFF" stroke="#000000" d="M503.899,253.512
	c-0.859-5.177-8.625-12.08-8.625-12.08C493.331,26.61,293.389,60.255,293.389,60.255s-82.823,7.441-122.616,96.089
	c0,0-22.972-0.325-23.943,7.765c-0.969,8.089,3.708,14.822,3.708,14.822s30.821,10.641,36.923,32.892
	c3.083,11.242,2.299,33.017,13.168,53.825c-14.883,6.665-41.281,12.717-81.517,2.528c0,0-6.899,12.08,12.08,17.257
	c18.937,5.167,18.985,34.375,84.117,28.508c-0.897-11.745-0.635-21.108,0.29-28.563c22.838,21.445,67.133,36.816,155.435,29.389
	C526.224,301.716,503.899,253.512,503.899,253.512L503.899,253.512z"/>
<path id="path711" inkscape:connector-curvature="0" fill="#FFFFFF" stroke="#000000" d="M112.84,53.365
	c1.626,6.162,6.51,10.388,10.897,9.417c4.375-0.972,6.613-6.752,4.985-12.919c-1.635-6.164-6.507-10.383-10.896-9.416
	C113.443,41.41,111.213,47.201,112.84,53.365L112.84,53.365z"/>
<path id="path713" inkscape:connector-curvature="0" fill="#FFFFFF" stroke="#000000" d="M87.267,60.076
	c2.037,6.81,7.527,11.183,12.256,9.767c4.733-1.432,6.912-8.12,4.872-14.931c-2.042-6.837-7.531-11.199-12.254-9.776
	C87.41,46.565,85.223,53.25,87.267,60.076L87.267,60.076z"/>
<path id="path715" inkscape:connector-curvature="0" fill="#FFFFFF" stroke="#000000" d="M269.012,432.159
	c0,0-2.476-17.512,7.183-17.747c9.674-0.233,9.417,17.473,9.417,17.473S277.656,435.849,269.012,432.159L269.012,432.159z"/>
<path id="path717" inkscape:connector-curvature="0" fill="#FFFFFF" stroke="#000000" d="M289.616,427.651
	c0,0-3.757-14.829,3.621-16.164c0,0,9.979-0.875,9.869,14.244C303.106,425.731,299.062,430.567,289.616,427.651L289.616,427.651z"/>
<path id="path719" inkscape:connector-curvature="0" fill="#FFFFFF" stroke="#000000" d="M264.18,430.3
	c0,0,1.908-16.584-5.823-16.814c0,0-9.988,0.188-8.328,14.425C250.031,427.912,253.72,432.141,264.18,430.3z"/>
<path id="path721" inkscape:connector-curvature="0" fill="#FFFFFF" stroke="#000000" d="M82.499,394.293
	c0,0,0.194-16.523,8.623-15.522c8.437,1.001,5.84,17.359,5.84,17.359S89.517,398.797,82.499,394.293L82.499,394.293z"/>
<path id="path723" inkscape:connector-curvature="0" fill="#FFFFFF" stroke="#000000" d="M100.533,398.212
	c0,0-2.206-16.362,5.107-16.866c0,0,9.46-0.174,8.232,14C113.872,395.345,110.477,399.666,100.533,398.212L100.533,398.212z"/>
<path id="path725" inkscape:connector-curvature="0" fill="#FFFFFF" stroke="#000000" d="M160.032,116.252
	c0,0-31.817,26.694-55.002-5.992c0,0-1.122-0.967-0.504-1.914c0.77-1.183,1.532-0.738,1.532-0.738
	c21.646,32.206,53.016,7.26,53.016,7.26s0.857-0.77,1.344-0.244C160.898,115.15,161.031,115.729,160.032,116.252z"/>
<path id="path727" inkscape:connector-curvature="0" fill="#FFFFFF" stroke="#000000" d="M159.639,71.246
	c0.549,2.301,2.299,3.831,3.907,3.41c1.607-0.423,2.469-2.631,1.921-4.931c-0.549-2.304-2.298-3.828-3.908-3.409
	C159.949,66.739,159.092,68.947,159.639,71.246z"/>
<path id="path729" inkscape:connector-curvature="0" fill="#FFFFFF" stroke="#000000" d="M151.374,76.211
	c1.852,2.1,4.433,2.85,5.751,1.674c1.317-1.17,0.885-3.822-0.973-5.919c-1.852-2.098-4.427-2.85-5.746-1.678
	C149.089,71.467,149.517,74.117,151.374,76.211z"/>
<path id="path731" inkscape:connector-curvature="0" fill="#FFFFFF" stroke="#000000" d="M352.571,362.472
	c0,0-1.578-16.45,6.908-16.357c8.495,0.092,7.666,16.635,7.666,16.635S360.03,366.197,352.571,362.472z"/>
<path id="path733" inkscape:connector-curvature="0" fill="#FFFFFF" stroke="#000000" d="M383.625,362.801
	c0,0-1.03-16.431-7.981-15.681c0,0-8.906,1.441-5.073,15.138C370.569,362.258,374.569,365.923,383.625,362.801z"/>
<path id="path735" inkscape:connector-curvature="0" fill="#FFFFFF" stroke="#000000" d="M348.971,362.055
	c0,0,2.448-16.281-4.507-17.009c0,0-9.01-0.463-8.141,13.733C336.323,358.778,339.461,363.203,348.971,362.055z"/>
<path id="path737" inkscape:connector-curvature="0" fill="#FFFFFF" stroke="#000000" d="M489.641,393.301
	c0,0-1.728-16.435,6.76-16.419c8.493,0.019,7.814,16.564,7.814,16.564S497.131,396.961,489.641,393.301L489.641,393.301z"/>
<path id="path739" inkscape:connector-curvature="0" fill="#FFFFFF" stroke="#000000" d="M509.999,391.631
	c0,0-3.397-16.143,3.73-17.218c0,0,9.256-0.912,9.123,13.309C522.852,387.722,519.854,392.3,509.999,391.631L509.999,391.631z"/>
<path id="path741" inkscape:connector-curvature="0" fill="#FFFFFF" stroke="#000000" d="M482.681,390.107
	c0,0,1.733-16.375-5.249-16.795c0,0-9.022-0.066-7.531,14.077C469.901,387.388,473.231,391.668,482.681,390.107z"/>
<path id="path743" inkscape:connector-curvature="0" fill="#FFFFFF" stroke="#000000" d="M78.251,391.686
	c0,0,1.509-16.395-5.477-16.72c0,0-2.9,0.023-5.107,2.614c0.35,6.166,0.745,11.087,0.96,13.587
	C70.667,391.954,73.771,392.49,78.251,391.686z"/>
</svg>
