<?xml version="1.0" encoding="utf-8"?>
<!-- Generator: Adobe Illustrator 16.0.0, SVG Export Plug-In . SVG Version: 6.00 Build 0)  -->
<!DOCTYPE svg PUBLIC "-//W3C//DTD SVG 1.1//EN" "http://www.w3.org/Graphics/SVG/1.1/DTD/svg11.dtd">
<svg version="1.1"
	 id="Layer_1" xmlns:dc="http://purl.org/dc/elements/1.1/" xmlns:cc="http://creativecommons.org/ns#" xmlns:rdf="http://www.w3.org/1999/02/22-rdf-syntax-ns#" xmlns:svg="http://www.w3.org/2000/svg" xmlns:sodipodi="http://sodipodi.sourceforge.net/DTD/sodipodi-0.dtd" xmlns:inkscape="http://www.inkscape.org/namespaces/inkscape" sodipodi:docname="Colorful_Animal_Turtle_Tortise_black_white_line_art_coloring_book_colouring.svg" inkscape:version="0.48.1 "
	 xmlns="http://www.w3.org/2000/svg" xmlns:xlink="http://www.w3.org/1999/xlink" x="0px" y="0px" width="586.5px" height="484.5px"
	 viewBox="0 0 586.5 484.5" enable-background="new 0 0 586.5 484.5" xml:space="preserve">
<sodipodi:namedview  inkscape:cy="632.30191" inkscape:cx="75.328496" inkscape:zoom="0.28578899" showgrid="false" guidetolerance="10" gridtolerance="10" objecttolerance="10" borderopacity="1" pagecolor="#ffffff" bordercolor="#666666" id="namedview767" inkscape:current-layer="Layer_1" inkscape:window-maximized="0" inkscape:window-y="72" inkscape:window-x="443" inkscape:window-height="828" inkscape:window-width="1436" inkscape:pageshadow="2" inkscape:pageopacity="0">
	</sodipodi:namedview>
<g id="g703" transform="matrix(4.85,0,0,4.85,-1229.7533,-4310.4344)">
	<path id="path705" inkscape:connector-curvature="0" fill="#FFFFFF" stroke="#000000" d="M318.568,976.183
		c-14.534,7.432-16.054-2.233-16.054-2.233c-2.932-9.173-4.2-15.759-4.559-20.48c0.001,0.004,0.001,0.007,0.001,0.01
		c-4.763,0.429-7.837-0.052-9.997-0.899c-3.104,2.651-6.232,6.106-6.232,6.106c3.348,10.496,1.81,10.858,1.81,10.858
		c-5.7,5.157-15.835,0.271-15.835,0.271s-1.086-11.401,0.453-14.297c1.049-1.973,6.427-7.058,9.746-10.095
		c-0.084-0.473,0.024-0.894,0.116-1.144c-16.52-6.262-20.143-24.184-19.18-36.504c-0.008-0.155-0.015-0.31-0.015-0.466
		c0-6.484,6.81-11.74,15.209-11.74c8.4,0,15.209,5.256,15.209,11.74c0,5.644-5.159,10.354-12.034,11.482
		c0.917,2.324,2.944,5.011,7.342,6.766c-0.198-0.318-0.883-1.541-0.711-2.973c0.2-1.667,4.936-1.601,4.936-1.601
		c8.205-18.278,25.282-19.812,25.282-19.812s35.686-6.004,40.976,28.835c2.772,1.801,6.905,3.751,10.822,2.763
		c0,0,0.774-0.206,0.653,0.379c-0.111,0.534-1.224,5.417-10.828,5.293c0.001,0.029,0.001,0.058,0.001,0.087
		c0,0,1.601,1.423,1.779,2.49c0,0,0.794,1.719-0.576,3.919c3.913,5.038,6.566,10.185,7.44,11.878
		c1.423,2.757,0.622,11.385,0.622,11.385c-5.959,4.802-14.587,1.423-15.742,0.711c-1.157-0.711,2.312-7.026,0.711-11.206
		c-0.676-1.765-3.635-3.958-6.829-5.903c-2.202,0.483-4.728,0.917-7.629,1.284c0.232,10.692-0.623,10.691-0.623,10.691
		s-1.438,0.581-9.25,0.356c-5.845-0.168-4.793-5.894-3.928-10.097c-4.938,0.017-9.013-0.395-12.378-1.121
		c-0.921,5.338,3.842,11.156,7.503,15.833c2.083,2.661,2.642,4.657,2.787,5.664C319.567,974.412,319.74,975.65,318.568,976.183
		L318.568,976.183z"/>
	<g id="g707">
		<path id="path709" inkscape:connector-curvature="0" fill="#FFFFFF" stroke="#000000" d="M357.454,941.02
			c-0.177-1.067-1.778-2.491-1.778-2.491c-0.401-44.293-41.626-37.356-41.626-37.356s-17.077,1.534-25.282,19.812
			c0,0-4.737-0.067-4.937,1.601c-0.2,1.668,0.764,3.056,0.764,3.056s6.355,2.194,7.613,6.782c0.636,2.318,0.474,6.808,2.715,11.098
			c-3.069,1.374-8.512,2.622-16.808,0.521c0,0-1.423,2.491,2.491,3.558c3.904,1.065,3.914,7.088,17.344,5.878
			c-0.185-2.422-0.131-4.352,0.06-5.889c4.709,4.422,13.842,7.591,32.048,6.06C362.057,950.959,357.454,941.02,357.454,941.02
			L357.454,941.02z"/>
		<path id="path711" inkscape:connector-curvature="0" fill="#FFFFFF" stroke="#000000" d="M276.823,899.752
			c0.335,1.271,1.342,2.142,2.247,1.942c0.902-0.2,1.363-1.392,1.028-2.664c-0.337-1.271-1.342-2.141-2.247-1.941
			C276.948,897.288,276.488,898.482,276.823,899.752L276.823,899.752z"/>
		<path id="path713" inkscape:connector-curvature="0" fill="#FFFFFF" stroke="#000000" d="M271.55,901.136
			c0.42,1.404,1.552,2.306,2.527,2.014c0.976-0.295,1.425-1.674,1.004-3.079c-0.421-1.41-1.553-2.309-2.527-2.016
			C271.58,898.351,271.129,899.729,271.55,901.136L271.55,901.136z"/>
		<path id="path715" inkscape:connector-curvature="0" fill="#FFFFFF" stroke="#000000" d="M309.024,977.854
			c0,0-0.511-3.611,1.481-3.659c1.995-0.048,1.942,3.603,1.942,3.603S310.806,978.615,309.024,977.854L309.024,977.854z"/>
		<path id="path717" inkscape:connector-curvature="0" fill="#FFFFFF" stroke="#000000" d="M313.272,976.925
			c0,0-0.775-3.058,0.747-3.333c0,0,2.058-0.18,2.035,2.937C316.053,976.529,315.22,977.526,313.272,976.925L313.272,976.925z"/>
		<path id="path719" inkscape:connector-curvature="0" fill="#FFFFFF" stroke="#000000" d="M308.027,977.471
			c0,0,0.393-3.419-1.201-3.467c0,0-2.059,0.039-1.717,2.974C305.11,976.979,305.871,977.851,308.027,977.471z"/>
		<path id="path721" inkscape:connector-curvature="0" fill="#FFFFFF" stroke="#000000" d="M270.567,970.047
			c0,0,0.04-3.407,1.778-3.2c1.74,0.206,1.204,3.579,1.204,3.579S272.014,970.976,270.567,970.047L270.567,970.047z"/>
		<path id="path723" inkscape:connector-curvature="0" fill="#FFFFFF" stroke="#000000" d="M274.286,970.855
			c0,0-0.455-3.374,1.053-3.477c0,0,1.951-0.036,1.697,2.887C277.036,970.264,276.336,971.155,274.286,970.855L274.286,970.855z"/>
		<path id="path725" inkscape:connector-curvature="0" fill="#FFFFFF" stroke="#000000" d="M286.554,912.719
			c0,0-6.56,5.504-11.341-1.235c0,0-0.231-0.199-0.104-0.395c0.159-0.244,0.316-0.152,0.316-0.152
			c4.463,6.64,10.931,1.497,10.931,1.497s0.177-0.159,0.277-0.05C286.732,912.492,286.76,912.611,286.554,912.719z"/>
		<path id="path727" inkscape:connector-curvature="0" fill="#FFFFFF" stroke="#000000" d="M286.473,903.439
			c0.113,0.474,0.474,0.79,0.806,0.703c0.331-0.087,0.509-0.542,0.396-1.017c-0.113-0.475-0.474-0.789-0.806-0.703
			C286.537,902.51,286.36,902.965,286.473,903.439z"/>
		<path id="path729" inkscape:connector-curvature="0" fill="#FFFFFF" stroke="#000000" d="M284.768,904.463
			c0.382,0.433,0.914,0.588,1.186,0.345c0.272-0.241,0.182-0.788-0.201-1.22c-0.382-0.432-0.913-0.588-1.185-0.346
			C284.297,903.485,284.386,904.031,284.768,904.463z"/>
		<path id="path731" inkscape:connector-curvature="0" fill="#FFFFFF" stroke="#000000" d="M326.252,963.486
			c0,0-0.325-3.392,1.424-3.373c1.751,0.019,1.581,3.43,1.581,3.43S327.79,964.254,326.252,963.486z"/>
		<path id="path733" inkscape:connector-curvature="0" fill="#FFFFFF" stroke="#000000" d="M332.655,963.554
			c0,0-0.212-3.388-1.646-3.233c0,0-1.836,0.297-1.046,3.121C329.963,963.442,330.788,964.198,332.655,963.554z"/>
		<path id="path735" inkscape:connector-curvature="0" fill="#FFFFFF" stroke="#000000" d="M325.51,963.4
			c0,0,0.505-3.357-0.929-3.507c0,0-1.858-0.096-1.679,2.832C322.902,962.724,323.549,963.637,325.51,963.4z"/>
		<path id="path737" inkscape:connector-curvature="0" fill="#FFFFFF" stroke="#000000" d="M354.514,969.842
			c0,0-0.356-3.389,1.394-3.385c1.751,0.004,1.611,3.415,1.611,3.415S356.059,970.597,354.514,969.842L354.514,969.842z"/>
		<path id="path739" inkscape:connector-curvature="0" fill="#FFFFFF" stroke="#000000" d="M358.712,969.498
			c0,0-0.7-3.328,0.769-3.55c0,0,1.908-0.188,1.881,2.744C361.362,968.692,360.744,969.636,358.712,969.498L358.712,969.498z"/>
		<path id="path741" inkscape:connector-curvature="0" fill="#FFFFFF" stroke="#000000" d="M353.079,969.184
			c0,0,0.357-3.376-1.082-3.463c0,0-1.86-0.014-1.553,2.902C350.444,968.623,351.131,969.506,353.079,969.184z"/>
		<path id="path743" inkscape:connector-curvature="0" fill="#FFFFFF" stroke="#000000" d="M269.692,969.509
			c0,0,0.311-3.38-1.129-3.447c0,0-0.598,0.005-1.053,0.539c0.072,1.271,0.154,2.286,0.198,2.802
			C268.128,969.565,268.768,969.675,269.692,969.509z"/>
	</g>
</g>
</svg>
