<?xml version="1.0" encoding="utf-8"?>
<!-- Generator: Adobe Illustrator 16.0.0, SVG Export Plug-In . SVG Version: 6.00 Build 0)  -->
<!DOCTYPE svg PUBLIC "-//W3C//DTD SVG 1.1//EN" "http://www.w3.org/Graphics/SVG/1.1/DTD/svg11.dtd">
<svg version="1.1"
	 id="Layer_1" xmlns:dc="http://purl.org/dc/elements/1.1/" xmlns:cc="http://creativecommons.org/ns#" xmlns:rdf="http://www.w3.org/1999/02/22-rdf-syntax-ns#" xmlns:svg="http://www.w3.org/2000/svg" xmlns:sodipodi="http://sodipodi.sourceforge.net/DTD/sodipodi-0.dtd" xmlns:inkscape="http://www.inkscape.org/namespaces/inkscape" sodipodi:docname="Colorful_Animal_Whale.svg" inkscape:version="0.48.1 "
	 xmlns="http://www.w3.org/2000/svg" xmlns:xlink="http://www.w3.org/1999/xlink" x="0px" y="0px" width="539.688px"
	 height="541.375px" viewBox="0 0 539.688 541.375" enable-background="new 0 0 539.688 541.375" xml:space="preserve">
<g>
	<path d="M296.598,247.97l0.012-0.158c-3.146-0.252-6.188-0.375-9.131-0.375c-20.785-0.001-36.608,6.09-49.463,15.225
		c-19.282,13.701-31.892,34.232-44.639,51.319c-6.373,8.543-12.779,16.225-20.059,21.765c-7.281,5.54-15.429,8.941-25.315,8.943
		c-17.161-0.005-27.292-6.743-33.169-15.991c-5.875-9.25-7.477-21.036-7.476-31.101c0-7.339,0.85-13.76,1.503-17.613l-0.156-0.027
		l0.012,0.158c5.463-0.408,12.724-2.394,21.632-7.975l0,0c5.397-3.383,8.844-7.498,10.935-11.836
		c2.092-4.338,2.831-8.898,2.831-13.174c-0.002-10.352-4.322-19.057-4.327-19.069l-0.272-0.549l-0.028,0.612
		c-0.115,2.501-1.027,4.422-2.333,5.913c-1.959,2.235-4.823,3.493-7.199,4.185c-1.188,0.346-2.253,0.552-3.02,0.671
		c-0.383,0.06-0.692,0.097-0.905,0.12c-0.106,0.011-0.188,0.019-0.244,0.024c-0.055,0.004-0.083,0.006-0.083,0.006l0.011,0.158
		l-0.007-0.158c-12.628,0.584-19.7,5.841-23.686,12.267c-3.988,6.424-4.911,13.998-5.334,19.247l0.158,0.013l0.146-0.062
		c-1.59-3.759-4.241-9.014-8.031-13.34c-3.789-4.324-8.731-7.727-14.89-7.728c-0.515,0-1.039,0.024-1.57,0.073
		c-5.403,0.498-8.834,1.502-11.513,2.379c-2.681,0.879-4.597,1.621-6.997,1.62c-3.093,0.001-7.041-1.234-14.482-5.073l-0.207-0.106
		l-0.024,0.231c0,0.004-0.082,0.793-0.082,2.138c0,3.37,0.511,10.235,4.105,17.021c3.592,6.786,10.28,13.485,22.586,16.489
		c4.316,1.055,8.12,1.491,11.46,1.491c2.593,0,4.907-0.263,6.966-0.705l-0.034-0.155l-0.158-0.001
		c-0.011,0.911-0.016,1.817-0.016,2.72c-0.001,56.198,20.505,96.048,50.825,121.831c30.319,25.785,70.437,37.509,109.659,37.509
		c25.529,0,50.68-4.967,72.51-14.261c44.832-19.083,64.228-55.16,64.225-90.425c0-22.895-8.168-45.449-22.842-62.805
		c-14.674-17.356-35.855-29.513-61.869-31.6L296.598,247.97v0.159l0,0l0.012-0.316L296.598,247.97v-0.158l0,0l-0.014,0.316
		c25.928,2.082,47.027,14.192,61.652,31.488c14.623,17.297,22.767,39.781,22.767,62.601c-0.003,35.149-19.308,71.089-64.032,90.133
		c-21.785,9.276-46.897,14.235-72.386,14.235c-39.161,0-79.206-11.707-109.454-37.432c-30.248-25.728-50.712-65.469-50.714-121.591
		c0-0.9,0.005-1.807,0.016-2.717l0.002-0.197l-0.194,0.041c-2.036,0.438-4.327,0.699-6.899,0.699c-3.313,0-7.091-0.434-11.385-1.482
		c-12.224-2.988-18.821-9.612-22.381-16.33c-3.559-6.717-4.069-13.534-4.068-16.873c0-0.666,0.02-1.194,0.041-1.554
		c0.01-0.18,0.02-0.318,0.028-0.412c0.007-0.093,0.012-0.14,0.012-0.14l-0.158-0.016l-0.073,0.141
		c7.455,3.844,11.443,5.107,14.628,5.108c2.471,0,4.427-0.762,7.095-1.636c2.67-0.874,6.066-1.869,11.444-2.365
		c0.522-0.048,1.036-0.071,1.541-0.071c6.034,0,10.894,3.332,14.652,7.619c3.756,4.285,6.396,9.515,7.978,13.255l0.252,0.597
		L97,270.583c0.421-5.235,1.345-12.759,5.287-19.105c3.944-6.344,10.884-11.529,23.432-12.118h0.002h0.001
		c0.01-0.001,3.391-0.232,6.845-1.743c1.727-0.756,3.474-1.834,4.823-3.371c1.349-1.536,2.295-3.536,2.412-6.107l-0.158-0.007
		l-0.142,0.07c0,0,0.016,0.033,0.047,0.098c0.469,0.98,4.248,9.208,4.247,18.83c0,4.241-0.733,8.751-2.799,13.037
		c-2.067,4.286-5.467,8.351-10.818,11.705l0,0c-8.872,5.56-16.08,7.522-21.487,7.927l-0.124,0.01l-0.021,0.123
		c-0.656,3.866-1.508,10.303-1.508,17.666c0.001,10.098,1.6,21.938,7.526,31.271c5.924,9.336,16.194,16.143,33.437,16.138
		c13.283,0.001,23.474-6.108,32.559-15.242c13.63-13.702,24.819-34.214,40.377-51.29c15.56-17.076,35.459-30.717,66.541-30.72
		c2.935,0,5.967,0.122,9.106,0.374L296.598,247.97v-0.158V247.97z"/>
	<path d="M298.386,230.793l0.144,0.068c1.291-2.708,6.113-12.614,14.402-21.835c8.293-9.223,20.039-17.751,35.188-17.75
		c3.466,0,7.111,0.446,10.936,1.434c7.448,1.922,14.11,2.791,20.021,2.791c12.811,0.001,22.096-4.085,28.17-10.365
		c6.074-6.28,8.934-14.743,8.934-23.476c0-10.016-3.758-20.392-10.75-28.271c-6.992-7.879-17.228-13.256-30.158-13.255
		c-4.172,0-8.625,0.56-13.34,1.774c-12.798,3.297-23.351,11.54-31.998,22.163c-25.938,31.872-34.8,85.203-35.74,91.418v0.002v0.002
		c0,0.004-0.022,0.179-0.022,0.41c0,0.181,0.013,0.395,0.065,0.595c0.054,0.197,0.146,0.396,0.344,0.502l0,0l-0.001-0.001
		c0.128,0.067,0.264,0.101,0.399,0.101c0.258,0,0.5-0.118,0.725-0.299c0.392-0.32,0.751-0.848,1.085-1.463
		c0.999-1.845,1.748-4.494,1.75-4.5L298.386,230.793l0.144,0.068L298.386,230.793l-0.153-0.043c0,0-0.025,0.094-0.076,0.261
		c-0.178,0.584-0.645,2.051-1.244,3.363c-0.301,0.656-0.635,1.272-0.975,1.716c-0.17,0.222-0.342,0.399-0.504,0.517
		c-0.166,0.119-0.316,0.175-0.455,0.175c-0.084,0-0.166-0.02-0.254-0.064l0,0c-0.074-0.036-0.143-0.144-0.185-0.303
		c-0.042-0.157-0.056-0.35-0.056-0.514c0-0.105,0.006-0.199,0.011-0.266c0.003-0.033,0.005-0.06,0.007-0.078l0.003-0.026
		l-0.157-0.02l0.157,0.023c0.622-4.127,4.771-29.195,15.136-54.862c5.182-12.833,11.916-25.815,20.536-36.403
		c8.62-10.589,19.119-18.781,31.832-22.056c4.69-1.208,9.117-1.764,13.261-1.764c12.842,0.001,22.98,5.332,29.921,13.149
		c6.938,7.817,10.671,18.125,10.671,28.061c0,8.665-2.836,17.043-8.846,23.255c-6.009,6.211-15.197,10.267-27.941,10.269
		c-5.879,0-12.516-0.865-19.941-2.781c-3.85-0.993-7.521-1.443-11.016-1.443c-15.276,0.001-27.102,8.598-35.422,17.855
		c-8.323,9.259-13.156,19.192-14.453,21.911l-0.006,0.012l-0.004,0.013L298.386,230.793z"/>
	<path d="M295.564,176.982l0.154,0.037c0.422-1.782,0.541-4.982,0.542-9.252c0-6.035-0.243-14.191-0.243-23.38
		c0-18.338,0.971-40.786,6.771-58.628c2.898-8.921,7.004-16.687,12.786-22.217c5.782-5.529,13.235-8.833,22.879-8.834
		c4.106,0,8.608,0.6,13.545,1.886c7.793,2.03,13.442,6.247,17.153,11.622c3.707,5.375,5.474,11.913,5.474,18.579
		c0,8.694-3.004,17.604-8.601,24.423c-5.597,6.819-13.775,11.551-24.153,11.91c-8.677,0.299-15.373,2.884-20.612,6.825
		c-7.859,5.911-12.432,14.852-15.557,23.67c-3.124,8.817-4.805,17.524-6.846,22.958l-0.002,0.006l-0.002,0.006l-0.008,0.023
		c-0.037,0.119-0.219,0.675-0.533,1.188c-0.158,0.257-0.349,0.503-0.563,0.679c-0.216,0.176-0.449,0.282-0.709,0.282
		c-0.03,0-0.06-0.001-0.09-0.004h-0.003l0,0l-0.012-0.001c-0.066-0.006-0.404-0.051-0.705-0.229
		c-0.152-0.089-0.295-0.209-0.398-0.373c-0.104-0.164-0.176-0.371-0.176-0.651c0-0.143,0.02-0.304,0.063-0.487L295.564,176.982
		l-0.153-0.037c-0.05,0.203-0.071,0.39-0.071,0.56c-0.001,0.356,0.1,0.645,0.253,0.864c0.23,0.33,0.565,0.503,0.837,0.597
		c0.271,0.093,0.485,0.108,0.494,0.109l0.012-0.158l-0.016,0.158c0.04,0.003,0.08,0.005,0.119,0.005c0.374,0,0.697-0.166,0.96-0.396
		c0.396-0.348,0.679-0.846,0.87-1.259c0.189-0.413,0.285-0.741,0.287-0.746l-0.152-0.044l0.148,0.056
		c1.371-3.655,2.572-8.734,4.145-14.321c2.357-8.38,5.553-17.898,11.38-25.421c5.83-7.522,14.277-13.058,27.204-13.507
		c10.469-0.36,18.743-5.145,24.389-12.025c5.646-6.882,8.67-15.857,8.67-24.625c0-6.722-1.779-13.323-5.529-18.759
		c-3.75-5.436-9.473-9.702-17.333-11.748c-4.96-1.292-9.489-1.896-13.625-1.896c-9.716-0.001-17.265,3.339-23.099,8.922
		c-8.75,8.374-13.656,21.765-16.383,36.498s-3.271,30.814-3.271,44.577c0,9.194,0.244,17.354,0.244,23.38
		c0,4.26-0.125,7.461-0.533,9.179L295.564,176.982z"/>
	<path d="M292.063,235.565l0.158,0.007c0-0.002,0.258-5.59,0.258-14.912c0-23.45-1.627-70.525-13.084-111.756
		c-5.729-20.616-13.915-39.772-25.596-53.786c-11.68-14.014-26.872-22.882-46.564-22.88c-10.096,0-21.373,2.329-33.965,7.478
		l-0.003,0.001l-0.003,0.002c-0.01,0.004-8.744,4.052-17.485,12.503c-8.739,8.45-17.49,21.316-17.489,38.939
		c0,11.041,3.435,23.939,12.438,38.776c5.174,8.526,12.698,14.073,21.365,17.483c8.667,3.411,18.477,4.689,28.245,4.689
		c8.451,0,16.871-0.957,24.493-2.323h0.002h0.003c0,0,0.04-0.009,0.119-0.024c0.56-0.109,3.043-0.553,6.611-0.553
		c7.515,0.001,19.821,1.962,29.167,13.11c3.604,4.297,6.999,10.768,10.085,18.113c4.631,11.018,8.572,24.003,11.541,34.593
		c1.484,5.295,2.726,9.991,3.688,13.544c0.481,1.777,0.894,3.268,1.231,4.407c0.338,1.141,0.6,1.921,0.795,2.306l0,0
		c0.397,0.775,0.779,1.297,1.148,1.631c0.368,0.334,0.734,0.48,1.075,0.479c0.313,0,0.591-0.121,0.826-0.291
		c0.353-0.256,0.618-0.623,0.803-0.926c0.185-0.304,0.282-0.544,0.285-0.55l0.01-0.025l0.001-0.027L292.063,235.565l-0.146-0.06
		l-0.007,0.016c-0.036,0.084-0.219,0.487-0.508,0.858c-0.146,0.186-0.315,0.363-0.504,0.49c-0.188,0.127-0.387,0.205-0.603,0.205
		c-0.25,0-0.534-0.102-0.862-0.398c-0.328-0.295-0.693-0.786-1.078-1.54l0,0c-0.115-0.222-0.273-0.648-0.463-1.239
		c-0.717-2.222-1.908-6.812-3.502-12.689c-2.393-8.818-5.692-20.543-9.67-31.586c-3.979-11.044-8.628-21.403-13.746-27.507
		c-9.427-11.245-21.846-13.224-29.409-13.223c-4.108,0-6.79,0.583-6.798,0.584l0.034,0.155l-0.028-0.156
		c-7.607,1.363-16.01,2.318-24.437,2.318c-9.74,0-19.513-1.276-28.128-4.667c-8.617-3.391-16.075-8.892-21.21-17.352
		c-8.98-14.799-12.392-27.638-12.392-38.612c0-17.513,8.691-30.296,17.393-38.711c4.351-4.207,8.702-7.319,11.965-9.379
		c1.631-1.03,2.991-1.797,3.942-2.306c0.476-0.254,0.849-0.445,1.103-0.571c0.254-0.126,0.388-0.188,0.388-0.188l-0.067-0.144
		l0.06,0.146c12.563-5.137,23.798-7.454,33.845-7.454c19.594,0.002,34.681,8.806,46.321,22.766
		c17.458,20.939,27.12,53.488,32.405,85.194c5.287,31.706,6.203,62.569,6.203,80.145c0,4.658-0.063,8.383-0.129,10.943
		c-0.032,1.28-0.063,2.269-0.089,2.938c-0.023,0.668-0.039,1.016-0.039,1.017L292.063,235.565l-0.146-0.06L292.063,235.565z"/>
	<path d="M292.907,327.674l-0.128,0.093c2.66,3.664,6.169,5.665,9.335,5.667c1.856,0.001,3.594-0.695,4.938-2.144l0,0
		c1.623-1.756,2.405-4.3,2.405-7.087c0-3.458-1.205-7.302-3.543-10.524c-2.667-3.672-6.174-5.674-9.337-5.676
		c-1.857-0.001-3.596,0.699-4.939,2.151c-1.621,1.754-2.406,4.298-2.406,7.087c0,3.457,1.203,7.3,3.547,10.526L292.907,327.674
		l0.128-0.093c-2.305-3.172-3.486-6.958-3.485-10.341c0-2.732,0.771-5.195,2.321-6.872c1.287-1.388,2.927-2.049,4.707-2.05
		c3.025-0.002,6.459,1.933,9.081,5.545c2.3,3.166,3.483,6.952,3.483,10.338c0,2.729-0.77,5.193-2.322,6.872l0,0
		c-1.287,1.384-2.928,2.042-4.707,2.043c-3.029,0.002-6.463-1.934-9.079-5.536L292.907,327.674z"/>
	<path d="M358.572,396.565l-0.053-0.149c0,0-0.033,0.011-0.098,0.033c-0.974,0.333-9.152,3.016-19.396,3.016
		c-7.633,0-16.406-1.489-24.209-6.537s-14.646-13.652-18.414-27.932l-0.006-0.02l-0.008-0.017l-0.004-0.005
		c-0.031-0.059-0.313-0.62-0.311-1.2c0.003-0.396,0.119-0.788,0.52-1.088c0.395-0.292,0.85-0.396,1.307-0.397
		c0.537,0,1.072,0.148,1.471,0.299c0.199,0.074,0.363,0.149,0.479,0.207c0.057,0.027,0.102,0.051,0.131,0.066l0.033,0.02l0.01,0.006
		l0.08-0.137l-0.153,0.036c3.239,13.661,9.309,21.984,16.34,26.883c7.03,4.897,15.009,6.368,22.058,6.368
		c10.644-0.001,19.176-3.351,19.188-3.354l-0.059-0.147l-0.035,0.154c0,0,0.031,0.008,0.092,0.023
		c0.208,0.053,0.738,0.201,1.246,0.424c0.253,0.109,0.5,0.24,0.697,0.381c0.196,0.141,0.338,0.293,0.394,0.434
		c0.067,0.167,0.106,0.382,0.106,0.615c0,0.396-0.111,0.839-0.346,1.189c-0.234,0.35-0.579,0.608-1.076,0.673L358.572,396.565
		v-0.158l0,0h-0.027l-0.025,0.009L358.572,396.565v0.158l0,0h0.01l0.01-0.001c0.594-0.072,1.028-0.398,1.301-0.812
		c0.274-0.414,0.397-0.911,0.398-1.364c0-0.268-0.043-0.52-0.13-0.734c-0.106-0.26-0.333-0.463-0.601-0.639
		c-0.401-0.263-0.91-0.462-1.321-0.6s-0.724-0.211-0.728-0.211l-0.049-0.013l-0.045,0.019c0,0-0.032,0.013-0.096,0.037
		c-0.965,0.363-9.059,3.296-18.977,3.296c-7.005,0-14.914-1.462-21.876-6.313c-6.96-4.851-12.985-13.092-16.213-26.694l-0.016-0.066
		l-0.06-0.034c-0.012-0.004-1.093-0.636-2.281-0.639c-0.506,0-1.035,0.118-1.496,0.46c-0.493,0.366-0.649,0.883-0.646,1.342
		c0.002,0.722,0.348,1.345,0.352,1.356l0.141-0.076l-0.152,0.041c3.782,14.339,10.676,23.025,18.547,28.118
		c7.871,5.091,16.709,6.587,24.383,6.587c10.983,0,19.588-3.064,19.599-3.067L358.572,396.565v0.158V396.565z"/>
</g>
</svg>
